<svg width="224" height="198" viewBox="0 0 224 198" fill="none" xmlns="http://www.w3.org/2000/svg">
<g clip-path="url(#clip0)">
<g opacity="0.37">
<path opacity="0.37" d="M41.9455 197.058L41.2578 196.55" stroke="#6B6B6B" stroke-width="0.427142" stroke-linecap="round" stroke-linejoin="round"/>
<path opacity="0.75" d="M39.8932 195.521C17.0625 177.995 5 153.917 5 123.27C5 69.8811 49.7217 26.5989 104.883 26.5989C160.044 26.5989 204.77 69.8811 204.77 123.27C204.77 152.964 193.63 177.329 171.97 194.974" stroke="#404040" stroke-width="1.1223" stroke-linecap="round" stroke-linejoin="round" stroke-dasharray="1.71 1.71"/>
<path opacity="0.37" d="M171.303 195.512L170.637 196.042" stroke="#6B6B6B" stroke-width="0.427142" stroke-linecap="round" stroke-linejoin="round"/>
</g>
<path d="M41.9511 138.852C41.9511 138.852 17.3007 141.414 16.6472 158.846C15.9937 176.278 21.2304 187.973 21.6661 194.568C22.1018 201.163 21.6661 197.088 21.6661 197.088H43.9116L48.4906 155.578L41.9511 138.852Z" fill="#002966"/>
<path d="M24.2792 157.782C24.7064 146.463 34.6844 141.252 41.9885 138.95L41.9501 138.852C41.9501 138.852 17.2997 141.414 16.6462 158.846C15.9927 176.278 20.519 187.602 21.6651 194.568C21.7377 195.7 21.789 196.507 21.8189 197.088H29.3024V197.054H29.4562C29.4263 196.46 29.375 195.627 29.3024 194.465C28.5675 187.602 23.6257 175.701 24.2792 157.782Z" fill="#001E4A"/>
<path d="M21.8178 197.088H21.6641C21.6641 197.088 21.9631 199.877 21.8178 197.088Z" fill="#919191"/>
<path d="M29.4531 197.053V197.087H43.9119V197.053H29.4531Z" fill="#919191"/>
<path d="M130.248 180.549C129.304 180.51 129.052 182.505 129.052 182.505C123.38 181.651 108.917 166.295 107.23 163.886C105.542 161.477 100.596 136.391 98.9088 132.666C97.2216 128.941 85.9835 126.208 85.9835 126.208L86.9489 129.518C87.0514 137.595 83.4719 136.51 80.5759 137.839C79.8285 138.153 79.1928 138.685 78.7511 139.365C78.3094 140.045 78.082 140.842 78.0985 141.653C77.9015 140.795 77.4558 140.013 76.8171 139.406C75.3434 137.839 72.866 137.719 72.866 137.719C59.599 134.584 56.4424 123.269 56.4424 123.269C51.4495 124.278 46.5884 125.854 41.9538 127.968C34.7522 131.351 43.8076 149.782 43.8076 149.782C48.929 171.058 41.9495 197.058 41.9495 197.058L98.1656 196.942C98.1656 196.942 110.22 193.739 110.553 194.068C110.886 194.397 131.419 194.068 131.419 194.068C131.419 194.068 132.837 182.432 132.837 181.634C132.837 180.835 131.192 180.583 130.248 180.549ZM99.2164 187.434C99.2164 187.434 99.3488 185.243 98.1656 184.871C97.6873 184.677 97.1582 184.644 96.6597 184.779C96.1612 184.914 95.7209 185.209 95.4063 185.619L91.6603 183.325C91.6603 183.325 92.7623 172.758 92.9118 170.81C97.1888 177.243 102.568 182.871 108.801 187.434H99.2164Z" fill="#2CA2DB"/>
<path d="M55.3984 138.852L66.0385 160.478C67.9978 164.46 70.8426 167.94 74.355 170.653C81.1893 175.919 92.4487 184.449 95.2849 185.632C95.374 189.472 95.0677 193.311 94.3708 197.088" stroke="#006BC2" stroke-width="0.427142" stroke-miterlimit="10" stroke-linecap="round"/>
<path d="M44.7812 151.538C44.7812 151.538 53.5078 174.877 66.5954 184.129C79.683 193.381 86.4446 197.041 86.4446 197.041" stroke="#006BC2" stroke-width="0.427142" stroke-miterlimit="10" stroke-linecap="round"/>
<path d="M92.9103 170.81C93.501 164.65 93.4236 158.445 92.6797 152.302" stroke="#006BC2" stroke-width="0.427142" stroke-miterlimit="10" stroke-linecap="round"/>
<path d="M115.968 188.826C115.357 189.147 114.622 188.72 114.174 187.861L105.165 170.716C104.738 169.861 104.854 168.9 105.464 168.58C106.075 168.264 106.934 168.704 107.382 169.562L116.113 186.9C116.549 187.763 116.579 188.498 115.968 188.826Z" fill="#282828"/>
<path d="M52.3156 35.5255C52.062 35.4061 51.7725 35.3877 51.5058 35.4742C51.2392 35.5607 51.0155 35.7455 50.8804 35.9911L49.3042 39.0494C49.2865 39.0906 49.2773 39.1349 49.2773 39.1797C49.2773 39.2245 49.2865 39.2689 49.3042 39.31C49.3378 39.3957 49.4038 39.4648 49.4879 39.5022L50.7693 40.1045C50.8194 40.1258 50.873 40.1374 50.9274 40.1387C50.9934 40.1396 51.0583 40.1221 51.1149 40.0882C51.1715 40.0542 51.2175 40.0051 51.2477 39.9464L52.8239 36.8924C52.8848 36.77 52.9199 36.6364 52.9271 36.5C52.9343 36.3635 52.9134 36.227 52.8658 36.0989C52.8182 35.9707 52.7448 35.8538 52.6501 35.7552C52.5555 35.6565 52.4416 35.5784 52.3156 35.5255Z" fill="white"/>
<path d="M42.8014 35.9909C42.6654 35.745 42.441 35.5601 42.1737 35.4736C41.9063 35.3871 41.6161 35.4056 41.3619 35.5253C41.2378 35.5803 41.1261 35.6599 41.0336 35.7593C40.9411 35.8587 40.8697 35.9759 40.8238 36.1036C40.7779 36.2314 40.7584 36.3672 40.7664 36.5027C40.7745 36.6383 40.81 36.7708 40.8707 36.8922L42.4469 39.9463C42.4771 40.0049 42.5231 40.054 42.5797 40.088C42.6363 40.1219 42.7012 40.1394 42.7672 40.1385C42.8216 40.1372 42.8752 40.1256 42.9253 40.1043L44.2067 39.502C44.2487 39.4841 44.2867 39.4578 44.3182 39.4248C44.3498 39.3917 44.3743 39.3526 44.3904 39.3098C44.4243 39.2263 44.4243 39.1328 44.3904 39.0493L42.8014 35.9909Z" fill="white"/>
<path d="M58.9861 38.7157C58.6002 38.5136 58.1499 38.4725 57.7337 38.6014C57.3175 38.7302 56.9692 39.0186 56.765 39.4034L54.0655 44.2899C53.9631 44.475 53.8982 44.6785 53.8744 44.8886C53.8507 45.0988 53.8686 45.3116 53.9271 45.5149C54.0452 45.9255 54.3216 46.2722 54.6955 46.479C55.0693 46.6857 55.51 46.7355 55.9205 46.6174C56.3311 46.4992 56.6778 46.2228 56.8846 45.849L59.5841 40.9625C59.8026 40.5852 59.8624 40.1366 59.7502 39.7153C59.6381 39.294 59.3633 38.9344 58.9861 38.7157Z" fill="white"/>
<path d="M52.9151 44.4742H40.7416C40.6956 44.4731 40.6498 44.481 40.6069 44.4976C40.564 44.5142 40.5247 44.539 40.4914 44.5707C40.4581 44.6025 40.4314 44.6405 40.4127 44.6825C40.3941 44.7246 40.3839 44.7699 40.3828 44.8159V52.9957C40.3839 53.0417 40.3941 53.087 40.4127 53.1291C40.4314 53.1712 40.4581 53.2092 40.4914 53.2409C40.5247 53.2726 40.564 53.2975 40.6069 53.314C40.6498 53.3306 40.6956 53.3386 40.7416 53.3374H42.1725V55.5586C42.1725 55.9856 42.3422 56.3952 42.6442 56.6972C42.9462 56.9992 43.3558 57.1689 43.7829 57.1689C44.2099 57.1689 44.6195 56.9992 44.9215 56.6972C45.2235 56.3952 45.3932 55.9856 45.3932 55.5586V53.346H48.2593V55.5586C48.2593 55.9856 48.429 56.3952 48.731 56.6972C49.033 56.9992 49.4425 57.1689 49.8696 57.1689C50.2967 57.1689 50.7063 56.9992 51.0083 56.6972C51.3103 56.3952 51.48 55.9856 51.48 55.5586V53.346H52.9109C52.9569 53.3471 53.0027 53.3392 53.0456 53.3226C53.0885 53.306 53.1278 53.2812 53.1611 53.2494C53.1944 53.2177 53.2211 53.1797 53.2398 53.1376C53.2584 53.0956 53.2686 53.0502 53.2697 53.0042V44.8159C53.2674 44.7238 53.229 44.6362 53.1626 44.5723C53.0962 44.5083 53.0073 44.4731 52.9151 44.4742Z" fill="white"/>
<path d="M38.0556 44.4746C37.6394 44.4643 37.2361 44.6195 36.9342 44.9062C36.6323 45.1928 36.4565 45.5876 36.4453 46.0038V51.1295C36.4453 51.5566 36.615 51.9661 36.917 52.2681C37.219 52.5701 37.6286 52.7398 38.0556 52.7398C38.4827 52.7398 38.8923 52.5701 39.1943 52.2681C39.4963 51.9661 39.666 51.5566 39.666 51.1295V46.0038C39.6548 45.5876 39.4789 45.1928 39.177 44.9062C38.8751 44.6195 38.4718 44.4643 38.0556 44.4746Z" fill="white"/>
<path d="M46.8284 37.3237C43.2746 37.3237 40.3828 40.0745 40.3828 43.4532C40.3862 43.5454 40.4257 43.6325 40.4929 43.6957C40.5601 43.7588 40.6494 43.793 40.7416 43.7907H52.9152C53.0073 43.793 53.0967 43.7588 53.1639 43.6957C53.2311 43.6325 53.2706 43.5454 53.2739 43.4532C53.2739 40.0745 50.3822 37.3237 46.8284 37.3237ZM44.6927 41.4072C44.7004 41.5507 44.6648 41.6932 44.5906 41.8163C44.5164 41.9393 44.4069 42.0372 44.2764 42.0974C44.1459 42.1575 44.0003 42.1771 43.8586 42.1535C43.7168 42.13 43.5854 42.0644 43.4813 41.9654C43.3772 41.8663 43.3053 41.7382 43.2748 41.5978C43.2444 41.4573 43.2568 41.311 43.3104 41.1777C43.3641 41.0444 43.4565 40.9302 43.5758 40.8501C43.6951 40.7699 43.8356 40.7274 43.9793 40.728C44.1615 40.728 44.3365 40.7988 44.4673 40.9256C44.5981 41.0524 44.6743 41.2251 44.6799 41.4072H44.6927ZM48.9897 41.4072C48.9829 41.264 49.0191 41.1221 49.0937 40.9997C49.1683 40.8772 49.2778 40.78 49.4082 40.7204C49.5386 40.6608 49.6838 40.6416 49.8252 40.6653C49.9666 40.689 50.0976 40.7545 50.2014 40.8534C50.3052 40.9523 50.377 41.0799 50.4076 41.22C50.4382 41.36 50.4261 41.506 50.3729 41.6392C50.3198 41.7723 50.228 41.8864 50.1093 41.9669C49.9907 42.0474 49.8507 42.0905 49.7073 42.0906C49.6143 42.0946 49.5213 42.08 49.434 42.0477C49.3466 42.0154 49.2666 41.9659 49.1986 41.9023C49.1306 41.8386 49.076 41.7621 49.0379 41.6771C48.9998 41.5921 48.9791 41.5003 48.9769 41.4072H48.9897Z" fill="white"/>
<path d="M122.283 21.1866C122.144 21.1921 122.005 21.1678 121.877 21.1153C121.748 21.0627 121.632 20.9832 121.536 20.882C121.441 20.7808 121.368 20.6603 121.323 20.5287C121.278 20.397 121.262 20.2572 121.275 20.1187C121.277 19.8489 121.384 19.5904 121.573 19.3976C121.761 19.2048 122.018 19.0928 122.287 19.0851C122.427 19.0862 122.564 19.1147 122.692 19.169C122.82 19.2232 122.936 19.3022 123.034 19.4014C123.132 19.5005 123.209 19.6179 123.261 19.7469C123.313 19.8758 123.339 20.0138 123.338 20.1529C123.344 20.2922 123.321 20.4312 123.27 20.5609C123.219 20.6906 123.141 20.8081 123.042 20.9056C122.942 21.0032 122.823 21.0786 122.692 21.127C122.562 21.1755 122.422 21.1958 122.283 21.1866ZM130.629 20.5331C130.649 20.111 130.549 19.6919 130.342 19.3239C130.134 18.956 129.826 18.6541 129.455 18.4529C129.051 18.2216 128.621 18.0409 128.173 17.9147C126.702 17.5488 125.175 17.4605 123.671 17.6541C122.717 17.6923 121.787 17.9699 120.968 18.4614C120.696 18.6129 120.472 18.8371 120.322 19.1087C120.171 19.3804 120.099 19.6887 120.113 19.9991C120.113 20.5758 120.113 21.161 120.113 21.7376C120.083 22.2416 120.284 22.3869 120.758 22.3826C122.125 22.3826 123.488 22.3826 124.855 22.3826C125.183 22.3826 125.478 22.3826 125.474 22.8738C125.47 23.365 125.158 23.3522 124.842 23.3522H121.185C120.058 23.3522 118.934 23.3522 117.807 23.3522C117.198 23.3238 116.596 23.4909 116.089 23.829C115.581 24.1672 115.196 24.6586 114.988 25.2316C114.155 27.0384 114.202 28.9435 114.56 30.8443C114.707 31.5552 114.965 32.2385 115.325 32.8689C115.5 33.2024 115.757 33.4859 116.071 33.6929C116.386 33.8999 116.748 34.0235 117.123 34.0521C117.657 34.0906 118.195 34.0521 118.729 34.0735C119.037 34.0735 119.156 33.9453 119.156 33.6463C119.156 33.0483 119.156 32.4503 119.156 31.8481C119.156 29.3835 120.331 28.2088 122.774 28.2216C124.419 28.2216 126.063 28.2473 127.704 28.2216C129.587 28.2216 130.6 27.158 130.617 25.2316C130.617 23.6598 130.617 22.0836 130.617 20.5117" fill="white"/>
<path d="M128.516 36.1239C128.656 36.1177 128.795 36.1416 128.924 36.1938C129.054 36.2461 129.17 36.3255 129.266 36.4268C129.362 36.5281 129.435 36.6488 129.481 36.7807C129.526 36.9127 129.542 37.0529 129.529 37.1917C129.525 37.4611 129.417 37.7187 129.228 37.91C129.038 38.1013 128.781 38.2114 128.512 38.2169C128.373 38.2163 128.236 38.1885 128.109 38.1349C127.981 38.0814 127.865 38.0032 127.767 37.9049C127.67 37.8065 127.592 37.6899 127.54 37.5616C127.487 37.4334 127.461 37.2961 127.461 37.1576C127.455 37.0183 127.478 36.8793 127.529 36.7496C127.58 36.6199 127.658 36.5024 127.758 36.4049C127.857 36.3073 127.976 36.2319 128.107 36.1834C128.238 36.135 128.377 36.1147 128.516 36.1239ZM136.256 26.5388C136.108 25.8318 135.848 25.1528 135.487 24.527C135.313 24.1857 135.053 23.8958 134.732 23.686C134.411 23.4762 134.042 23.3539 133.659 23.331C133.125 23.2883 132.587 23.331 132.053 23.331C131.745 23.331 131.626 23.4549 131.626 23.7581C131.626 24.3561 131.626 24.9541 131.626 25.5479C131.626 27.9997 130.451 29.17 128.008 29.1572C126.364 29.1572 124.723 29.1316 123.079 29.1572C121.195 29.1786 120.183 30.2208 120.17 32.1216C120.17 33.6849 120.17 35.2482 120.17 36.8201C120.152 37.2407 120.253 37.6578 120.462 38.0235C120.67 38.3892 120.978 38.6886 121.349 38.8875C121.751 39.1203 122.182 39.2997 122.63 39.4214C124.102 39.7873 125.629 39.8757 127.132 39.682C128.098 39.6431 129.037 39.3626 129.866 38.8661C130.136 38.715 130.358 38.4921 130.509 38.2222C130.66 37.9523 130.733 37.6459 130.72 37.337C130.699 36.7603 130.695 36.1837 130.72 35.607C130.75 35.1073 130.55 34.9621 130.075 34.9663C128.713 34.9663 127.346 34.9663 125.979 34.9663C125.65 34.9663 125.36 34.9663 125.36 34.4709C125.36 33.9754 125.676 34.001 125.992 34.001C127.214 34.001 128.431 34.001 129.648 34.001V33.9754C130.776 33.9754 131.899 33.9754 133.027 33.9754C133.625 34.0035 134.217 33.8429 134.719 33.5164C135.221 33.1899 135.608 32.714 135.825 32.1557C136.649 30.3276 136.598 28.4268 136.256 26.5388Z" fill="white"/>
<path fill-rule="evenodd" clip-rule="evenodd" d="M181.597 74.3958C181.038 74.3956 180.501 74.6148 180.101 75.0061C179.702 75.3974 179.472 75.9298 179.461 76.4887V89.0382C179.472 89.5972 179.702 90.1295 180.101 90.5208C180.501 90.9121 181.038 91.1313 181.597 91.1312H197.99C198.549 91.1313 199.086 90.9121 199.486 90.5208C199.885 90.1295 200.115 89.5972 200.126 89.0382V76.4887C200.115 75.9298 199.885 75.3974 199.486 75.0061C199.086 74.6148 198.549 74.3956 197.99 74.3958H181.597ZM187.508 87.462C187.379 87.4587 187.255 87.4068 187.162 87.3168C187.111 87.2761 187.069 87.2241 187.041 87.1649C187.013 87.1056 186.999 87.0407 187 86.9751C187 86.8949 187.019 86.8158 187.056 86.7444L190.964 78.6885C191.003 78.6046 191.061 78.5313 191.135 78.4749C191.209 78.4234 191.297 78.3965 191.387 78.3981C191.514 78.4001 191.635 78.4523 191.724 78.5433C191.775 78.5835 191.816 78.6348 191.844 78.6933C191.872 78.7518 191.887 78.8159 191.886 78.8807C191.885 78.9626 191.864 79.043 191.827 79.1157L187.931 87.1673C187.892 87.2536 187.83 87.3275 187.752 87.3809C187.681 87.4322 187.596 87.4606 187.508 87.462ZM186.778 84.3866C186.846 84.4223 186.902 84.4767 186.94 84.5433C186.977 84.6099 186.995 84.686 186.991 84.7625C186.994 84.9213 186.935 85.0748 186.825 85.1896C186.789 85.2417 186.742 85.2852 186.687 85.317C186.633 85.3487 186.572 85.368 186.509 85.3733C186.431 85.369 186.356 85.3486 186.287 85.3135L186.026 85.1683L182.904 83.323C182.829 83.2797 182.768 83.216 182.729 83.1393C182.69 83.0563 182.67 82.966 182.669 82.8745C182.668 82.7842 182.689 82.695 182.729 82.614C182.767 82.5364 182.828 82.4724 182.904 82.4303L186.026 80.6149C186.154 80.5284 186.3 80.4729 186.453 80.4526C186.523 80.4557 186.591 80.4746 186.653 80.5079C186.714 80.5412 186.767 80.588 186.808 80.6448C186.914 80.7467 186.977 80.8861 186.983 81.0335C186.983 81.1059 186.963 81.1769 186.925 81.2387C186.888 81.3005 186.834 81.3507 186.769 81.3838L184.206 82.8745L186.778 84.3866ZM196.743 82.678C196.71 82.5916 196.65 82.5182 196.572 82.4687L193.446 80.6149C193.356 80.5637 193.27 80.521 193.185 80.4825C193.12 80.4404 193.045 80.4168 192.967 80.4142C192.902 80.4194 192.839 80.4385 192.783 80.4702C192.726 80.5019 192.677 80.5454 192.638 80.5978C192.535 80.7156 192.48 80.8683 192.484 81.025C192.48 81.1022 192.497 81.1791 192.535 81.2466C192.573 81.314 192.63 81.3691 192.698 81.4051L195.261 82.9343L192.698 84.4293C192.634 84.4626 192.581 84.5129 192.544 84.5748C192.507 84.6366 192.488 84.7075 192.489 84.7796C192.495 84.9268 192.553 85.0672 192.651 85.1768C192.697 85.2309 192.753 85.2751 192.816 85.3067C192.879 85.3383 192.948 85.3566 193.018 85.3605C193.172 85.3407 193.319 85.2835 193.446 85.1939L196.572 83.3828C196.647 83.3395 196.708 83.2758 196.747 83.1991C196.786 83.1164 196.805 83.0257 196.803 82.9343C196.803 82.8454 196.783 82.7577 196.743 82.678Z" fill="white"/>
<path d="M99.2148 187.434C99.548 187.267 105.088 188.126 110.624 184.401C110.624 184.401 113.541 182.992 115.254 183.398C116.967 183.803 119.483 185.913 119.786 187.02C120.089 188.126 119.987 188.63 120.29 189.638C120.593 190.646 120.085 192.154 120.29 192.859C120.495 193.564 120.29 195.174 119.786 195.575C119.365 196.017 119.024 196.529 118.778 197.087L98.1641 196.942C98.1641 196.942 99.2362 191.71 99.2148 187.434Z" fill="#FAB186"/>
<path d="M99.327 196.99C99.327 196.99 100.438 193.145 99.7541 187.447C99.5703 187.432 99.3852 187.439 99.2031 187.469C99.2245 191.74 98.1523 196.99 98.1523 196.99" fill="#F18B6B"/>
<path d="M132.652 183.325C132.652 183.325 141.861 184.218 146.162 184.662C147.027 184.831 147.87 185.098 148.674 185.457C149.456 185.905 151.1 188.84 151.275 189.301C151.389 189.863 151.436 190.436 151.416 191.009C151.416 191.009 153.979 192.171 153.915 192.522C153.851 192.872 153.749 194.316 147.816 192.035C145.936 191.482 144.023 191.054 142.088 190.753C142.088 190.753 144.813 191.428 145.718 192.197C146.624 192.966 146.231 194.709 145.116 194.546C144.001 194.384 139.922 193.756 138.645 193.871C137.549 193.955 136.448 193.871 135.377 193.624C133.953 193.264 132.68 192.461 131.742 191.33L132.652 183.325Z" fill="#FAB186"/>
<path d="M82.0363 114.35C93.4239 107.965 90.7628 90.5074 90.7628 90.5074L92.6807 88.2735L88.7424 83.4852L70.9648 80.397C70.9648 80.397 67.1205 87.7395 66.924 88.1667C66.7275 88.5938 67.3512 94.766 67.3512 94.766C67.3512 94.766 63.3659 87.8463 60.5169 91.4685C56.3694 96.7907 63.4441 101.751 63.4441 101.751C64.5305 108.513 64.3098 114.789 63.5069 121.591L56.4292 123.269C56.4292 123.269 55.9209 123.188 58.236 127.605C61.0124 132.897 67.9267 137.368 72.6851 137.82C77.4434 138.273 78.1109 142.059 78.1109 142.059C78.1109 142.059 78.853 137.801 82.5222 137.224C86.1913 136.648 86.5042 133.691 86.5042 133.691C88.0547 129.787 85.9746 126.208 85.9746 126.208C83.3947 125.755 80.8623 125.065 78.4099 124.145C78.0508 121.723 78.4099 115.205 78.4099 115.205C79.6775 115.297 80.943 114.999 82.0363 114.35Z" fill="#FAB186"/>
<path d="M68.6484 110.002C68.6484 110.002 72.7533 114.389 78.3915 115.205L78.3225 117.252C78.3225 117.252 74.5088 119.677 68.6484 110.002Z" fill="#F18B6B"/>
<path d="M63.555 93.7449C63.555 93.7449 65.9897 94.6504 66.0111 96.658C66.0111 98.4904 65.0799 99.0841 64.3281 99.5113C63.1663 100.178 62.9229 95.6371 62.9229 95.6371L63.555 93.7449Z" fill="#F18B6B"/>
<path d="M131.754 191.245V191.338C132.691 192.47 133.964 193.273 135.389 193.632C136.459 193.88 137.561 193.964 138.657 193.88C139.938 193.765 144.009 194.393 145.128 194.555C145.282 194.581 145.441 194.564 145.586 194.506C145.731 194.448 145.858 194.351 145.952 194.226C144.534 194.61 145.495 193.846 138.887 193.154C132.279 192.462 132.664 183.33 132.664 183.33L131.754 191.245Z" fill="#F18B6B"/>
<path d="M144.859 188.754C147.134 189.243 149.336 190.027 151.407 191.086" stroke="#F18B6B" stroke-width="0.320356" stroke-linecap="round" stroke-linejoin="round"/>
<path d="M145.422 184.622C145.524 184.622 147.805 184.959 149.172 185.869C149.655 186.263 149.99 186.81 150.12 187.419" stroke="#F18B6B" stroke-width="0.320356" stroke-linecap="round" stroke-linejoin="round"/>
<path d="M145.578 186.354C145.689 186.384 149.73 187.387 150.764 188.387C150.764 188.387 151.477 188.917 151.225 189.527" stroke="#F18B6B" stroke-width="0.320356" stroke-linecap="round" stroke-linejoin="round"/>
<path d="M145.199 187.499C145.199 187.499 147.408 187.473 150.983 189.365L151.115 189.438C151.115 189.438 151.628 189.664 151.41 191.087" stroke="#F18B6B" stroke-width="0.320356" stroke-linecap="round" stroke-linejoin="round"/>
<path d="M93.2034 155.579C93.2034 155.579 94.6899 171.921 99.0809 178.687C99.0809 178.687 93.9552 172.792 92.9258 170.81L93.2034 155.579Z" fill="#006BC2"/>
<path d="M128.828 184.346C128.828 184.346 127.845 190.83 127.884 194.055" stroke="#006BC2" stroke-width="0.427142" stroke-miterlimit="10" stroke-linecap="round"/>
<path d="M45.6739 168.589C46.0156 161.169 43.7704 149.744 43.7704 149.744L44.9628 152.129C47.5897 158.421 51.2395 167.252 58.4241 176.115C65.7965 185.226 84.1679 196.02 85.8722 197.015L86.0003 197.088L41.9492 197.058C44.5121 190.262 45.6739 168.589 45.6739 168.589Z" fill="#006BC2"/>
<path d="M118.958 196.041C119.624 195.617 120.109 194.961 120.32 194.2L159.075 193.449C159.075 193.449 160.672 193.846 161.035 188.267L166.272 149.902C166.272 149.902 166.272 145.758 171.825 145.429C177.378 145.1 214.36 145.429 214.36 145.429C214.36 145.429 218.452 144.975 216.538 153.609C214.467 163.203 209.234 194.568 209.234 194.568C209.234 194.568 208.807 196.99 203.886 197.058C198.966 197.126 119.804 196.87 119.804 196.87L118.949 196.041" fill="#00489A"/>
<path d="M214.367 145.429C214.367 145.429 177.398 145.104 171.832 145.429C170.757 145.869 170.758 146.179 170.161 146.763C169.682 147.241 169.107 148.906 168.629 151.922C167.864 156.744 163.037 192.761 163.037 192.761C163.037 192.761 162.61 197.032 165.553 197.083C184.048 197.083 201.659 197.083 203.893 197.058C208.801 196.989 209.241 194.567 209.241 194.567C209.241 194.567 214.474 163.207 216.545 153.609C218.452 144.974 214.367 145.429 214.367 145.429Z" fill="#001E4A"/>
<path d="M46.4024 66.4591C57.3295 66.4591 66.1876 57.6009 66.1876 46.6739C66.1876 35.7468 57.3295 26.8887 46.4024 26.8887C35.4753 26.8887 26.6172 35.7468 26.6172 46.6739C26.6172 57.6009 35.4753 66.4591 46.4024 66.4591Z" fill="#002966"/>
<path d="M124.926 48.5704C135.853 48.5704 144.711 39.7123 144.711 28.7852C144.711 17.8581 135.853 9 124.926 9C113.999 9 105.141 17.8581 105.141 28.7852C105.141 39.7123 113.999 48.5704 124.926 48.5704Z" fill="#25A1DB"/>
<path d="M189.055 102.548C199.982 102.548 208.84 93.6898 208.84 82.7627C208.84 71.8357 199.982 62.9775 189.055 62.9775C178.128 62.9775 169.27 71.8357 169.27 82.7627C169.27 93.6898 178.128 102.548 189.055 102.548Z" fill="#002966"/>
<path d="M79.2859 94.9454C80.029 94.9454 80.6314 94.343 80.6314 93.5999C80.6314 92.8568 80.029 92.2544 79.2859 92.2544C78.5428 92.2544 77.9404 92.8568 77.9404 93.5999C77.9404 94.343 78.5428 94.9454 79.2859 94.9454Z" fill="#1C2B31"/>
<path d="M82.9539 105.308C82.9539 105.308 82.4499 105.214 79.5368 104.197C76.6237 103.181 76.581 103.838 76.581 103.838C76.581 103.838 76.2051 104.266 76.4571 105.427C76.6749 106.346 77.29 107.623 79.5111 108.417C81.1215 108.81 82.467 108.452 83.3896 106.88C84.2353 105.534 82.9539 105.308 82.9539 105.308Z" fill="#EA7575"/>
<mask id="mask0" style="mask-type:alpha" maskUnits="userSpaceOnUse" x="76" y="103" width="8" height="6">
<path d="M82.9539 105.308C82.9539 105.308 82.4499 105.214 79.5368 104.197C76.6237 103.181 76.581 103.838 76.581 103.838C76.581 103.838 76.2051 104.266 76.4571 105.427C76.6749 106.346 77.29 107.623 79.5111 108.417C81.1215 108.81 82.467 108.452 83.3896 106.88C84.2353 105.534 82.9539 105.308 82.9539 105.308Z" fill="#EA7575"/>
</mask>
<g mask="url(#mask0)">
<path d="M76.841 103.161C76.841 103.161 76.6231 104.086 76.8409 104.163C77.0588 104.24 82.5262 106.816 83.0986 106.444C83.2706 106.322 83.4116 106.162 83.5103 105.976C83.609 105.789 83.6626 105.583 83.6667 105.372L76.841 103.161Z" fill="#E8E8E8"/>
<path d="M76.2656 104.733C76.2656 104.733 80.7293 105.365 80.6438 108.039C80.5584 110.713 76.287 106.296 76.287 106.296L76.2656 104.733Z" fill="#BE565E"/>
</g>
<path d="M88.2772 97.0084C88.8316 97.0084 89.281 96.4711 89.281 95.8082C89.281 95.1453 88.8316 94.6079 88.2772 94.6079C87.7228 94.6079 87.2734 95.1453 87.2734 95.8082C87.2734 96.4711 87.7228 97.0084 88.2772 97.0084Z" fill="#1C2B31"/>
<path d="M174.98 134.845C174.98 134.845 175.407 138.134 171.593 138.04C171.593 138.04 174.882 138.087 174.788 141.137C174.788 141.137 175.078 138.715 178.077 138.185C178.124 138.185 175.561 138.766 174.98 134.845Z" fill="#FBB043"/>
<path d="M161.121 121.445C161.121 121.445 161.899 127.104 155.316 126.959C155.316 126.959 160.976 127.006 160.831 132.328C160.831 132.328 161.365 128.168 166.542 127.25C166.559 127.198 162.206 128.215 161.121 121.445Z" fill="#FBB043"/>
<path d="M19.9771 32.9758C19.9771 32.9758 20.4042 36.2691 16.5898 36.1708C16.5898 36.1708 19.8788 36.2178 19.7849 39.2676C19.7849 39.2676 20.071 36.8457 23.0739 36.3161C23.1208 36.3374 20.558 36.897 19.9771 32.9758Z" fill="#FBB043"/>
<path d="M81.3517 46.7505C81.3517 46.7505 82.1249 52.4101 75.5469 52.2649C75.5469 52.2649 81.2065 52.3119 81.0613 57.6341C81.0613 57.6341 81.5952 53.4737 86.7722 52.5553C86.7722 52.5084 82.4153 53.5207 81.3517 46.7505Z" fill="#FBB043"/>
<path d="M121.827 21.3275C121.688 21.3336 121.549 21.3098 121.42 21.2578C121.291 21.2058 121.175 21.1267 121.079 21.0259C120.983 20.9252 120.91 20.805 120.864 20.6735C120.818 20.5421 120.801 20.4024 120.814 20.2639C120.821 19.9974 120.93 19.7437 121.118 19.5553C121.307 19.3668 121.56 19.2581 121.827 19.2516C121.966 19.2527 122.103 19.2812 122.231 19.3354C122.36 19.3897 122.476 19.4687 122.573 19.5678C122.671 19.667 122.748 19.7844 122.8 19.9134C122.852 20.0423 122.879 20.1803 122.878 20.3194C122.879 20.456 122.853 20.5915 122.801 20.7175C122.748 20.8436 122.67 20.9574 122.571 21.052C122.473 21.1465 122.356 21.2198 122.228 21.2672C122.1 21.3146 121.963 21.3351 121.827 21.3275ZM130.169 20.6654C130.189 20.2431 130.09 19.8236 129.882 19.4555C129.674 19.0873 129.366 18.7856 128.994 18.5852C128.593 18.35 128.162 18.1691 127.713 18.047C126.24 17.679 124.712 17.5906 123.206 17.7865C122.242 17.8227 121.303 18.1035 120.477 18.6023C120.209 18.757 119.987 18.9819 119.837 19.2528C119.686 19.5236 119.612 19.8303 119.623 20.14C119.623 20.7209 119.648 21.3018 119.623 21.8827C119.593 22.3825 119.798 22.532 120.268 22.5235C121.635 22.5235 123.001 22.5235 124.368 22.5235C124.697 22.5235 124.988 22.5235 124.983 23.0189C124.979 23.5144 124.667 23.523 124.347 23.523C123.13 23.523 121.912 23.523 120.691 23.523C119.567 23.523 118.44 23.523 117.312 23.523C116.713 23.4961 116.12 23.6582 115.618 23.9862C115.116 24.3143 114.73 24.7917 114.514 25.3511C113.681 27.1579 113.732 29.0673 114.087 30.9638C114.237 31.6738 114.495 32.3566 114.852 32.9884C115.023 33.3306 115.281 33.6223 115.599 33.835C115.917 34.0477 116.285 34.174 116.667 34.2015C117.197 34.2442 117.735 34.2015 118.269 34.2229C118.576 34.2229 118.696 34.0947 118.696 33.7957C118.696 33.1977 118.696 32.5955 118.696 31.9975C118.696 29.5329 119.875 28.3582 122.318 28.3668C123.958 28.3668 125.603 28.3967 127.247 28.3668C129.127 28.3668 130.143 27.2989 130.156 25.3768C130.156 23.8006 130.156 22.2287 130.156 20.6782" fill="white"/>
<path d="M128.045 36.2644C128.183 36.2584 128.322 36.2821 128.45 36.3338C128.579 36.3856 128.695 36.4643 128.791 36.5646C128.887 36.6649 128.96 36.7845 129.006 36.9154C129.052 37.0463 129.069 37.1856 129.057 37.3238C129.055 37.5939 128.948 37.8525 128.758 38.0448C128.568 38.237 128.311 38.3476 128.041 38.3532C127.761 38.3509 127.494 38.2383 127.297 38.0399C127.1 37.8415 126.99 37.5733 126.99 37.2939C126.985 37.1551 127.009 37.0169 127.06 36.888C127.112 36.7591 127.19 36.6425 127.289 36.5455C127.389 36.4486 127.507 36.3735 127.637 36.3251C127.767 36.2767 127.906 36.256 128.045 36.2644ZM135.789 26.6837C135.639 25.9777 135.381 25.2991 135.024 24.6718C134.849 24.3299 134.588 24.0395 134.267 23.829C133.946 23.6186 133.575 23.4954 133.192 23.4716C132.662 23.4331 132.124 23.4716 131.59 23.4502C131.278 23.4502 131.163 23.5783 131.163 23.8773C131.163 24.4711 131.163 25.0691 131.163 25.6671C131.163 28.1189 129.984 29.2849 127.541 29.2764C125.901 29.2764 124.256 29.2465 122.612 29.2764C120.732 29.2764 119.716 30.3357 119.703 32.2365C119.703 33.7998 119.703 35.3674 119.703 36.9351C119.683 37.3555 119.782 37.7731 119.99 38.1392C120.198 38.5052 120.506 38.8046 120.877 39.0024C121.28 39.2345 121.711 39.4139 122.159 39.5363C123.632 39.9023 125.16 39.9906 126.665 39.7969C127.629 39.7601 128.567 39.481 129.395 38.9853C129.664 38.8334 129.886 38.6104 130.036 38.3407C130.187 38.0709 130.261 37.7649 130.249 37.4562C130.249 36.8795 130.223 36.2986 130.249 35.7476C130.279 35.2478 130.074 35.0983 129.604 35.1069C128.237 35.1069 126.87 35.1069 125.503 35.1069C125.174 35.1069 124.884 35.1069 124.888 34.6157C124.893 34.1245 125.2 34.1415 125.52 34.1415H129.177C130.3 34.1415 131.428 34.1415 132.551 34.1415C133.149 34.1697 133.741 34.0091 134.243 33.6826C134.745 33.3561 135.132 32.8801 135.349 32.3219C136.178 30.4681 136.126 28.5716 135.789 26.6837Z" fill="white"/>
<path fill-rule="evenodd" clip-rule="evenodd" d="M181.601 74.562C181.041 74.5619 180.505 74.781 180.105 75.1724C179.706 75.5637 179.476 76.096 179.465 76.655V89.2044C179.476 89.7634 179.706 90.2957 180.105 90.6871C180.505 91.0784 181.041 91.2975 181.601 91.2974H197.994C198.553 91.2975 199.09 91.0784 199.49 90.6871C199.889 90.2957 200.119 89.7634 200.13 89.2044V76.655C200.119 76.096 199.889 75.5637 199.49 75.1724C199.09 74.781 198.553 74.5619 197.994 74.562H181.601ZM187.512 87.6283C187.383 87.6249 187.259 87.5731 187.166 87.483C187.115 87.4424 187.073 87.3904 187.045 87.3311C187.017 87.2719 187.003 87.2069 187.004 87.1413C187.004 87.0611 187.023 86.9821 187.059 86.9107L190.968 78.8548C191.007 78.7708 191.065 78.6975 191.139 78.6412C191.212 78.5897 191.301 78.5628 191.391 78.5643C191.518 78.5664 191.639 78.6186 191.728 78.7096C191.779 78.7498 191.82 78.8011 191.848 78.8595C191.876 78.918 191.891 78.9821 191.89 79.047C191.889 79.1289 191.868 79.2092 191.831 79.2819L187.935 87.3378C187.896 87.4241 187.834 87.498 187.756 87.5514C187.684 87.6012 187.599 87.6281 187.512 87.6283ZM186.782 84.5529C186.85 84.5886 186.906 84.643 186.943 84.7096C186.981 84.7762 186.999 84.8522 186.995 84.9287C186.998 85.0875 186.938 85.241 186.829 85.3559C186.793 85.408 186.746 85.4515 186.691 85.4832C186.637 85.515 186.576 85.5342 186.513 85.5396C186.435 85.5352 186.36 85.5149 186.291 85.4798L186.03 85.3345L182.908 83.4679C182.833 83.4246 182.772 83.3609 182.732 83.2842C182.694 83.2012 182.674 83.1109 182.673 83.0194C182.672 82.9291 182.693 82.8399 182.732 82.7589C182.771 82.6813 182.832 82.6173 182.908 82.5752L186.03 80.7598C186.158 80.6733 186.304 80.6178 186.457 80.5975C186.527 80.6006 186.595 80.6195 186.657 80.6528C186.718 80.6861 186.771 80.7329 186.812 80.7897C186.918 80.8917 186.981 81.031 186.987 81.1784C186.987 81.2508 186.967 81.3218 186.929 81.3836C186.892 81.4454 186.838 81.4956 186.773 81.5287L184.21 83.0194L186.782 84.5529ZM196.747 82.8443C196.71 82.7636 196.649 82.6964 196.572 82.6521L193.445 80.7983C193.355 80.747 193.27 80.7043 193.185 80.6659C193.12 80.6237 193.044 80.6001 192.967 80.5975C192.902 80.6027 192.839 80.6218 192.782 80.6535C192.726 80.6852 192.676 80.7288 192.638 80.7812C192.539 80.8935 192.485 81.0376 192.484 81.187C192.479 81.2642 192.497 81.3411 192.535 81.4086C192.573 81.476 192.629 81.5311 192.698 81.5671L195.261 83.0963L192.698 84.5913C192.634 84.6245 192.58 84.6749 192.543 84.7368C192.506 84.7986 192.487 84.8695 192.488 84.9415C192.495 85.0888 192.552 85.2292 192.651 85.3388C192.696 85.3929 192.752 85.4371 192.815 85.4687C192.879 85.5003 192.948 85.5186 193.018 85.5225C193.172 85.5027 193.319 85.4455 193.445 85.3559L196.572 83.5448C196.647 83.5015 196.707 83.4378 196.747 83.3611C196.786 83.2783 196.805 83.1877 196.803 83.0963C196.803 83.0092 196.784 82.923 196.747 82.8443Z" fill="white"/>
<path d="M52.3195 36.0294C52.0659 35.91 51.7764 35.8916 51.5097 35.9781C51.2431 36.0646 51.0195 36.2494 50.8843 36.495L49.3082 39.5534C49.2904 39.5945 49.2812 39.6388 49.2813 39.6836C49.2812 39.7284 49.2904 39.7728 49.3082 39.8139C49.343 39.8998 49.4085 39.9698 49.4918 40.0104L50.7732 40.6084C50.8224 40.6323 50.8766 40.644 50.9313 40.6426C50.9968 40.6434 51.0612 40.6264 51.1177 40.5933C51.1741 40.5601 51.2205 40.5122 51.2516 40.4546L52.8278 37.3963C52.8887 37.2739 52.9238 37.1404 52.931 37.0039C52.9382 36.8674 52.9174 36.7309 52.8697 36.6028C52.8221 36.4747 52.7487 36.3577 52.654 36.2591C52.5594 36.1605 52.4455 36.0823 52.3195 36.0294Z" fill="white"/>
<path d="M42.8053 36.4948C42.6693 36.2489 42.4449 36.064 42.1776 35.9775C41.9102 35.8911 41.62 35.9095 41.3658 36.0292C41.2417 36.0842 41.13 36.1638 41.0375 36.2632C40.945 36.3626 40.8736 36.4798 40.8277 36.6075C40.7818 36.7353 40.7623 36.8711 40.7703 37.0066C40.7784 37.1422 40.8139 37.2747 40.8746 37.3961L42.4508 40.4544C42.4819 40.512 42.5283 40.56 42.5847 40.5931C42.6412 40.6262 42.7057 40.6433 42.7711 40.6424C42.8258 40.6438 42.88 40.6321 42.9292 40.6082L44.2106 40.0102C44.295 39.971 44.3608 39.9005 44.3943 39.8137C44.4282 39.7302 44.4282 39.6367 44.3943 39.5532L42.8053 36.4948Z" fill="white"/>
<path d="M58.99 39.2196C58.6041 39.0175 58.1538 38.9764 57.7376 39.1053C57.3214 39.2341 56.9731 39.5225 56.7689 39.9073L54.0694 44.7938C53.967 44.9789 53.9021 45.1824 53.8783 45.3926C53.8546 45.6027 53.8725 45.8156 53.931 46.0188C54.0492 46.4294 54.3256 46.7762 54.6994 46.9829C55.0732 47.1896 55.5139 47.2394 55.9244 47.1213C56.335 47.0031 56.6817 46.7267 56.8885 46.3529L59.588 41.4621C59.8052 41.0852 59.8642 40.6376 59.7521 40.2174C59.64 39.7971 59.366 39.4383 58.99 39.2196Z" fill="white"/>
<path d="M52.9191 44.9781H40.7455C40.6995 44.977 40.6537 44.9849 40.6108 45.0015C40.5679 45.0181 40.5286 45.0429 40.4953 45.0746C40.462 45.1064 40.4353 45.1444 40.4166 45.1864C40.398 45.2285 40.3878 45.2738 40.3867 45.3198V53.4868C40.3878 53.5328 40.398 53.5781 40.4166 53.6202C40.4353 53.6623 40.462 53.7003 40.4953 53.732C40.5286 53.7637 40.5679 53.7886 40.6108 53.8051C40.6537 53.8217 40.6995 53.8296 40.7455 53.8285H42.1764V56.0411C42.1764 56.4682 42.3461 56.8778 42.6481 57.1798C42.9501 57.4818 43.3597 57.6514 43.7868 57.6514C44.2139 57.6514 44.6234 57.4818 44.9254 57.1798C45.2274 56.8778 45.3971 56.4682 45.3971 56.0411V53.8499H48.2632V56.0625C48.2632 56.4895 48.4329 56.8991 48.7349 57.2011C49.0369 57.5031 49.4465 57.6728 49.8735 57.6728C50.3006 57.6728 50.7102 57.5031 51.0122 57.2011C51.3142 56.8991 51.4839 56.4895 51.4839 56.0625V53.8499H52.9148C52.9608 53.851 53.0066 53.8431 53.0495 53.8265C53.0924 53.8099 53.1317 53.7851 53.165 53.7533C53.1983 53.7216 53.225 53.6836 53.2437 53.6416C53.2623 53.5995 53.2725 53.5541 53.2736 53.5081V45.307C53.2681 45.2171 53.2282 45.1328 53.1622 45.0716C53.0962 45.0103 53.0091 44.9769 52.9191 44.9781Z" fill="white"/>
<path d="M38.0595 44.9784C37.6429 44.9692 37.2396 45.1254 36.9379 45.4128C36.6361 45.7001 36.4604 46.0953 36.4492 46.5118V51.6375C36.4492 52.0646 36.6189 52.4742 36.9209 52.7762C37.2229 53.0782 37.6325 53.2479 38.0595 53.2479C38.4866 53.2479 38.8962 53.0782 39.1982 52.7762C39.5002 52.4742 39.6699 52.0646 39.6699 51.6375V46.5118C39.6587 46.0953 39.483 45.7001 39.1812 45.4128C38.8794 45.1254 38.4761 44.9692 38.0595 44.9784Z" fill="white"/>
<path d="M46.8323 37.8276C43.2785 37.8276 40.3867 40.5784 40.3867 43.9571C40.3901 44.0493 40.4296 44.1364 40.4968 44.1996C40.564 44.2627 40.6533 44.2969 40.7455 44.2946H52.9191C53.0112 44.2969 53.1006 44.2627 53.1678 44.1996C53.235 44.1364 53.2745 44.0493 53.2779 43.9571C53.2779 40.5784 50.3861 37.8276 46.8323 37.8276ZM44.6966 41.9154C44.7034 42.0588 44.6671 42.2009 44.5923 42.3234C44.5175 42.4459 44.4078 42.5432 44.2771 42.6027C44.1465 42.6621 44.001 42.681 43.8595 42.657C43.718 42.6329 43.587 42.567 43.4834 42.4677C43.3797 42.3684 43.3082 42.2403 43.2781 42.1C43.2481 41.9596 43.2607 41.8135 43.3146 41.6804C43.3684 41.5474 43.4609 41.4335 43.5801 41.3536C43.6993 41.2736 43.8397 41.2313 43.9833 41.232C44.1661 41.2319 44.3418 41.3034 44.4726 41.4311C44.6035 41.5588 44.6793 41.7326 44.6838 41.9154H44.6966ZM48.9936 41.9154C48.9859 41.7721 49.0214 41.6297 49.0954 41.5068C49.1695 41.3838 49.2787 41.2859 49.4089 41.2256C49.5392 41.1654 49.6845 41.1456 49.8262 41.1688C49.9678 41.192 50.0992 41.2571 50.2035 41.3558C50.3077 41.4544 50.38 41.5821 50.4109 41.7222C50.4419 41.8623 50.4301 42.0086 50.3771 42.1419C50.3241 42.2753 50.2323 42.3897 50.1136 42.4704C49.9949 42.5511 49.8547 42.5943 49.7112 42.5945C49.6185 42.5985 49.5259 42.5841 49.4389 42.552C49.3518 42.5199 49.272 42.4709 49.204 42.4077C49.1361 42.3445 49.0813 42.2684 49.043 42.1839C49.0047 42.0994 48.9836 42.0081 48.9808 41.9154H48.9936Z" fill="white"/>
<path d="M23.2668 120.108C23.2668 120.108 24.0399 125.768 17.4619 125.61C17.4619 125.61 23.1215 125.657 22.9763 130.979C22.9763 130.979 23.5102 126.819 28.6872 125.9C28.7086 125.866 24.3304 126.891 23.2668 120.108Z" fill="#FBB043"/>
<path d="M105.899 197.084C105.899 197.084 105.245 195.615 108.795 195.615H141.762C141.762 195.615 142.983 196.242 142.736 197.084H105.899Z" fill="#001E4A"/>
<path d="M63.4414 96.9812C63.4414 96.9812 65.2299 96.9812 65.0118 95.6371C64.5761 93.7919 62.7181 93.3007 62.1756 94.6633C61.6331 96.0258 62.7309 100.28 63.6236 100.643C64.0507 100.818 64.3113 100.81 64.4779 100.699C64.5605 100.625 64.6159 100.525 64.6353 100.416C64.6547 100.307 64.6368 100.194 64.5847 100.096C64.0654 98.9639 63.5786 98.2196 63.4414 96.9812Z" fill="#E2E2E2"/>
<path d="M84.077 112.975C84.077 112.975 84.9869 120.01 84.077 125.849C83.1672 131.688 80.6343 143.362 79.34 143.687C78.0458 144.011 66.5258 131.889 64.168 100.473" stroke="#E2E2E2" stroke-width="0.393485" stroke-miterlimit="10"/>
<path d="M106.181 185.965C106.181 185.965 105.327 185.346 93.2049 177.166C81.0826 168.986 79.3398 143.687 79.3398 143.687" stroke="#E2E2E2" stroke-width="0.393485" stroke-miterlimit="10"/>
<path d="M71.3716 83.4128C71.3604 84.5714 71.182 85.7223 70.842 86.83C70.2525 88.9657 69.1334 89.9524 68.608 91.8361C68.0826 93.7198 68.7233 94.5057 67.899 95.6419C67.0916 94.3668 66.1725 93.1661 65.1524 92.0539C64.8438 91.7152 64.4655 91.4472 64.0435 91.2684C63.6216 91.0896 63.1659 91.0041 62.7078 91.0179C62.2498 91.0317 61.8001 91.1444 61.3897 91.3483C60.9792 91.5522 60.6177 91.8424 60.33 92.1991L60.1634 92.4298C59.7219 93.1149 59.4501 93.8955 59.3706 94.7067C59.2911 95.5179 59.4062 96.3364 59.7064 97.0942C60.034 98.0001 60.5509 98.8257 61.2227 99.5161C61.2227 99.5161 57.8953 99.0334 56.4259 93.2585C54.9566 87.4835 51.7274 82.3023 60.1335 75.6517C68.5397 69.0011 69.7015 73.0034 80.8969 71.3546C92.0923 69.7059 102.502 80.4186 101.622 85.9501C100.742 91.4815 97.4785 95.958 91.0201 93.7454C91.0201 93.7454 90.8877 91.6908 90.6784 89.474C90.6784 89.474 89.6746 87.1589 86.6718 84.9805C83.669 82.802 81.3411 84.1561 78.129 83.699C76.0247 83.3643 73.9607 82.8132 71.9696 82.0545C71.9696 82.0545 71.1965 81.6487 71.3716 83.4128Z" fill="#001E4A"/>
<path d="M85.5161 94.24C85.2268 95.4084 85.2268 96.6297 85.5161 97.7981C85.8963 99.0795 87.4895 100.656 86.6908 101.642C86.4964 101.912 86.2445 102.134 85.9534 102.294C85.6623 102.453 85.3393 102.546 85.0078 102.565" stroke="#001E4A" stroke-width="0.320356" stroke-linecap="round" stroke-linejoin="round"/>
<path d="M80.4807 88.2692C80.0791 87.4491 78.4133 87.0732 77.2344 88.927" stroke="#001E4A" stroke-width="0.854283" stroke-linecap="round" stroke-linejoin="round"/>
<path d="M88.1523 89.0845C88.1523 89.0845 90.1514 87.8501 90.7622 90.5069" stroke="#001E4A" stroke-width="0.854283" stroke-linecap="round" stroke-linejoin="round"/>
<path d="M11.082 196.409H218.511" stroke="#394142" stroke-width="2.09" stroke-miterlimit="10" stroke-linecap="round"/>
<path d="M53.167 131.479L56.2168 132.91" stroke="white" stroke-width="0.427142" stroke-miterlimit="10" stroke-linecap="round"/>
<path d="M54.6823 144.045L51.9102 142.644" stroke="white" stroke-width="0.427142" stroke-miterlimit="10" stroke-linecap="round"/>
<path d="M58.918 137.933L60.9341 137.869L62.57 137.813" stroke="white" stroke-width="0.427142" stroke-miterlimit="10" stroke-linecap="round"/>
<path d="M63.5273 142.508L66.4362 140.727" stroke="white" stroke-width="0.427142" stroke-miterlimit="10" stroke-linecap="round"/>
<path d="M58.9196 152.033L55.5195 150.308" stroke="white" stroke-width="0.427142" stroke-miterlimit="10" stroke-linecap="round"/>
<path d="M70.7266 148.893L73.0758 147.112" stroke="white" stroke-width="0.427142" stroke-miterlimit="10" stroke-linecap="round"/>
<path d="M54.5195 159.824L56.3093 157.407" stroke="white" stroke-width="0.427142" stroke-miterlimit="10" stroke-linecap="round"/>
<path d="M51.981 154.997L50.5586 153.169" stroke="white" stroke-width="0.427142" stroke-miterlimit="10" stroke-linecap="round"/>
<path d="M64.0453 165.437L61.0938 164.211" stroke="white" stroke-width="0.427142" stroke-miterlimit="10" stroke-linecap="round"/>
<path d="M65.3281 154.865L67.4937 152.354" stroke="white" stroke-width="0.427142" stroke-miterlimit="10" stroke-linecap="round"/>
<path d="M75.5454 155.018L73.1406 156.94" stroke="white" stroke-width="0.427142" stroke-miterlimit="10" stroke-linecap="round"/>
<path d="M74.2461 162.959L77.3856 161.14" stroke="white" stroke-width="0.427142" stroke-miterlimit="10" stroke-linecap="round"/>
<path d="M81.3252 186.234L83.6787 184.457" stroke="white" stroke-width="0.427142" stroke-miterlimit="10" stroke-linecap="round"/>
<path d="M64.6963 175.227L66.8619 172.719" stroke="white" stroke-width="0.427142" stroke-miterlimit="10" stroke-linecap="round"/>
<path d="M73.6133 183.326L76.7528 181.506" stroke="white" stroke-width="0.427142" stroke-miterlimit="10" stroke-linecap="round"/>
<path d="M73.2719 177.196L70.3203 175.97" stroke="white" stroke-width="0.427142" stroke-miterlimit="10" stroke-linecap="round"/>
<path d="M86.6322 190.817L83.6807 189.592" stroke="white" stroke-width="0.427142" stroke-miterlimit="10" stroke-linecap="round"/>
<path d="M92.9313 137.506L89.5312 135.78" stroke="white" stroke-width="0.427142" stroke-miterlimit="10" stroke-linecap="round"/>
<path d="M88.5352 145.297L90.3206 142.88" stroke="white" stroke-width="0.427142" stroke-miterlimit="10" stroke-linecap="round"/>
<path d="M98.0619 150.91L95.1104 149.684" stroke="white" stroke-width="0.427142" stroke-miterlimit="10" stroke-linecap="round"/>
<path d="M89.7568 133.909L92.1061 132.132" stroke="white" stroke-width="0.427142" stroke-miterlimit="10" stroke-linecap="round"/>
<path d="M97.0156 158.918L99.9245 157.137" stroke="white" stroke-width="0.427142" stroke-miterlimit="10" stroke-linecap="round"/>
<path d="M86.0938 158.026L88.443 156.249" stroke="white" stroke-width="0.427142" stroke-miterlimit="10" stroke-linecap="round"/>
<path d="M98.8135 171.276L100.979 168.764" stroke="white" stroke-width="0.427142" stroke-miterlimit="10" stroke-linecap="round"/>
<path d="M117.5 182.394L120.409 180.613" stroke="white" stroke-width="0.427142" stroke-miterlimit="10" stroke-linecap="round"/>
<path d="M64.6345 94.0003C64.6345 94.0003 63.2516 93.1348 62.325 93.8555C61.3984 94.5762 61.0209 95.6743 61.7073 96.7039" stroke="#001E4A" stroke-width="0.514775" stroke-miterlimit="10" stroke-linecap="round"/>
<ellipse cx="192.472" cy="171.798" rx="2.84339" ry="4.53494" transform="rotate(8.10746 192.472 171.798)" fill="#00A5EC"/>
</g>
<defs>
<clipPath id="clip0">
<rect width="224" height="198" fill="white"/>
</clipPath>
</defs>
</svg>
