<svg width="224" height="198" viewBox="0 0 224 198" fill="none" xmlns="http://www.w3.org/2000/svg">
<g clip-path="url(#clip0)">
<path d="M43.5193 66.7028C43.2587 66.6874 42.9987 66.741 42.7653 66.858C42.5319 66.9751 42.3335 67.1515 42.19 67.3695C41.7469 68.1067 40.4176 72.2396 40.8607 72.4591C41.3038 72.6786 42.6331 72.4591 42.6331 72.4591C42.6331 72.4591 42.19 73.2004 42.484 73.6435C42.7781 74.0866 43.5193 73.9375 43.5193 73.9375C43.5193 73.9375 42.4136 76.3725 42.8526 77.7019C43.2916 79.0312 43.4448 79.2507 44.9232 80.5055C46.4016 81.7603 48.3935 86.7794 48.3935 86.7794C48.3935 86.7794 75.9244 122.647 76.1397 122.572C76.355 122.497 85.1427 114.753 85.1427 114.753L78.3553 101.087L74.6654 104.864C74.6654 104.864 59.8275 89.3677 57.761 85.8145C56.4641 83.459 55.6371 80.8739 55.3259 78.203C55.3259 78.203 55.6241 71.7841 52.4271 67.5021C52.0034 67.1703 51.5179 66.9262 50.9988 66.784C50.4798 66.6418 49.9377 66.6043 49.404 66.6738C49.404 66.6738 48.4432 65.7172 47.4825 66.0112C46.9061 66.1884 46.3139 66.3091 45.7142 66.3715C45.7142 66.3715 44.2565 66.0402 43.5193 66.7028Z" fill="#FBB991"/>
<mask id="mask0" style="mask-type:alpha" maskUnits="userSpaceOnUse" x="40" y="65" width="46" height="58">
<path d="M43.5193 66.7028C43.2587 66.6874 42.9987 66.741 42.7653 66.858C42.5319 66.9751 42.3335 67.1515 42.19 67.3695C41.7469 68.1067 40.4176 72.2396 40.8607 72.4591C41.3038 72.6786 42.6331 72.4591 42.6331 72.4591C42.6331 72.4591 42.19 73.2004 42.484 73.6435C42.7781 74.0866 43.5193 73.9375 43.5193 73.9375C43.5193 73.9375 42.4136 76.3725 42.8526 77.7019C43.2916 79.0312 43.4448 79.2507 44.9232 80.5055C46.4016 81.7603 48.3935 86.7794 48.3935 86.7794C48.3935 86.7794 75.9244 122.647 76.1397 122.572C76.355 122.497 85.1427 114.753 85.1427 114.753L78.3553 101.087L74.6654 104.864C74.6654 104.864 59.8275 89.3677 57.761 85.8145C56.4641 83.459 55.6371 80.8739 55.3259 78.203C55.3259 78.203 55.6241 71.7841 52.4271 67.5021C52.0034 67.1703 51.5179 66.9262 50.9988 66.784C50.4798 66.6418 49.9377 66.6043 49.404 66.6738C49.404 66.6738 48.4432 65.7172 47.4825 66.0112C46.9061 66.1884 46.3139 66.3091 45.7142 66.3715C45.7142 66.3715 44.2565 66.0402 43.5193 66.7028Z" fill="#FBB991"/>
</mask>
<g mask="url(#mask0)">
<path d="M84.5295 116.778C82.2699 116.025 79.6128 105.48 78.2529 100.459L78.8806 98.5762L88.923 110.815C88.4 113.117 86.789 117.531 84.5295 116.778Z" fill="#F18B6B"/>
</g>
<path d="M148.69 105.121C148.69 105.121 162.419 110.434 166.995 109.262C171.571 108.09 184.264 74.1319 184.264 74.1319C184.264 74.1319 188.297 67.0919 189.283 65.2739C190.268 63.4559 191.399 59.4182 191.15 56.9086C190.902 54.399 190.906 52.3823 190.268 51.8936C189.631 51.4049 187.854 52.432 187.854 52.432C187.854 52.432 187.316 49.4793 185.783 49.7277C185.34 49.7277 185.295 50.1708 185.539 50.9701C184.603 50.1833 183.622 50.3282 183.572 50.7216C183.637 51.63 183.752 52.5342 183.916 53.43C183.916 53.43 184.259 55.0533 184.015 55.7408C183.771 56.4282 181.356 60.4908 181.356 60.4908C181.103 60.3527 180.872 60.1783 180.669 59.9731C180.47 59.7288 181.158 57.0743 180.864 56.1839C180.57 55.2935 179.658 53.666 179.091 53.5749C178.453 53.4797 178.11 53.6246 178.263 54.6599C178.416 55.6952 178.014 58.6935 177.128 60.5156C176.242 62.3377 176.934 63.8617 177.178 64.8929C177.449 65.8189 177.787 66.724 178.188 67.6012C178.188 67.6012 172.258 81.9298 171.471 82.6132C170.684 83.2965 164.042 93.0697 162.419 92.9206C160.795 92.7716 153.999 91.1316 152.931 90.7714C151.863 90.4111 148.69 105.121 148.69 105.121Z" fill="#FBB991"/>
<mask id="mask1" style="mask-type:alpha" maskUnits="userSpaceOnUse" x="148" y="49" width="44" height="61">
<path d="M148.69 105.121C148.69 105.121 162.419 110.434 166.995 109.262C171.571 108.09 184.264 74.1319 184.264 74.1319C184.264 74.1319 188.297 67.0919 189.283 65.2739C190.268 63.4559 191.399 59.4182 191.15 56.9086C190.902 54.399 190.906 52.3823 190.268 51.8936C189.631 51.4049 187.854 52.432 187.854 52.432C187.854 52.432 187.316 49.4793 185.783 49.7277C185.34 49.7277 185.295 50.1708 185.539 50.9701C184.603 50.1833 183.622 50.3282 183.572 50.7216C183.637 51.63 183.752 52.5342 183.916 53.43C183.916 53.43 184.259 55.0533 184.015 55.7408C183.771 56.4282 181.356 60.4908 181.356 60.4908C181.103 60.3527 180.872 60.1783 180.669 59.9731C180.47 59.7288 181.158 57.0743 180.864 56.1839C180.57 55.2935 179.658 53.666 179.091 53.5749C178.453 53.4797 178.11 53.6246 178.263 54.6599C178.416 55.6952 178.014 58.6935 177.128 60.5156C176.242 62.3377 176.934 63.8617 177.178 64.8929C177.449 65.8189 177.787 66.724 178.188 67.6012C178.188 67.6012 172.258 81.9298 171.471 82.6132C170.684 83.2965 164.042 93.0697 162.419 92.9206C160.795 92.7716 153.999 91.1316 152.931 90.7714C151.863 90.4111 148.69 105.121 148.69 105.121Z" fill="#FBB991"/>
</mask>
<g mask="url(#mask1)">
<path d="M151.982 89.9927C151.982 89.9927 155.2 103.12 150.835 109.349C146.47 115.577 145.29 112.823 145.29 112.823L143.812 97.4717L151.982 89.9927Z" fill="#F18B6B"/>
</g>
<path d="M96.3016 150.323L91.709 198.472H116.362L121.087 175.282V198.472H140.865C140.865 198.472 140.273 153.602 136.877 143.858C133.481 134.114 96.3016 150.323 96.3016 150.323Z" fill="#001E4A"/>
<path d="M123.187 47.0739C121.568 44.3117 117.17 39.3629 107.061 41.5371C107.061 41.5371 100.435 43.6077 98.3648 52.1634C96.7581 58.0922 95.8166 64.9964 94.9732 66.4009C93.6521 68.1113 87.8751 78.5885 88.4797 83.0155C89.0844 87.4425 89.366 89.364 91.1384 90.3952C92.9108 91.4263 126.861 80.7999 126.861 80.7999C126.861 80.7999 123.465 71.2047 123.022 65.0053C122.678 60.1974 123.461 53.0786 123.829 50.1301C123.955 49.0686 123.73 47.995 123.187 47.0739Z" fill="#001E4A"/>
<path d="M101.011 81.466C101.011 81.466 95.2421 83.8182 88.4215 90.4649C81.6009 97.1116 78.2051 100.727 78.2051 100.727C78.2051 100.727 82.5658 111.39 85.5682 115.345C85.7269 115.554 85.9268 115.727 86.1552 115.855C86.3837 115.983 86.636 116.062 86.8965 116.089C87.157 116.115 87.4201 116.088 87.6696 116.008C87.9191 115.929 88.1496 115.799 88.3469 115.627C91.7096 112.699 92.5958 111.871 92.5958 111.871C92.5958 111.871 95.6976 126.928 94.6664 133.405C93.6353 139.882 93.4241 148.782 93.7843 150.455C93.8299 150.682 125.944 149.729 136.439 147.796C136.948 147.719 137.446 147.58 137.921 147.382C138.472 147.153 138.932 146.75 139.232 146.235C139.531 145.719 139.653 145.12 139.578 144.529L134.666 105.452L147.351 109.328C147.793 109.464 148.27 109.435 148.693 109.245C149.115 109.055 149.453 108.718 149.645 108.297C150.985 105.342 153.612 98.4403 152.947 90.9785C152.918 90.6584 152.723 90.378 152.435 90.2365C147.63 87.8788 137.406 83.4365 135.478 82.7912C133.486 82.1245 122.272 79.5389 119.908 79.4644C117.543 79.3898 101.011 81.466 101.011 81.466Z" fill="#25A1DB"/>
<mask id="mask2" style="mask-type:alpha" maskUnits="userSpaceOnUse" x="78" y="79" width="76" height="72">
<path d="M101.011 81.466C101.011 81.466 95.2421 83.8182 88.4215 90.4649C81.6009 97.1116 78.2051 100.727 78.2051 100.727C78.2051 100.727 82.5658 111.39 85.5682 115.345C85.7269 115.554 85.9268 115.727 86.1552 115.855C86.3837 115.983 86.636 116.062 86.8965 116.089C87.157 116.115 87.4201 116.088 87.6696 116.008C87.9191 115.929 88.1496 115.799 88.3469 115.627C91.7096 112.699 92.5958 111.871 92.5958 111.871C92.5958 111.871 95.6976 126.928 94.6664 133.405C93.6353 139.882 93.4241 148.782 93.7843 150.455C93.8299 150.682 125.944 149.729 136.439 147.796C136.948 147.719 137.446 147.58 137.921 147.382C138.472 147.153 138.932 146.75 139.232 146.235C139.531 145.719 139.653 145.12 139.578 144.529L134.666 105.452L147.351 109.328C147.793 109.464 148.27 109.435 148.693 109.245C149.115 109.055 149.453 108.718 149.645 108.297C150.985 105.342 153.612 98.4403 152.947 90.9785C152.918 90.6584 152.723 90.378 152.435 90.2365C147.63 87.8788 137.406 83.4365 135.478 82.7912C133.486 82.1245 122.272 79.5389 119.908 79.4644C117.543 79.3898 101.011 81.466 101.011 81.466Z" fill="#25A1DB"/>
</mask>
<g mask="url(#mask2)">
<path d="M91.7129 114.211L92.595 111.871L96.6327 108.397L94.1728 121.342L91.7129 114.211Z" fill="#006BC2"/>
</g>
<path d="M119.062 47.5166C119.062 47.5166 111.204 50.5602 110.163 58.143C109.277 57.2567 105.806 53.6415 103.669 57.3147C101.533 60.988 104.289 63.1132 105.438 63.4396C105.853 63.4721 106.27 63.4785 106.685 63.4588C106.861 63.4505 107.021 63.5665 107.053 63.7392C107.273 64.8975 107.21 65.9387 107.21 67.353C107.21 69.4216 107.147 74.7975 106.924 75.8384C106.674 77.3378 105.106 78.6793 105.106 78.6793C105.106 78.6793 101.748 81.2261 101.011 81.4497C101.748 83.0731 109.903 87.2779 117.469 83.1982C118.912 82.4201 119.35 80.9312 120.06 79.4537C120.06 79.4537 117.257 79.0147 116.888 78.2734C116.52 77.5322 116.06 71.5605 116.06 71.5605C116.06 71.5605 121.149 72.3888 123.365 66.9845C125.581 61.5802 125.063 57.6833 123.734 53.3185C122.649 49.7581 122.248 48.9751 122.137 48.8075C122.116 48.7757 122.086 48.7523 122.055 48.7311C121.152 48.1246 120.133 47.711 119.062 47.5166Z" fill="#FAB187"/>
<path d="M174.994 82.2823C174.994 82.2823 177.782 81.2716 179.112 79.76C180.441 78.2485 182.739 76.9813 184.139 77.0807C185.539 77.1801 186.76 77.238 188.202 78.087C189.597 79.0137 190.816 80.1802 191.804 81.5325C192.392 82.3814 194.719 84.6428 196.259 84.8085C195.199 85.4338 193.034 87.281 191.804 86.3368C191.138 85.819 190.514 85.2499 189.937 84.6347C189.191 83.8437 188.056 82.9905 187.153 82.3817C185.273 81.1394 182.494 81.247 180.647 82.4977C179.405 83.3259 177.988 84.4523 177.251 84.5683C176.514 84.6842 174.994 82.2823 174.994 82.2823Z" fill="#FCB040"/>
<mask id="mask3" style="mask-type:alpha" maskUnits="userSpaceOnUse" x="174" y="77" width="23" height="10">
<path d="M174.994 82.2823C174.994 82.2823 177.782 81.2716 179.112 79.76C180.441 78.2485 182.739 76.9813 184.139 77.0807C185.539 77.1801 186.76 77.238 188.202 78.087C189.597 79.0137 190.816 80.1802 191.804 81.5325C192.392 82.3814 194.719 84.6428 196.259 84.8085C195.199 85.4338 193.034 87.281 191.804 86.3368C191.138 85.819 190.514 85.2499 189.937 84.6347C189.191 83.8437 188.056 82.9905 187.153 82.3817C185.273 81.1394 182.494 81.247 180.647 82.4977C179.405 83.3259 177.988 84.4523 177.251 84.5683C176.514 84.6842 174.994 82.2823 174.994 82.2823Z" fill="#FCB040"/>
</mask>
<g mask="url(#mask3)">
<path d="M174.598 86.2091C174.598 86.2091 177.386 85.1983 178.715 83.6868C180.044 82.1753 182.343 80.908 183.743 81.0074C185.142 81.1068 186.364 81.1648 187.805 82.0137C189.2 82.9405 190.42 84.107 191.408 85.4592C191.996 86.3082 194.322 88.5696 195.863 88.7352C194.803 89.3606 192.638 91.2077 191.408 90.2635C190.742 89.7457 190.118 89.1767 189.54 88.5615C188.795 87.7705 187.659 86.9172 186.756 86.3085C184.876 85.0661 182.097 85.1738 180.25 86.4244C179.008 87.2527 177.592 88.3791 176.855 88.4951C176.117 88.611 174.598 86.2091 174.598 86.2091Z" fill="#FF8C00"/>
</g>
<path d="M37.0957 89.2148C37.0957 89.2148 35.9155 88.4777 33.9981 89.2148C32.0807 89.952 26.1469 90.7303 24.2538 91.1322C22.3607 91.5341 21.7442 91.2813 20.713 92.4615C19.6819 93.6418 8.90229 120.063 6.09868 139.99C4.91844 148.554 3.29508 164.051 4.33038 189.147C4.76935 190.472 6.98491 190.472 6.98491 190.472L13.3504 190.963C14.0649 191.018 14.6803 190.482 14.7033 189.766C14.9087 183.378 15.8813 155.308 17.3172 148.256C17.3172 148.256 23.3717 123.608 24.2538 121.247C25.5831 128.329 25.7322 156.965 26.0262 160.655C26.189 162.697 26.1716 165.285 26.1236 167.188C26.0852 168.709 27.0879 170.131 28.4319 170.844C28.7319 171.003 29.0862 171.171 29.5711 171.348C31.6417 172.176 39.9242 173.352 43.1502 172.317C44.9185 172.023 45.2208 171.348 45.2208 171.348V169.662L50.0087 169.187C50.0087 169.187 50.0909 170.234 51.1262 171.348C52.1615 172.462 63.2268 172.76 65.8855 172.023C68.5441 171.285 68.0589 171.478 68.1997 170.442C68.3405 169.407 66.6226 154.162 66.6226 147.225C66.6226 140.288 68.9831 123.62 68.9831 123.62C68.9831 123.62 74.4872 155.333 74.4872 166.363C74.4872 176.719 74.7808 191.963 74.7808 191.963C74.7808 191.963 74.5945 192.406 75.6091 193.143C76.6236 193.88 82.8438 194.617 84.1731 193.735C85.5024 192.853 85.9414 186.5 85.9414 183.697C85.9414 180.893 84.082 135 80.1147 119.172C76.1474 103.345 74.4288 96.4578 73.6917 95.1533C72.9545 93.8488 57.0067 91.5753 57.0067 91.5753C57.0067 91.5753 41.9534 93.3478 37.9571 91.2813L37.0957 89.2148Z" fill="#001E4A"/>
<mask id="mask4" style="mask-type:alpha" maskUnits="userSpaceOnUse" x="4" y="88" width="82" height="107">
<path d="M37.0957 89.2148C37.0957 89.2148 35.9155 88.4777 33.9981 89.2148C32.0807 89.952 26.1469 90.7303 24.2538 91.1322C22.3607 91.5341 21.7442 91.2813 20.713 92.4615C19.6819 93.6418 8.90229 120.063 6.09868 139.99C4.91844 148.554 3.29508 164.051 4.33038 189.147C4.76935 190.472 6.98491 190.472 6.98491 190.472L14.6627 191.064C14.6627 191.064 15.6939 156.228 17.3172 148.256C17.3172 148.256 23.3717 123.608 24.2538 121.247C25.5831 128.329 25.7322 156.965 26.0262 160.655C26.189 162.697 26.1716 165.285 26.1236 167.188C26.0852 168.709 27.0879 170.131 28.4319 170.844C28.7319 171.003 29.0862 171.171 29.5711 171.348C31.6417 172.176 39.9242 173.352 43.1502 172.317C44.9185 172.023 45.2208 171.348 45.2208 171.348V169.662L50.0087 169.187C50.0087 169.187 50.0909 170.234 51.1262 171.348C52.1615 172.462 63.2268 172.76 65.8855 172.023C68.5441 171.285 68.0589 171.478 68.1997 170.442C68.3405 169.407 66.6226 154.162 66.6226 147.225C66.6226 140.288 68.9831 123.62 68.9831 123.62C68.9831 123.62 75.3316 156.24 74.7394 166.722C74.1472 177.203 74.7808 191.963 74.7808 191.963C74.7808 191.963 74.5945 192.406 75.6091 193.143C76.6236 193.88 82.8438 194.617 84.1731 193.735C85.5024 192.853 85.9414 186.5 85.9414 183.697C85.9414 180.893 84.082 135 80.1147 119.172C76.1474 103.345 74.4288 96.4578 73.6917 95.1533C72.9545 93.8488 57.0067 91.5753 57.0067 91.5753C57.0067 91.5753 41.9534 93.3478 37.9571 91.2813L37.0957 89.2148Z" fill="#001E4A"/>
</mask>
<g mask="url(#mask4)">
<path d="M35.916 85.2803C35.5226 84.9822 45.184 113.569 44.977 117.677C44.7699 121.785 45.2909 174.522 45.2909 174.522L50.0093 169.5C50.0093 169.5 48.3107 128.063 50.3813 118.137C52.4519 108.21 52.1744 98.0229 57.3427 91.7986C62.5109 85.5743 37.4648 81.5532 37.4648 81.5532L35.916 85.2803Z" fill="#006BC2"/>
<path d="M2.92285 185.192L16.7312 187.389M74.1615 188.644C78.0321 188.854 85.8987 189.147 86.4008 188.644" stroke="#00489A" stroke-width="0.627654"/>
</g>
<path d="M121.274 64.0777C120.387 64.2609 119.491 64.3991 118.59 64.4918C116.279 64.7982 116.474 65.2579 116.474 65.2579C116.474 65.2579 116.366 65.672 116.934 66.3678C117.389 66.9144 118.242 67.5687 120.006 67.3492C121.228 67.0676 122.015 66.3678 122.102 64.9929C122.21 63.7961 121.274 64.0777 121.274 64.0777Z" fill="#EA7575"/>
<mask id="mask5" style="mask-type:alpha" maskUnits="userSpaceOnUse" x="116" y="64" width="7" height="4">
<path d="M121.274 64.0777C120.321 64.2231 119.494 64.3413 118.59 64.4918C116.279 64.7982 116.474 65.2579 116.474 65.2579C116.474 65.2579 116.366 65.672 116.934 66.3678C117.389 66.9144 118.242 67.5687 120.006 67.3492C121.228 67.0676 122.015 66.3678 122.102 64.9929C122.21 63.7961 121.274 64.0777 121.274 64.0777Z" fill="#EA7575"/>
</mask>
<g mask="url(#mask5)">
<path d="M116.364 64.4592C116.364 64.4592 116.364 64.5705 116.386 64.7171C116.464 65.2365 117.035 65.374 117.56 65.3509C118.923 65.2908 121.559 65.1443 121.755 64.798C121.827 64.6561 121.864 64.4994 121.864 64.3404C121.864 64.1814 121.827 64.0247 121.755 63.8828L116.364 64.4592Z" fill="#E8E8E8"/>
<path d="M116.734 66.5659C116.734 66.5659 119.965 65.4727 120.813 67.3072C121.662 69.1418 117.281 67.6095 117.281 67.6095L116.734 66.5659Z" fill="#BE565E"/>
</g>
<path d="M109.021 67.9206C108.967 67.817 112.487 71.5773 116.061 71.5773C116.181 73.0888 116.289 74.269 116.289 74.269C116.289 74.269 111.257 72.3724 109.021 67.9206Z" fill="#F18B6B"/>
<path d="M108.165 61.9985C108.48 61.8784 108.716 61.6166 108.831 61.2998L109.313 59.968C109.451 59.5865 109.399 59.1607 109.133 58.8545C108.343 57.9456 106.532 56.2945 105.032 58.1425C103.052 60.5817 105.709 62.2754 106.436 62.35C106.765 62.35 107.044 62.35 107.297 62.2754C107.592 62.1992 107.881 62.1068 108.165 61.9985Z" fill="#F18B6B"/>
<path d="M117.018 59.0505C117.484 59.0505 117.862 58.6278 117.862 58.1063C117.862 57.5848 117.484 57.1621 117.018 57.1621C116.551 57.1621 116.173 57.5848 116.173 58.1063C116.173 58.6278 116.551 59.0505 117.018 59.0505Z" fill="#1C2B31"/>
<path d="M122.249 58.2467C122.624 58.2467 122.928 57.8685 122.928 57.4019C122.928 56.9354 122.624 56.5571 122.249 56.5571C121.873 56.5571 121.569 56.9354 121.569 57.4019C121.569 57.8685 121.873 58.2467 122.249 58.2467Z" fill="#1C2B31"/>
<path d="M119.955 59.8325C119.955 59.8325 120.916 60.2094 120.879 61.1329C120.841 62.0564 120.141 62.1268 120.141 62.1268" stroke="#001E4A" stroke-width="0.414122" stroke-miterlimit="10" stroke-linecap="round"/>
<path d="M113.928 55.8406C113.928 55.8406 115.087 54.0309 116.297 53.8818L113.928 55.8406Z" fill="#001E4A"/>
<path d="M113.928 55.8406C113.928 55.8406 115.087 54.0309 116.297 53.8818" stroke="#001E4A" stroke-width="0.828244" stroke-miterlimit="10" stroke-linecap="round"/>
<path d="M121.247 53.4076C122.179 53.2543 123.147 53.9086 123.421 54.3269L121.247 53.4076Z" fill="#001E4A"/>
<path d="M121.247 53.4076C122.179 53.2543 123.147 53.9086 123.421 54.3269" stroke="#001E4A" stroke-width="0.828244" stroke-miterlimit="10" stroke-linecap="round"/>
<path d="M104.961 59.0497C104.961 59.0497 106.692 57.0371 108.17 59.3976" stroke="#001E4A" stroke-width="0.414122" stroke-miterlimit="10" stroke-linecap="round"/>
<path d="M182.788 63.0881C182.788 63.1213 184.109 60.0651 182.871 57.9116C182.324 58.8641 181.359 60.504 181.359 60.504C181.359 60.504 182.738 61.7091 182.788 63.0881Z" fill="#F39677"/>
<path d="M185.542 50.9824C186.043 52.8778 186.085 54.8651 185.666 56.7801" stroke="#F39677" stroke-width="0.414122" stroke-miterlimit="10" stroke-linecap="round"/>
<path d="M187.902 61.0215C187.902 61.0215 185.467 62.4709 184.925 64.8604" stroke="#F39677" stroke-width="0.414122" stroke-miterlimit="10" stroke-linecap="round"/>
<path d="M191.012 55.3355C191.012 55.3355 189.823 54.3043 188.527 55.7496C187.231 57.1949 187.467 57.4061 187.517 57.6421C187.566 57.8782 188.034 57.9362 188.552 57.6421C189.069 57.3481 189.214 57.0996 189.459 57.1245" stroke="#F39677" stroke-width="0.414122" stroke-miterlimit="10" stroke-linecap="round"/>
<path d="M187.868 52.4614C187.868 52.4614 186.212 53.7411 186.245 54.4285C186.278 55.1159 186.369 55.2029 187.28 54.9751C187.934 54.7705 188.542 54.443 189.073 54.0102C189.073 54.0102 189.446 53.6665 189.64 53.886" stroke="#F39677" stroke-width="0.414122" stroke-miterlimit="10" stroke-linecap="round"/>
<path d="M175.702 59.5928C175.702 59.5928 176.733 56.872 178.232 56.1929" stroke="#2D2D2D" stroke-width="0.414122" stroke-miterlimit="10"/>
<path d="M180.091 54.9587C180.091 54.9587 183.313 53.0786 186.605 53.3768" stroke="#2D2D2D" stroke-width="0.414122" stroke-miterlimit="10"/>
<path d="M188.291 54.5361L188.496 55.5977" stroke="#2D2D2D" stroke-width="0.414122" stroke-miterlimit="10"/>
<path d="M185.425 77.4564C185.654 74.4753 186.137 70.6267 186.735 67.6972C187.319 64.8315 187.948 62.0072 188.205 59.0876C188.247 58.6403 188.28 58.189 188.3 57.7417" stroke="#2D2D2D" stroke-width="0.414122" stroke-miterlimit="10"/>
<path d="M38.6781 94.2933C38.6781 94.2933 42.7905 89.1612 45.9287 89.475C49.3808 89.1612 54.7913 96.2262 54.7913 96.2262L56.5988 92.6133C56.5988 92.6133 53.1467 90.0988 49.067 85.7091C47.5886 83.8994 45.312 84.1379 44.6205 84.4527C43.9289 84.7674 43.4775 84.6763 41.5228 86.7428C40.3118 88.0168 38.8137 89.1733 37.3193 90.0988L38.6781 94.2933Z" fill="#FCB040"/>
<mask id="mask6" style="mask-type:alpha" maskUnits="userSpaceOnUse" x="37" y="84" width="20" height="13">
<path d="M38.6781 94.2933C38.6781 94.2933 42.7905 89.1612 45.9287 89.475C49.3808 89.1612 54.7913 96.2262 54.7913 96.2262L56.5988 92.6133C56.5988 92.6133 53.1467 90.0988 49.067 85.7091C47.5886 83.8994 45.312 84.1379 44.6205 84.4527C43.9289 84.7674 43.4775 84.6763 41.5228 86.7428C40.3118 88.0168 38.8137 89.1733 37.3193 90.0988L38.6781 94.2933Z" fill="#FCB040"/>
</mask>
<g mask="url(#mask6)">
<path d="M38.5129 98.0109C38.5129 98.0109 42.6632 93.1759 45.8304 93.4715C49.3143 93.1759 54.7747 99.8319 54.7747 99.8319L56.5989 96.4282C56.5989 96.4282 53.1149 94.0592 48.9976 89.9236C47.5055 88.2186 45.208 88.4433 44.51 88.7398C43.8121 89.0364 43.3565 88.9505 41.3839 90.8974C40.1616 92.0977 38.6498 93.1873 37.1416 94.0592L38.5129 98.0109Z" fill="#FF8C00"/>
</g>
<path d="M49.4246 66.7026C49.4246 66.7026 47.6894 66.889 47.6149 67.0339C47.5403 67.1789 46.7866 72.9393 46.8777 73.5315C46.9689 74.1237 47.4244 74.1568 48.1491 73.9001C48.8738 73.6433 49.0892 72.6577 49.1637 72.2022C49.2382 71.7466 49.3128 69.8417 49.5778 69.5808C49.8429 69.3199 50.7953 69.2868 50.7953 69.2868" stroke="#F18B6B" stroke-width="0.414122" stroke-miterlimit="10" stroke-linecap="round"/>
<path d="M53.8508 74.269C53.8508 74.269 53.3662 73.2172 50.6041 73.6064C47.8419 73.9957 46.877 75.9669 46.877 76.4101C46.877 76.8532 46.877 77.1845 47.875 77.3335C48.7137 77.4255 49.5576 77.4614 50.4011 77.4412C50.4011 77.4412 48.579 80.1744 49.7592 81.6114" stroke="#F18B6B" stroke-width="0.414122" stroke-miterlimit="10" stroke-linecap="round"/>
<path d="M46.4262 66.3013C46.4262 66.3013 45.6228 66.4462 45.4365 66.9639C45.2501 67.4815 44.4053 73.5028 44.4426 74.0536C44.4799 74.6044 44.6538 74.8819 45.4324 74.563C45.9707 74.3064 46.4598 73.9574 46.8776 73.5318" stroke="#F18B6B" stroke-width="0.414122" stroke-miterlimit="10" stroke-linecap="round"/>
<path d="M44.8098 66.3013C44.8098 66.3013 43.8118 66.558 43.5923 67.3324C43.3728 68.1068 42.4824 73.6478 42.4824 73.6478C42.4824 73.6478 42.7392 74.3477 44.4371 73.6105" stroke="#F18B6B" stroke-width="0.414122" stroke-miterlimit="10" stroke-linecap="round"/>
<path d="M45.6592 84.4151C45.6592 84.4151 46.239 81.8144 49.3863 80.0254" stroke="#231F20" stroke-width="0.414122" stroke-miterlimit="10"/>
<path d="M40.9676 70.9648C40.9676 70.9648 39.4975 71.3168 39.5679 74.2778" stroke="#231F20" stroke-width="0.414122" stroke-miterlimit="10" stroke-linecap="round"/>
<path d="M92.5957 111.871L97.0268 107.519" stroke="#006BC2" stroke-width="0.502123" stroke-miterlimit="10" stroke-linecap="round"/>
<path d="M134.432 105.145L133.79 98.5762" stroke="#006BC2" stroke-width="0.502123" stroke-miterlimit="10" stroke-linecap="round"/>
<path d="M189.43 86.7049L197.394 84.4894C197.394 84.4894 205.072 88.6306 207.283 90.4652C209.495 92.2997 212.008 96.1511 213.338 99.8409C214.452 102.934 218.99 121.392 220.427 127.276C220.69 128.351 220.22 129.479 219.193 129.891C218.727 130.079 218.217 130.247 217.739 130.33C215.494 130.717 210.534 131.422 207.875 131.351C207.875 137.253 207.205 157.728 207.031 163.261C207.001 164.186 206.607 164.908 205.726 165.193C202.187 166.338 191.616 168.632 179.162 167.43C172.427 166.307 169.091 165.195 167.17 164.712C166.275 164.487 164.289 163.591 163.138 163.055C162.605 162.806 162.268 162.268 162.268 161.679V123.901C162.268 123.901 152.23 124.274 149.43 122.315C148.226 122.426 156.367 88.6223 158.732 86.999C161.096 85.3756 174.526 81.7935 174.526 81.7935C174.526 81.7935 179.786 88.0011 189.43 86.7049Z" fill="#47A9DF"/>
<path d="M162.621 123.949C162.621 123.949 164.728 123.852 165.515 123.264C166.19 122.759 167.652 116 168.861 112.758C169.02 112.306 169.218 111.869 169.453 111.453" stroke="#006BC2" stroke-width="0.502123" stroke-miterlimit="10" stroke-linecap="round"/>
<path d="M207.436 114.406L207.879 131.352" stroke="#006BC2" stroke-width="0.502123" stroke-miterlimit="10" stroke-linecap="round"/>
<path d="M150.51 117.747C150.51 117.747 164.911 118.895 167.13 118.506" stroke="#006BC2" stroke-width="0.502123" stroke-miterlimit="10" stroke-linecap="round"/>
<path d="M207.88 126.117L219.334 124.245" stroke="#006BC2" stroke-width="0.502123" stroke-miterlimit="10" stroke-linecap="round"/>
<path d="M168.625 114.267L162.269 137.63V124.713V123.902L164.859 123.682L168.625 114.267Z" fill="#006BC2"/>
<path d="M81.8096 97.0205C81.8096 97.0205 90.092 112.426 91.0403 113.267" stroke="#006BC2" stroke-width="0.502123" stroke-miterlimit="10"/>
<path d="M149.506 89.2715C149.506 89.2715 147.97 104.041 144.603 108.058" stroke="#006BC2" stroke-width="0.502123" stroke-miterlimit="10" stroke-linecap="round"/>
<path d="M66.002 110.815C66.002 110.815 66.262 112.385 66.4225 113.267C67.0963 116.975 67.991 120.64 69.1018 124.242" stroke="#00489A" stroke-width="0.502123" stroke-miterlimit="10" stroke-linecap="round"/>
<path d="M24.2539 121.247C24.2539 121.247 26.2748 114.012 26.4695 110.173" stroke="#00489A" stroke-width="0.502123" stroke-miterlimit="10" stroke-linecap="round"/>
<path d="M29.5986 90.4165C35.7104 100.956 41.5678 114.182 44.9761 125.879" stroke="#00489A" stroke-width="0.502123" stroke-miterlimit="10" stroke-linecap="round"/>
<path d="M63.492 92.9272L56.509 109.068C54.7325 113.478 51.5666 120.544 49.6836 125.879" stroke="#00489A" stroke-width="0.502123" stroke-miterlimit="10" stroke-linecap="round"/>
<path d="M28.2809 118.236C28.1504 118.236 28.0446 118.342 28.0446 118.472L28.0446 122.237C28.0446 122.367 28.1504 122.473 28.2809 122.473L37.3433 122.473C37.4679 122.473 37.5711 122.376 37.5791 122.252L37.8213 118.487C37.83 118.351 37.7219 118.236 37.5854 118.236L28.2809 118.236Z" fill="#00489A"/>
<path d="M46.8587 73.7835C48.1259 74.3798 49.0468 72.9398 49.0468 72.9398L49.374 70.3764C49.374 70.3764 49.5811 70.3143 50.5749 71.2295C51.5688 72.1447 51.1837 73.5196 49.9248 73.739C47.8914 74.1283 46.8644 76.4101 46.8644 76.4101C46.8644 76.4101 47.0301 77.023 46.1646 76.4474C45.299 75.8718 45.6593 74.4762 45.6593 74.4762" fill="#F18B6B"/>
<path d="M51.4171 73.6069C51.3954 72.9118 51.1975 72.2336 50.8418 71.636C50.4861 71.0384 49.9844 70.541 49.3838 70.1904" stroke="#231F20" stroke-width="0.414122" stroke-miterlimit="10"/>
<path d="M172.25 90.8217L174.983 88.7925" stroke="white" stroke-width="0.414122" stroke-miterlimit="10" stroke-linecap="round"/>
<path d="M178.766 96.5445L175.805 95.1572" stroke="white" stroke-width="0.414122" stroke-miterlimit="10" stroke-linecap="round"/>
<path d="M177.371 107.154L174.684 105.792" stroke="white" stroke-width="0.414122" stroke-miterlimit="10" stroke-linecap="round"/>
<path d="M172.235 98.636L172.115 98.8058L169.556 97.0044" stroke="white" stroke-width="0.414122" stroke-miterlimit="10" stroke-linecap="round"/>
<path d="M184.419 98.8428L187.96 98.731" stroke="white" stroke-width="0.414122" stroke-miterlimit="10" stroke-linecap="round"/>
<path d="M184.72 93.5917L181.879 92.3286" stroke="white" stroke-width="0.414122" stroke-miterlimit="10" stroke-linecap="round"/>
<path d="M185.944 105.663L188.765 103.937" stroke="white" stroke-width="0.414122" stroke-miterlimit="10" stroke-linecap="round"/>
<path d="M181.471 114.894L178.175 113.221" stroke="white" stroke-width="0.414122" stroke-miterlimit="10" stroke-linecap="round"/>
<path d="M192.921 111.851L195.203 110.128" stroke="white" stroke-width="0.414122" stroke-miterlimit="10" stroke-linecap="round"/>
<path d="M189.943 115.346L187.844 117.777" stroke="white" stroke-width="0.414122" stroke-miterlimit="10" stroke-linecap="round"/>
<path d="M173.549 124.908L176.282 122.878" stroke="white" stroke-width="0.414122" stroke-miterlimit="10" stroke-linecap="round"/>
<path d="M180.066 130.631L177.105 129.244" stroke="white" stroke-width="0.414122" stroke-miterlimit="10" stroke-linecap="round"/>
<path d="M178.667 141.24L175.979 139.878" stroke="white" stroke-width="0.414122" stroke-miterlimit="10" stroke-linecap="round"/>
<path d="M173.536 132.722L173.416 132.888L170.856 131.091" stroke="white" stroke-width="0.414122" stroke-miterlimit="10" stroke-linecap="round"/>
<path d="M185.715 132.93L189.26 132.818" stroke="white" stroke-width="0.414122" stroke-miterlimit="10" stroke-linecap="round"/>
<path d="M186.023 127.678L183.182 126.415" stroke="white" stroke-width="0.414122" stroke-miterlimit="10" stroke-linecap="round"/>
<path d="M187.24 139.75L190.06 138.019" stroke="white" stroke-width="0.414122" stroke-miterlimit="10" stroke-linecap="round"/>
<path d="M182.771 148.981L179.475 147.308" stroke="white" stroke-width="0.414122" stroke-miterlimit="10" stroke-linecap="round"/>
<path d="M194.219 145.937L196.501 144.214" stroke="white" stroke-width="0.414122" stroke-miterlimit="10" stroke-linecap="round"/>
<path d="M191.244 149.428L189.145 151.863" stroke="white" stroke-width="0.414122" stroke-miterlimit="10" stroke-linecap="round"/>
<path d="M193.477 94.7469L196.297 93.02" stroke="white" stroke-width="0.414122" stroke-miterlimit="10" stroke-linecap="round"/>
<path d="M196.885 101.945L193.589 100.271" stroke="white" stroke-width="0.414122" stroke-miterlimit="10" stroke-linecap="round"/>
<path d="M200.489 98.0768L202.771 96.354" stroke="white" stroke-width="0.414122" stroke-miterlimit="10" stroke-linecap="round"/>
<path d="M205.357 102.392L203.258 104.823" stroke="white" stroke-width="0.414122" stroke-miterlimit="10" stroke-linecap="round"/>
<path d="M159.514 110.008L156.826 108.646" stroke="white" stroke-width="0.414122" stroke-miterlimit="10" stroke-linecap="round"/>
<path d="M168.087 108.513L170.907 106.786" stroke="white" stroke-width="0.414122" stroke-miterlimit="10" stroke-linecap="round"/>
<path d="M163.549 100.085L160.989 98.2881" stroke="white" stroke-width="0.414122" stroke-miterlimit="10" stroke-linecap="round"/>
<path d="M205.353 99.3191L208.893 99.2031" stroke="white" stroke-width="0.414122" stroke-miterlimit="10" stroke-linecap="round"/>
<path d="M202.898 116.928L199.602 115.255" stroke="white" stroke-width="0.414122" stroke-miterlimit="10" stroke-linecap="round"/>
<path d="M194.086 120.965L191.986 123.4" stroke="white" stroke-width="0.414122" stroke-miterlimit="10" stroke-linecap="round"/>
<path d="M196.258 128.002L199.803 127.886" stroke="white" stroke-width="0.414122" stroke-miterlimit="10" stroke-linecap="round"/>
<path d="M197.783 134.818L200.603 133.091" stroke="white" stroke-width="0.414122" stroke-miterlimit="10" stroke-linecap="round"/>
<path d="M209.535 108.19L207.436 110.621" stroke="white" stroke-width="0.414122" stroke-miterlimit="10" stroke-linecap="round"/>
<path d="M188.807 36.7426C188.848 36.7426 186.739 37.2215 186.261 34C186.261 34 186.621 36.7053 183.478 36.6244C183.478 36.6244 186.183 36.6649 186.102 39.1711C186.102 39.1711 186.341 37.181 188.807 36.7426Z" fill="#FBB043"/>
<path d="M193.69 36.5388C193.69 36.5388 194.276 40.9365 189.189 40.8163C189.189 40.8163 193.587 40.8544 193.467 44.9794C193.467 44.9794 193.877 41.7544 197.891 41.042C197.891 41.0039 194.516 41.7896 193.69 36.5388Z" fill="#FBB043"/>
<path d="M32.7451 68.2148C32.8004 68.2148 29.916 68.8699 29.2608 64.4624C29.2608 64.4624 29.7543 68.1637 25.4531 68.0531C25.4531 68.0531 29.1544 68.1084 29.0438 71.5375C29.0438 71.5375 29.3714 68.8146 32.7451 68.2148Z" fill="#FBB043"/>
<path d="M24.2486 72.0781C24.2486 72.0781 24.5052 74.0026 22.2793 73.95C22.2793 73.95 24.2037 73.9666 24.1511 75.7718C24.1511 75.7718 24.3308 74.3605 26.0871 74.0488C26.0871 74.0321 24.6104 74.3759 24.2486 72.0781Z" fill="#FBB043"/>
<path d="M87 197H151.098" stroke="#484848" stroke-width="2.09" stroke-linecap="round"/>
<path d="M122.234 175.207C122.763 174.361 123.948 172.224 124.456 170.447" stroke="#00489A" stroke-width="0.507711" stroke-linecap="round"/>
</g>
<defs>
<clipPath id="clip0">
<rect width="224" height="198" fill="white"/>
</clipPath>
</defs>
</svg>
