<svg width="224" height="198" viewBox="0 0 224 198" fill="none" xmlns="http://www.w3.org/2000/svg">
<g clip-path="url(#clip0)">
<path d="M47.875 79.581L52.337 77.8535L64.7333 79.8833C64.7333 79.8833 68.0841 80.747 69.3993 82.9063C70.7144 85.0656 71.487 165.263 71.487 165.263H50.2188L47.875 79.581Z" fill="#00A5EC"/>
<path d="M68.8623 170.571L68.5869 82.7383L71.3403 84.3903L72.717 102.012L76.5717 168.644L68.8623 170.571Z" fill="#006BC2"/>
<path d="M53.9935 168.093C53.553 159.283 53.7182 116.789 50.6894 90.4478L40.2266 171.948C45.458 174.243 54.4341 176.904 53.9935 168.093Z" fill="#006BC2"/>
<path d="M78.6941 172.536L77.1619 198.292H55.1906L54.7782 185.414L51.6878 198.292H28.4795L32.6029 165.25H76.7496L78.6941 172.536Z" fill="#00489A"/>
<mask id="mask0" style="mask-type:alpha" maskUnits="userSpaceOnUse" x="28" y="165" width="51" height="34">
<path d="M78.6941 172.536L77.1619 198.292H55.1906L54.7782 185.414L51.6878 198.292H28.4795L32.6029 165.25H76.7496L78.6941 172.536Z" fill="#00489A"/>
</mask>
<g mask="url(#mask0)">
<path d="M53.4438 174.585V166.167H33.3441L29.7646 177.181L50.0245 177.887C51.8934 177.952 53.4438 176.455 53.4438 174.585Z" fill="#002966"/>
<path d="M68.8628 174.494V166.167L80.427 167.544L82.3544 177.181L72.3688 177.792C70.4681 177.908 68.8628 176.398 68.8628 174.494Z" fill="#002966"/>
</g>
<path d="M52.3389 172.225V142.621L49.3006 141.567L41.0537 174.894H49.6521C50.3639 174.894 51.0467 174.613 51.5504 174.113C52.0541 173.612 52.3377 172.934 52.3389 172.225Z" fill="#001E4A"/>
<path d="M146.884 164.685L142.469 178.771C142.287 179.351 142.61 179.969 143.19 180.151L148.364 181.774L150.547 165.259L146.884 164.685Z" fill="#00489A"/>
<path d="M163.924 94.0451C168.138 97.0077 173.473 94.6411 173.473 94.6411L175.539 92.8489L166.949 111.786L159.983 176.358L152.452 172.294C152.452 172.294 152.092 162.888 152.452 162.582L163.924 94.0451Z" fill="#E7E8E9"/>
<path d="M148.593 175.909L145.936 196.315C145.899 196.586 145.922 196.861 146.002 197.123C146.081 197.385 146.217 197.626 146.399 197.831C146.581 198.036 146.805 198.199 147.056 198.31C147.308 198.421 147.58 198.477 147.855 198.474L165.399 198.301L166.953 191.465C166.964 191.406 166.995 191.354 167.041 191.316C167.087 191.278 167.145 191.257 167.204 191.257C167.264 191.257 167.322 191.278 167.368 191.316C167.414 191.354 167.445 191.406 167.456 191.465L168.489 198.284H191.233L190.46 173.81L163.304 171.908L148.986 171.36L148.593 175.909Z" fill="#001E4A"/>
<path d="M34.0921 145.074L49.3228 141.783C49.5645 141.731 49.815 141.735 50.0549 141.794C50.2948 141.854 50.5176 141.969 50.7058 142.128C50.894 142.288 51.0426 142.489 51.14 142.715C51.2374 142.941 51.2809 143.187 51.2673 143.432L49.7698 170.942C49.7467 171.332 49.5821 171.7 49.3067 171.978C49.0312 172.256 48.6637 172.425 48.2724 172.454L29.9383 173.689C29.7029 173.704 29.4669 173.668 29.2471 173.583C29.0273 173.497 28.8292 173.365 28.6667 173.194C28.5043 173.024 28.3816 172.82 28.3073 172.598C28.233 172.375 28.2089 172.138 28.2369 171.905L30.7066 150.912C30.7277 150.74 30.776 150.573 30.8498 150.416L32.9767 145.95C33.0825 145.729 33.2382 145.534 33.4316 145.382C33.625 145.23 33.8511 145.125 34.0921 145.074Z" fill="#E7E8E9"/>
<path d="M157.764 64.5791C157.764 64.5791 154.669 62.0138 157.044 54.0589C159.418 46.104 170.933 46.6179 172.565 46.7734C174.197 46.9288 183.394 48.7772 186.385 58.7533C186.671 61.2581 186.888 63.6506 187.036 65.4169C187.202 67.3834 187.742 69.3004 188.629 71.0657C190.569 74.9265 193.998 81.6722 195.101 83.2053C200.001 90.0288 192.392 110.845 190.821 104.466C188.425 94.7231 160.807 92.9007 160.807 92.9007C160.807 92.9007 164.366 84.0777 163.845 81.357C163.324 78.6362 157.764 64.5791 157.764 64.5791Z" fill="#001E4A"/>
<path d="M32.2645 144.415L50.1402 140.402L48.6574 170.714C48.6022 171.844 47.7009 172.748 46.5718 172.807L28.9586 173.723C27.9394 173.776 27.1163 172.901 27.2313 171.887L29.7133 149.987L32.2645 144.415Z" fill="#002966"/>
<path d="M48.4374 57.4442C48.2117 57.5047 45.5771 48.2887 50.217 44.2853C50.6814 42.5924 53.3074 34.6634 64.6794 35.5876C71.5677 36.7407 73.1129 38.4336 73.5773 39.7421C74.9662 40.4374 78.3735 43.3611 78.2172 45.8228C78.061 48.2844 78.2953 51.9811 74.1198 53.1342C69.9443 54.2873 53.7762 50.9058 53.7762 51.1347C53.7762 51.3636 53.2336 62.294 53.2336 62.294C53.2336 62.294 49.8568 57.0642 48.4374 57.4442Z" fill="#001E4A"/>
<path d="M53.8767 49.2346C53.8247 49.1871 53.5642 58.1655 53.0086 60.8949C52.3359 60.3335 49.9139 56.0753 48.2125 56.9477C46.511 57.82 45.9424 59.2538 46.5587 62.4366C47.1751 65.6195 50.4651 66.44 52.4401 64.7946L51.572 79.0461C51.572 79.0461 57.2145 85.0533 64.7756 82.0691C64.964 81.9529 65.1195 81.7908 65.2274 81.5981C65.3352 81.4054 65.3918 81.1885 65.3918 80.9679C65.3918 80.7473 65.3352 80.5304 65.2274 80.3377C65.1195 80.145 64.964 79.9828 64.7756 79.8666C64.5673 78.2212 64.5152 74.477 64.5152 74.477C64.5152 74.477 72.354 75.0427 74.3159 66.833C74.8801 64.3671 75.2404 57.8027 74.8281 53.4452C74.776 52.2619 74.6241 51.1866 74.6241 51.1866C74.6241 51.1866 71.321 48.7768 65.444 49.8521C59.5671 50.9275 54.9228 49.8003 53.7899 48.6213L53.8767 49.2346Z" fill="#FAB187"/>
<path d="M47.4809 79.7541C47.5943 79.7043 47.7172 79.6793 47.8412 79.6807C47.9652 79.6821 48.0875 79.71 48.1997 79.7624C48.312 79.8147 48.4117 79.8904 48.4921 79.9844C48.5725 80.0783 48.6317 80.1883 48.6658 80.3069C51.1294 89.3977 52.3528 98.777 52.3031 108.192C52.2163 122.353 52.3596 137.516 52.3335 142.62C52.3347 142.785 52.2889 142.946 52.2014 143.085C52.1138 143.224 51.9882 143.336 51.8392 143.406C51.6903 143.477 51.5241 143.504 51.3603 143.484C51.1964 143.464 51.0417 143.398 50.9142 143.294C50.8012 143.206 50.694 143.111 50.593 143.009C50.4421 142.849 50.3583 142.637 50.3586 142.417C50.3619 142.286 50.3349 142.156 50.2799 142.036C50.2249 141.917 50.1432 141.812 50.0411 141.728C49.939 141.645 49.8191 141.586 49.6906 141.556C49.5621 141.525 49.4283 141.525 49.2995 141.554L33.5307 144.965C33.3928 144.996 33.2494 144.992 33.1131 144.955C32.9768 144.918 32.8517 144.849 32.7486 144.752C32.6455 144.656 32.5676 144.536 32.5216 144.403C32.4756 144.27 32.4629 144.128 32.4847 143.989L33.8215 135.119C33.8367 135.025 33.8367 134.928 33.8215 134.834L31.6209 122.621C31.5921 122.44 31.506 122.272 31.3752 122.143C31.2444 122.014 31.0756 121.929 30.8933 121.902C30.711 121.875 30.5247 121.906 30.3613 121.991C30.1979 122.076 30.0659 122.21 29.9846 122.375L26.395 129.285C26.3372 129.394 26.3038 129.515 26.2971 129.639C26.2903 129.762 26.3104 129.886 26.356 130.001L36.569 155.943C36.6458 156.134 36.6517 156.346 36.5857 156.541C36.5197 156.735 36.386 156.9 36.2088 157.006L25.6615 163.376C25.5524 163.443 25.4299 163.484 25.3026 163.499C25.1754 163.513 25.0466 163.498 24.9254 163.457C24.8043 163.416 24.6938 163.349 24.602 163.26C24.5101 163.171 24.4391 163.063 24.3941 162.944L10.8432 128.304C10.8432 128.304 10.0359 127.177 12.2061 123.174C14.3763 119.17 29.3248 89.8208 29.3248 89.8208C29.3248 89.8208 30.7702 86.2321 34.5854 85.0013C37.6802 83.995 44.9331 80.864 47.4809 79.7541Z" fill="#001E4A"/>
<mask id="mask1" style="mask-type:alpha" maskUnits="userSpaceOnUse" x="10" y="79" width="43" height="85">
<path d="M47.4809 79.7541C47.5944 79.7043 47.7172 79.6793 47.8412 79.6807C47.9652 79.6821 48.0875 79.71 48.1997 79.7624C48.312 79.8147 48.4117 79.8904 48.4921 79.9844C48.5725 80.0783 48.6317 80.1883 48.6658 80.3069C51.1294 89.3977 52.3528 98.777 52.3031 108.192C52.2163 122.353 52.3596 137.516 52.3335 142.62C52.3348 142.785 52.2889 142.946 52.2014 143.085C52.1138 143.224 51.9882 143.336 51.8392 143.406C51.6903 143.477 51.5241 143.504 51.3603 143.484C51.1964 143.464 51.0417 143.398 50.9142 143.294C50.8012 143.206 50.694 143.111 50.593 143.009C50.4421 142.849 50.3583 142.637 50.3586 142.417C50.3619 142.286 50.3349 142.156 50.2799 142.036C50.2249 141.917 50.1432 141.812 50.0411 141.728C49.939 141.645 49.8191 141.586 49.6906 141.556C49.5621 141.525 49.4283 141.525 49.2995 141.554L33.5307 144.965C33.3928 144.996 33.2494 144.992 33.1131 144.955C32.9768 144.918 32.8517 144.849 32.7486 144.752C32.6455 144.656 32.5676 144.536 32.5216 144.403C32.4756 144.27 32.4629 144.128 32.4847 143.989L33.8215 135.119C33.8367 135.025 33.8367 134.928 33.8215 134.834L31.6209 122.621C31.5921 122.44 31.506 122.272 31.3752 122.143C31.2444 122.014 31.0756 121.929 30.8933 121.902C30.711 121.875 30.5247 121.906 30.3613 121.991C30.1979 122.076 30.066 122.21 29.9846 122.375L26.395 129.285C26.3372 129.394 26.3038 129.515 26.2971 129.639C26.2903 129.762 26.3104 129.886 26.356 130.001L36.569 155.943C36.6458 156.134 36.6517 156.346 36.5857 156.541C36.5197 156.735 36.386 156.9 36.2088 157.006L25.6615 163.376C25.5524 163.443 25.4299 163.484 25.3026 163.499C25.1754 163.513 25.0466 163.498 24.9254 163.457C24.8043 163.416 24.6938 163.349 24.602 163.26C24.5101 163.171 24.4391 163.063 24.3941 162.944L10.8432 128.304C10.8432 128.304 10.0359 127.177 12.2061 123.174C14.3763 119.17 29.3248 89.8208 29.3248 89.8208C29.3248 89.8208 30.7702 86.2321 34.5854 85.0013C37.6802 83.995 44.9331 80.864 47.4809 79.7541Z" fill="#001E4A"/>
</mask>
<g mask="url(#mask1)">
<g style="mix-blend-mode:multiply">
<path d="M20.3672 146.818C15.748 147.594 13.7179 151.425 13.0734 152.965L7.25491 148.902C8.04807 147.561 10.8866 143.467 16.4607 142.589L16.4615 142.589C19.2731 142.141 20.993 141.123 22.0321 139.987C22.9183 139.019 23.2754 138.003 23.4166 137.274C24.6454 138.163 27.0976 139.887 29.0848 141.257C28.9461 141.522 28.6849 141.902 28.2908 142.353C27.8229 142.889 27.1924 143.497 26.4219 144.092C24.8788 145.283 22.7992 146.405 20.3672 146.818ZM20.3672 146.818C20.3675 146.818 20.3679 146.818 20.3682 146.818L20.4594 147.361L20.3671 146.818C20.3671 146.818 20.3672 146.818 20.3672 146.818ZM23.2701 136.898L23.2694 136.905L23.2701 136.898ZM23.2701 136.898L23.2655 136.905M23.2701 136.898L23.4673 136.629L23.2655 136.905M23.2655 136.905L23.2635 136.904L23.2536 136.903M13.1658 153.278L13.166 153.276L13.166 153.276L13.1658 153.278Z" fill="#1DC1F6"/>
<path d="M20.3672 146.818C15.748 147.594 13.7179 151.425 13.0734 152.965L7.25491 148.902C8.04807 147.561 10.8866 143.467 16.4607 142.589L16.4615 142.589C19.2731 142.141 20.993 141.123 22.0321 139.987C22.9183 139.019 23.2754 138.003 23.4166 137.274C24.6454 138.163 27.0976 139.887 29.0848 141.257C28.9461 141.522 28.6849 141.902 28.2908 142.353C27.8229 142.889 27.1924 143.497 26.4219 144.092C24.8788 145.283 22.7992 146.405 20.3672 146.818ZM20.3672 146.818C20.3675 146.818 20.3679 146.818 20.3682 146.818L20.4594 147.361L20.3671 146.818C20.3671 146.818 20.3672 146.818 20.3672 146.818ZM23.2701 136.898L23.2694 136.905L23.2701 136.898ZM23.2701 136.898L23.2655 136.905M23.2701 136.898L23.4673 136.629L23.2655 136.905M23.2655 136.905L23.2635 136.904L23.2536 136.903M13.1658 153.278L13.166 153.276L13.166 153.276L13.1658 153.278Z" stroke="#4CD3F4" stroke-width="1.10136"/>
</g>
</g>
<path d="M64.7274 79.8711C64.7274 79.8711 68.3864 81.3049 68.9029 83.9738C69.3891 86.4916 70.1486 165.816 70.2355 174.877C70.2367 174.979 70.2606 175.08 70.3054 175.172C70.3503 175.265 70.4149 175.346 70.4948 175.411C70.5747 175.475 70.668 175.522 70.7679 175.547C70.8678 175.572 70.972 175.574 71.0732 175.555L81.3166 173.551C81.4443 173.526 81.5573 173.452 81.6317 173.346C81.7062 173.24 81.7364 173.109 81.7159 172.981L75.8216 136.579C75.8173 136.537 75.8173 136.495 75.8216 136.454L77.0022 124.18C77.0125 124.074 77.0568 123.973 77.1286 123.894C77.2003 123.814 77.2959 123.759 77.4012 123.738C77.5064 123.716 77.6159 123.728 77.7136 123.773C77.8113 123.818 77.8921 123.892 77.9441 123.986L83.2698 133.608C83.3205 133.696 83.3959 133.768 83.4868 133.815L106.998 145.659C107.546 145.935 108.214 145.706 108.476 145.151L113.526 134.494C113.778 133.961 113.568 133.327 113.045 133.056C109.691 131.316 98.2236 125.323 93.9647 122.509C93.1925 122.002 92.6085 121.257 92.3023 120.389C90.2406 114.541 81.538 89.8817 81.0822 88.8884C80.5657 87.7569 64.6797 79.3442 64.6797 79.3442L64.7274 79.8711Z" fill="#001E4A"/>
<path d="M73.267 84.6665L69.9629 119.91" stroke="#00489A" stroke-width="0.440542" stroke-linecap="round"/>
<path d="M62.8559 56.6069C62.8737 56.9198 62.7664 57.2271 62.5575 57.4618C62.3485 57.6964 62.0548 57.8393 61.7404 57.8593C61.4834 57.8478 61.2377 57.7509 61.0426 57.5842C60.8475 57.4174 60.7142 57.1904 60.664 56.9394C60.6395 56.8302 60.6264 56.7188 60.6249 56.6069C60.6051 56.4495 60.6192 56.2897 60.6662 56.1382C60.7133 55.9867 60.7921 55.8468 60.8976 55.7279C61.0031 55.609 61.1328 55.5138 61.2781 55.4486C61.4234 55.3833 61.581 55.3496 61.7404 55.3496C61.8998 55.3496 62.0574 55.3833 62.2027 55.4486C62.348 55.5138 62.4777 55.609 62.5832 55.7279C62.6886 55.8468 62.7675 55.9867 62.8145 56.1382C62.8616 56.2897 62.8756 56.4495 62.8559 56.6069Z" fill="#1B2A30"/>
<path d="M70.7086 57.5352C71.2671 57.5352 71.7199 57.0325 71.7199 56.4124C71.7199 55.7923 71.2671 55.2896 70.7086 55.2896C70.1501 55.2896 69.6973 55.7923 69.6973 56.4124C69.6973 57.0325 70.1501 57.5352 70.7086 57.5352Z" fill="#1B2A30"/>
<path d="M66.9492 57.2415C67.3113 58.5688 67.9436 59.8079 68.8069 60.8821C70.1091 62.3202 68.1168 63.7583 68.1168 63.7583" stroke="#001E4A" stroke-width="0.434044" stroke-miterlimit="10" stroke-linecap="round"/>
<path d="M52.1402 61.4475C52.1836 61.5987 52.1402 64.4706 52.1402 64.4706C52.1402 64.4706 47.6565 65.2781 47.4829 61.318C47.3657 58.0142 51.4978 59.0248 52.1402 61.4475Z" fill="#F08B6B"/>
<path d="M62.2695 65.9775C63.0455 66.5919 63.9356 67.0481 64.8889 67.3201C65.8422 67.592 66.84 67.6744 67.8253 67.5625" stroke="#001E4A" stroke-width="0.434044" stroke-miterlimit="10" stroke-linecap="round"/>
<path d="M47.6632 62.0506C47.6632 62.0506 47.5399 60.1993 48.5165 59.6077C49.4931 59.016 50.6914 59.6077 50.6914 59.6077" stroke="#001E4A" stroke-width="0.434044" stroke-miterlimit="10" stroke-linecap="round"/>
<path d="M55.8252 68.375C55.8252 68.375 58.0822 73.1989 64.4757 74.4815C64.5148 76.1097 64.5582 77.3448 64.5582 77.3448C64.5582 77.3448 57.1013 76.6106 55.8252 68.375Z" fill="#F08B6B"/>
<path d="M77.2148 122.021L80.8478 91.6179" stroke="#002966" stroke-width="0.651066" stroke-miterlimit="10" stroke-linecap="round"/>
<path d="M23.3018 160.163L35.429 153.059" stroke="#00489A" stroke-width="0.651066" stroke-miterlimit="10"/>
<path d="M107.962 145.511L110.779 146.527C111.052 146.626 111.356 146.495 111.471 146.227L115.846 136.079C115.968 135.798 115.836 135.471 115.553 135.353L113.21 134.375L107.962 145.511Z" fill="#00A5EC"/>
<mask id="path-31-inside-1" fill="white">
<path d="M39.6954 103.472L31.1621 120.095L32.5033 127.536L37.816 107.139"/>
</mask>
<path d="M39.6954 103.472L31.1621 120.095L32.5033 127.536L37.816 107.139" fill="#002966"/>
<path d="M31.1621 120.095L30.776 119.897L30.7089 120.027L30.7349 120.172L31.1621 120.095ZM32.5033 127.536L32.0761 127.613L32.9233 127.645L32.5033 127.536ZM39.3093 103.274L30.776 119.897L31.5482 120.293L40.0816 103.671L39.3093 103.274ZM30.7349 120.172L32.0761 127.613L32.9305 127.459L31.5893 120.018L30.7349 120.172ZM32.9233 127.645L38.236 107.248L37.396 107.03L32.0833 127.426L32.9233 127.645Z" fill="#002966" mask="url(#path-31-inside-1)"/>
<path d="M77.3885 122.511L78.9907 109.024L79.9688 126.695L77.3885 122.511Z" fill="#002966" stroke="#002966" stroke-width="0.434044"/>
<path d="M58.6758 53.2838C58.6758 53.2838 60.6814 51.212 63.3899 52.5983" stroke="#001E4A" stroke-width="0.651066" stroke-miterlimit="10" stroke-linecap="round"/>
<path d="M68.5869 52.4626C68.5869 52.4626 71.528 51.6445 72.6087 53.4108" stroke="#001E4A" stroke-width="0.651066" stroke-miterlimit="10" stroke-linecap="round"/>
<mask id="path-36-inside-2" fill="white">
<path d="M19.2398 64.061C19.194 64.1029 19.1605 64.1564 19.1429 64.2157C19.1253 64.275 19.1243 64.338 19.1399 64.3979C19.1555 64.4578 19.1872 64.5124 19.2315 64.5557C19.2759 64.5991 19.3313 64.6296 19.3918 64.6441C20.937 65.0068 24.7652 66.311 25.9285 70.4526C27.3782 75.635 25.1429 75.6868 29.4486 80.5539C29.5023 80.6128 29.5745 80.6517 29.6534 80.6643C29.7323 80.6768 29.8131 80.6623 29.8826 80.623C31.6188 79.6081 35.4991 77.0299 36.8273 76.1446C36.8739 76.1138 36.9121 76.0721 36.9385 76.0231C36.9649 75.9742 36.9787 75.9194 36.9787 75.8639C36.9787 75.8083 36.9649 75.7535 36.9385 75.7046C36.9121 75.6556 36.8739 75.6139 36.8273 75.5831C35.8985 74.9483 33.8585 72.992 33.789 68.0687C33.7196 62.3249 27.5214 58.6584 26.2714 57.9761C26.2085 57.9412 26.1363 57.9267 26.0648 57.9344C25.9933 57.9421 25.9259 57.9718 25.872 58.0193L19.2398 64.061Z"/>
</mask>
<path d="M19.2398 64.061C19.194 64.1029 19.1605 64.1564 19.1429 64.2157C19.1253 64.275 19.1243 64.338 19.1399 64.3979C19.1555 64.4578 19.1872 64.5124 19.2315 64.5557C19.2759 64.5991 19.3313 64.6296 19.3918 64.6441C20.937 65.0068 24.7652 66.311 25.9285 70.4526C27.3782 75.635 25.1429 75.6868 29.4486 80.5539C29.5023 80.6128 29.5745 80.6517 29.6534 80.6643C29.7323 80.6768 29.8131 80.6623 29.8826 80.623C31.6188 79.6081 35.4991 77.0299 36.8273 76.1446C36.8739 76.1138 36.9121 76.0721 36.9385 76.0231C36.9649 75.9742 36.9787 75.9194 36.9787 75.8639C36.9787 75.8083 36.9649 75.7535 36.9385 75.7046C36.9121 75.6556 36.8739 75.6139 36.8273 75.5831C35.8985 74.9483 33.8585 72.992 33.789 68.0687C33.7196 62.3249 27.5214 58.6584 26.2714 57.9761C26.2085 57.9412 26.1363 57.9267 26.0648 57.9344C25.9933 57.9421 25.9259 57.9718 25.872 58.0193L19.2398 64.061Z" fill="#1DC1F6"/>
<path d="M19.2398 64.061L18.4982 63.2469L18.4969 63.248L19.2398 64.061ZM19.3918 64.6441L19.1359 65.7153L19.14 65.7163L19.3918 64.6441ZM25.9285 70.4526L26.9891 70.1559L26.9888 70.1548L25.9285 70.4526ZM29.4486 80.5539L28.6237 81.2836L28.6292 81.2899L28.6348 81.296L29.4486 80.5539ZM29.8826 80.623L30.4246 81.5818L30.4315 81.5778L30.4384 81.5738L29.8826 80.623ZM36.8273 76.1446L36.2206 75.2254L36.2165 75.2281L36.8273 76.1446ZM36.8273 75.5831L36.2059 76.4924L36.2132 76.4974L36.2207 76.5023L36.8273 75.5831ZM33.789 68.0687L32.6877 68.082L32.6878 68.0843L33.789 68.0687ZM26.2714 57.9761L25.7372 58.9393L25.7437 58.9428L26.2714 57.9761ZM25.872 58.0193L25.1437 57.1931L25.137 57.199L25.1304 57.2051L25.872 58.0193ZM18.4969 63.248C18.3037 63.4246 18.1618 63.6506 18.0871 63.9024L20.1988 64.529C20.1593 64.6621 20.0844 64.7812 19.9828 64.874L18.4969 63.248ZM18.0871 63.9024C18.0124 64.1541 18.0079 64.4215 18.0741 64.6756L20.2056 64.1202C20.2407 64.2546 20.2383 64.3959 20.1988 64.529L18.0871 63.9024ZM18.0741 64.6756C18.1403 64.9297 18.2746 65.1605 18.4618 65.3434L20.0013 63.768C20.0998 63.8643 20.1707 63.9859 20.2056 64.1202L18.0741 64.6756ZM18.4618 65.3434C18.649 65.5264 18.8821 65.6547 19.1359 65.7153L19.6476 63.5728C19.7805 63.6046 19.9028 63.6718 20.0013 63.768L18.4618 65.3434ZM19.14 65.7163C20.6002 66.059 23.8776 67.2237 24.8681 70.7504L26.9888 70.1548C25.6529 65.3983 21.2738 63.9546 19.6435 63.5718L19.14 65.7163ZM24.8678 70.7493C25.5703 73.2605 25.3292 74.2133 25.5249 75.7597C25.7256 77.3462 26.4068 78.7778 28.6237 81.2836L30.2735 79.8241C28.1846 77.4629 27.8306 76.4351 27.7102 75.4832C27.5847 74.4914 27.7363 72.827 26.9891 70.1559L24.8678 70.7493ZM28.6348 81.296C28.8572 81.5399 29.1556 81.7002 29.4803 81.7519L29.8266 79.5766C29.9935 79.6032 30.1473 79.6856 30.2624 79.8118L28.6348 81.296ZM29.4803 81.7519C29.8049 81.8036 30.1379 81.7438 30.4246 81.5818L29.3406 79.6642C29.4884 79.5807 29.6596 79.55 29.8266 79.5766L29.4803 81.7519ZM30.4384 81.5738C32.2097 80.5384 36.1232 77.9375 37.4382 77.061L36.2165 75.2281C34.8751 76.1222 31.0279 78.6778 29.3268 79.6722L30.4384 81.5738ZM37.434 77.0638C37.6319 76.9331 37.7949 76.7554 37.9078 76.546L35.9692 75.5003C36.0293 75.3889 36.1158 75.2945 36.2207 75.2254L37.434 77.0638ZM37.9078 76.546C38.0208 76.3366 38.0801 76.1022 38.0801 75.8639H35.8774C35.8774 75.7367 35.909 75.6118 35.9692 75.5003L37.9078 76.546ZM38.0801 75.8639C38.0801 75.6255 38.0208 75.3912 37.9078 75.1817L35.9692 76.2274C35.909 76.1159 35.8774 75.991 35.8774 75.8639H38.0801ZM37.9078 75.1817C37.7949 74.9723 37.6319 74.7946 37.434 74.6639L36.2207 76.5023C36.1158 76.4332 36.0293 76.3389 35.9692 76.2274L37.9078 75.1817ZM37.4488 74.6739C36.8164 74.2416 34.9547 72.619 34.8903 68.0532L32.6878 68.0843C32.7623 73.3649 34.9806 75.655 36.2059 76.4924L37.4488 74.6739ZM34.8903 68.0554C34.8506 64.7754 33.0641 62.1637 31.2529 60.3468C29.4328 58.5209 27.468 57.3745 26.7991 57.0094L25.7437 58.9428C26.3248 59.26 28.0841 60.288 29.6929 61.9019C31.3107 63.5248 32.6579 65.6183 32.6877 68.082L34.8903 68.0554ZM26.8055 57.0129C26.5437 56.8677 26.2435 56.8073 25.9464 56.8394L26.1832 59.0294C26.0291 59.046 25.8733 59.0147 25.7372 58.9392L26.8055 57.0129ZM25.9464 56.8394C25.6492 56.8716 25.3687 56.9948 25.1437 57.1931L26.6003 58.8454C26.4832 58.9488 26.3373 59.0127 26.1832 59.0294L25.9464 56.8394ZM25.1304 57.2051L18.4982 63.2469L19.9815 64.8752L26.6137 58.8334L25.1304 57.2051Z" fill="#4CD3F4" mask="url(#path-36-inside-2)"/>
<path d="M153.132 27.8305C146.502 29.5822 143.012 34.7973 141.97 36.6183L136.04 31.0596C136.344 30.3654 137.183 28.6154 138.656 26.8463C140.215 24.9741 142.457 23.1119 145.5 22.4219L145.5 22.4218C151.147 21.1382 153.811 19.3653 154.741 18.611L161.594 24.2409C160.844 24.8994 158.673 26.3577 153.132 27.8305Z" fill="#1DC1F6" stroke="#4CD3F4" stroke-width="1.10136"/>
<path d="M200.866 58.0033C199.139 57.4302 194.728 55.9479 192.991 55.246C193.098 54.3754 193.623 53.115 194.595 51.4923C195.613 49.7924 197.08 47.7635 198.931 45.4794C200.561 43.4797 200.923 41.5919 200.725 40.0282C200.556 38.6982 199.988 37.6445 199.537 36.9876L206.804 35.8816C207.488 37.165 209.561 41.8861 205.754 46.2331C201.838 50.7047 201.032 56.0838 200.866 58.0033Z" fill="#1DC1F6" stroke="#4CD3F4" stroke-width="1.10136"/>
<path d="M88.5589 161.848C85.6791 159.323 84.2522 158.081 83.5575 157.482L89.3266 153.774C89.8835 154.162 91.1419 155.067 92.4778 156.219C93.9245 157.467 95.4136 158.964 96.2252 160.382C97.4294 162.647 98.3034 165.071 98.8212 167.58L93.8733 173.353C93.9303 170.811 93.3004 166.015 88.5594 161.848L88.5589 161.848Z" fill="#1DC1F6" stroke="#4CD3F4" stroke-width="1.10136"/>
<path d="M216.271 139.816C216.265 139.841 216.259 139.867 216.252 139.893C216.075 140.589 215.769 141.572 215.255 142.709C214.229 144.982 212.374 147.862 209.061 150.282L209.025 150.308L208.994 150.34C207.626 151.728 206.029 153.695 204.771 155.672C204.142 156.661 203.59 157.662 203.195 158.603C202.878 159.356 202.65 160.096 202.574 160.774C200.248 161.152 198.387 161.461 197.086 161.679C196.484 161.78 196.002 161.861 195.65 161.921C195.65 161.919 195.65 161.917 195.651 161.915C195.726 161.47 195.904 160.791 196.321 159.905C197.156 158.135 198.953 155.532 202.817 152.342C204.339 151.192 205.808 149.788 206.783 148.253C207.675 146.847 208.181 145.28 207.862 143.688C209.246 143.016 211.434 142.009 213.354 141.135C214.411 140.655 215.384 140.216 216.093 139.897C216.154 139.869 216.214 139.842 216.271 139.816Z" fill="#1DC1F6" stroke="#4CD3F4" stroke-width="1.10136"/>
<path d="M138.326 123.961C136.079 121.381 132.961 119.714 129.565 119.271L130.748 111.453C131.418 111.497 132.692 111.626 134.023 111.983C135.512 112.383 136.967 113.043 137.785 114.09L137.785 114.09C138.694 115.251 139.167 116.124 139.558 116.844C139.619 116.958 139.679 117.067 139.738 117.174C140.181 117.976 140.603 118.622 141.561 119.159L141.561 119.159C142.297 119.571 143.321 119.909 144.238 120.163C145.052 120.389 145.817 120.559 146.285 120.66L145.656 127.087C144.563 127.24 141.267 127.361 138.327 123.962L138.326 123.961ZM129.334 119.438L129.327 119.45L129.334 119.438Z" fill="#1DC1F6" stroke="#4CD3F4" stroke-width="1.10136"/>
<path d="M20.7315 143.243C16.1122 144.019 14.0822 147.851 13.4377 149.39L7.61917 145.327C8.41233 143.986 11.2509 139.892 16.825 139.014L16.8258 139.014C19.6373 138.567 21.3573 137.548 22.3964 136.413C23.2826 135.444 23.6397 134.428 23.7809 133.699C25.0096 134.589 27.4619 136.313 29.449 137.682C29.3104 137.947 29.0492 138.328 28.655 138.779C28.1871 139.314 27.5567 139.922 26.7861 140.517C25.243 141.708 23.1634 142.83 20.7315 143.243ZM20.7315 143.243C20.7318 143.243 20.7321 143.243 20.7324 143.243L20.8236 143.786L20.7314 143.243C20.7314 143.243 20.7314 143.243 20.7315 143.243ZM13.5301 149.703L13.5303 149.702L13.5302 149.702L13.5301 149.703ZM13.5307 149.702L13.5307 149.702L13.5307 149.702Z" fill="#1DC1F6" stroke="#4CD3F4" stroke-width="1.10136"/>
<path d="M157.508 61.9093C157.265 64.9608 157.3 68.0281 157.612 71.0734C157.916 74.036 158.324 76.8388 160.316 79.2054C161.216 80.2705 162.316 81.1507 163.554 81.7965C164.198 82.1378 164.869 82.4267 165.56 82.6603C165.918 82.783 166.285 82.8783 166.658 82.9453C166.862 82.9842 167.5 82.9453 167.63 83.1008C167.679 83.185 167.708 83.2798 167.713 83.3772L168.055 86.4002C168.121 86.9487 167.513 87.4324 167.096 87.6958C166.862 87.8513 166.662 88.0067 166.436 88.1752C165.95 88.5379 165.746 89.216 165.568 89.7731C165.364 90.4295 165.191 91.0946 165.026 91.7596C164.817 92.6061 164.624 93.4554 164.444 94.3076C165.75 95.045 167.194 95.5088 168.687 95.6707C170.18 95.8326 172.056 95.6391 173.491 95.1991C175.423 92.6597 177.622 88.3502 177.622 88.3502L176.91 87.4583L176.215 79.6847C176.215 79.6847 179.154 76.761 179.31 74.6838C181.55 75.2193 183.178 72.2178 183.329 70.6027C183.481 68.9875 182.865 66.1372 180.391 66.677C179.74 67.0939 179.187 67.6447 178.768 68.2922L178.381 65.5239C178.381 65.5239 167.704 60.7735 163.915 55.4399C161.918 57.4438 157.508 61.9093 157.508 61.9093Z" fill="#DD7C58"/>
<path d="M163.85 65.373C163.824 65.4508 163.824 68.5559 162.548 70.0674C161.272 71.5789 162.909 72.7881 162.909 72.7881" stroke="#001E4A" stroke-width="0.434044" stroke-miterlimit="10" stroke-linecap="round"/>
<path d="M158.438 62.9379C158.438 62.9379 159.784 60.5713 162.345 61.7244" stroke="#001E4A" stroke-width="0.651066" stroke-miterlimit="10" stroke-linecap="round"/>
<path d="M166.421 61.5726C166.421 61.5726 168.261 59.5849 170.892 61.8317" stroke="#001E4A" stroke-width="0.651066" stroke-miterlimit="10" stroke-linecap="round"/>
<path d="M159.349 67.3476C159.349 67.3476 159.648 66.1384 160.677 66.1815C160.982 66.2065 161.273 66.3201 161.514 66.5082C161.754 66.6963 161.934 66.9507 162.031 67.2396" stroke="#001E4A" stroke-width="0.434044" stroke-miterlimit="10" stroke-linecap="round"/>
<path d="M166.966 67.1308C166.966 67.1308 167.261 65.9216 168.294 65.9648C168.598 65.9906 168.888 66.1045 169.128 66.2926C169.368 66.4806 169.547 66.7345 169.644 67.0228" stroke="#001E4A" stroke-width="0.434044" stroke-miterlimit="10" stroke-linecap="round"/>
<path d="M111.364 146.261C111.317 146.369 119.611 152.622 120.375 153.11C120.966 153.482 122.545 151.318 123.253 150.251C123.293 150.191 123.319 150.122 123.327 150.049C123.336 149.977 123.328 149.904 123.303 149.835C123.278 149.767 123.237 149.705 123.184 149.655C123.131 149.605 123.067 149.568 122.997 149.548C121.492 149.112 120.144 148.256 119.112 147.082C119.061 147.03 118.999 146.99 118.931 146.965C118.863 146.939 118.79 146.929 118.717 146.935C117.958 146.935 116.764 145.285 116.247 144.499C116.213 144.448 116.19 144.391 116.178 144.331C116.167 144.271 116.167 144.209 116.18 144.149C116.192 144.09 116.217 144.033 116.251 143.982C116.286 143.932 116.33 143.889 116.382 143.856L122.424 139.969C122.477 139.934 122.537 139.91 122.6 139.899C122.663 139.888 122.728 139.89 122.79 139.906C122.852 139.921 122.91 139.95 122.961 139.989C123.012 140.028 123.053 140.077 123.084 140.133C123.492 140.884 124.342 142.353 124.915 142.616C125.419 142.854 126.434 142.737 127.086 142.616C127.155 142.604 127.222 142.577 127.279 142.536C127.337 142.495 127.384 142.441 127.418 142.379C127.451 142.317 127.47 142.248 127.473 142.178C127.475 142.107 127.462 142.037 127.433 141.973L124.746 135.715C124.709 135.631 124.648 135.559 124.571 135.508C124.494 135.458 124.404 135.431 124.312 135.43L116.282 135.706C116.194 135.708 116.108 135.735 116.035 135.784C115.962 135.833 115.904 135.902 115.87 135.983L111.364 146.261Z" fill="#FAB187"/>
<mask id="mask2" style="mask-type:alpha" maskUnits="userSpaceOnUse" x="111" y="135" width="17" height="19">
<path d="M111.364 146.261C111.317 146.369 119.611 152.622 120.375 153.11C120.966 153.482 122.545 151.318 123.253 150.251C123.293 150.191 123.319 150.122 123.327 150.049C123.336 149.977 123.328 149.904 123.303 149.835C123.278 149.767 123.237 149.705 123.184 149.655C123.131 149.605 123.067 149.568 122.997 149.548C121.492 149.112 120.144 148.256 119.112 147.082C119.061 147.03 118.999 146.99 118.931 146.965C118.863 146.939 118.79 146.929 118.717 146.935C117.958 146.935 116.764 145.285 116.247 144.499C116.213 144.448 116.19 144.391 116.178 144.331C116.167 144.271 116.167 144.209 116.18 144.149C116.192 144.09 116.217 144.033 116.251 143.982C116.286 143.932 116.33 143.889 116.382 143.856L122.424 139.969C122.477 139.934 122.537 139.91 122.6 139.899C122.663 139.888 122.728 139.89 122.79 139.906C122.852 139.921 122.91 139.95 122.961 139.989C123.012 140.028 123.053 140.077 123.084 140.133C123.492 140.884 124.342 142.353 124.915 142.616C125.419 142.854 126.434 142.737 127.086 142.616C127.155 142.604 127.222 142.577 127.279 142.536C127.337 142.495 127.384 142.441 127.418 142.379C127.451 142.317 127.47 142.248 127.473 142.178C127.475 142.107 127.462 142.037 127.433 141.973L124.746 135.715C124.709 135.631 124.648 135.559 124.571 135.508C124.494 135.458 124.404 135.431 124.312 135.43L116.282 135.706C116.194 135.708 116.108 135.735 116.035 135.784C115.962 135.833 115.904 135.902 115.87 135.983L111.364 146.261Z" fill="#FAB187"/>
</mask>
<g mask="url(#mask2)">
<path d="M112.091 148.27L115.946 136.43L108.512 147.719L112.091 148.27Z" fill="#F08B6B"/>
</g>
<path d="M178.925 69.6486L179.181 73.2918C179.206 73.6402 179.541 73.8714 179.863 73.7353C180.891 73.3007 182.789 72.2252 182.627 70.2576C182.406 67.5714 179.984 66.8502 178.925 69.6486Z" fill="#BB5536"/>
<path d="M177.053 88.6253C177.144 88.4742 177.288 88.3625 177.458 88.3121C177.627 88.2618 177.81 88.2764 177.969 88.3532C180.217 89.4156 188.303 93.3456 190.226 95.6949C192.47 98.4113 194.406 102.337 194.567 106.414C194.719 110.344 189.766 141.015 189.406 143.23C189.391 143.314 189.391 143.401 189.406 143.485L193.78 177.397C193.802 177.5 193.802 177.606 193.778 177.709C193.754 177.811 193.708 177.907 193.642 177.99C191.587 178.297 193.493 178.14 193.399 178.186C193.304 178.233 193.2 178.259 193.094 178.261L159.817 178.945C159.721 178.946 159.626 178.928 159.537 178.892C159.448 178.856 159.367 178.803 159.299 178.735C159.231 178.668 159.177 178.587 159.141 178.499C159.105 178.41 159.087 178.315 159.088 178.22L161.692 120.182C161.697 120.131 161.705 120.08 161.718 120.03C161.866 119.491 162.86 116.092 166.106 108.716C169.21 101.629 175.53 91.1258 177.053 88.6253Z" fill="#23A2DB"/>
<mask id="mask3" style="mask-type:alpha" maskUnits="userSpaceOnUse" x="159" y="88" width="36" height="91">
<path d="M177.053 88.6253C177.144 88.4742 177.288 88.3625 177.458 88.3121C177.627 88.2618 177.81 88.2764 177.969 88.3532C180.217 89.4156 188.303 93.3456 190.226 95.6949C192.47 98.4113 194.406 102.337 194.567 106.414C194.719 110.344 189.766 141.015 189.406 143.23C189.391 143.314 189.391 143.401 189.406 143.485L193.78 177.397C193.802 177.5 193.802 177.606 193.778 177.709C193.754 177.811 193.708 177.907 193.642 177.99C191.587 178.297 193.493 178.14 193.399 178.186C193.304 178.233 193.2 178.259 193.094 178.261L159.817 178.945C159.721 178.946 159.626 178.928 159.537 178.892C159.448 178.856 159.367 178.803 159.299 178.735C159.231 178.668 159.177 178.587 159.141 178.499C159.105 178.41 159.087 178.315 159.088 178.22L161.692 120.182C161.697 120.131 161.705 120.08 161.718 120.03C161.866 119.491 162.86 116.092 166.106 108.716C169.21 101.629 175.53 91.1258 177.053 88.6253Z" fill="#23A2DB"/>
</mask>
<g mask="url(#mask3)">
<g style="mix-blend-mode:multiply">
<path d="M176.937 127.704L185.618 134.048C185.658 134.076 185.703 134.096 185.752 134.106C185.8 134.116 185.849 134.116 185.897 134.105C185.946 134.095 185.991 134.074 186.03 134.045C186.069 134.016 186.102 133.978 186.126 133.935C186.738 132.791 189.108 129.137 195.31 126.823C202.055 124.305 201.782 118.293 201.673 117.214C201.668 117.162 201.651 117.112 201.623 117.067C201.595 117.023 201.558 116.986 201.513 116.959L194.434 112.515C194.384 112.482 194.327 112.463 194.268 112.459C194.208 112.456 194.149 112.468 194.096 112.494C194.043 112.52 193.997 112.56 193.964 112.609C193.931 112.658 193.912 112.715 193.908 112.774C193.778 114.368 192.971 118.846 188.053 120.664C182.319 122.785 178.122 125.415 176.855 127.233C176.805 127.307 176.786 127.397 176.801 127.485C176.816 127.572 176.865 127.651 176.937 127.704Z" fill="#1DC1F6"/>
</g>
<path d="M161.085 121.269C161.085 121.269 180.478 92.002 182.952 89.156C185.426 86.31 176.537 84.4617 176.537 84.4617L162.947 105.666L161.085 121.269Z" fill="#00489A"/>
</g>
<path d="M137.29 140.507L137.857 149.034C137.865 149.194 137.905 149.351 137.975 149.495C138.046 149.639 138.145 149.767 138.267 149.872C138.388 149.977 138.53 150.056 138.684 150.104C138.837 150.152 138.999 150.169 139.159 150.153L174.69 146.879L165.575 134.26L138.267 139.307C137.985 139.355 137.731 139.503 137.551 139.724C137.371 139.945 137.279 140.223 137.29 140.507Z" fill="#23A2DB"/>
<path d="M166.216 88.301C166.216 88.301 159.984 112.809 161.685 120.095C161.291 129.33 154.088 169.972 152.772 177.336C152.649 178.027 152.103 178.558 151.402 178.604C149.969 178.697 147.684 178.641 147.336 177.386C146.824 175.538 153.686 137.542 153.686 137.542L148.477 137.581C148.477 137.581 150.903 104.91 151.515 103.265C152.127 101.62 153.746 97.5299 156.138 95.6773C158.53 93.8246 166.216 88.301 166.216 88.301Z" fill="#23A2DB"/>
<mask id="mask4" style="mask-type:alpha" maskUnits="userSpaceOnUse" x="147" y="88" width="20" height="88">
<path d="M166.216 88.3005C166.216 88.3005 159.983 112.809 161.685 120.094C161.25 130.26 153.117 174.28 153.117 174.28C153.117 174.28 148.121 176.129 147.608 174.28C147.096 172.432 153.685 137.542 153.685 137.542L148.477 137.58C148.477 137.58 150.903 104.91 151.515 103.265C152.127 101.619 153.746 97.5295 156.137 95.6768C158.529 93.8241 166.216 88.3005 166.216 88.3005Z" fill="#23A2DB"/>
</mask>
<g mask="url(#mask4)">
<path d="M162.349 88.6764C162.349 88.6764 157.448 118.743 161.685 120.094C165.921 121.446 173.404 85.5972 173.404 85.5972L162.349 88.6764Z" fill="#00489A"/>
</g>
<path d="M148.233 149.315L142.601 161.612C142.353 162.153 142.578 162.791 143.116 163.045C144.812 163.849 148.249 165.402 149.17 165.251C150.407 165.048 152.469 148.935 152.469 148.935L148.233 149.315Z" fill="#23A2DB"/>
<path d="M146.785 165.617L151.196 149.934L148.988 166.167L146.785 165.617Z" fill="#006BC2"/>
<path d="M163.056 75.6042H163.086C164.015 75.4444 164.961 75.358 165.899 75.2241C166.463 75.1464 167.027 75.0557 167.6 75.0039C167.926 74.9736 168.859 74.7923 169.007 75.1809C169.033 75.2844 169.033 75.3927 169.007 75.4962C168.967 75.9397 168.867 76.3758 168.707 76.7918C168.523 77.2157 168.222 77.5794 167.839 77.8412C167.457 78.1546 166.999 78.3617 166.511 78.4415C165.69 78.4975 164.878 78.2482 164.232 77.7419C163.914 77.507 163.623 77.2376 163.364 76.9386C163.05 76.6623 162.836 76.2903 162.756 75.8805C162.752 75.8166 162.772 75.7533 162.813 75.7035C162.88 75.6431 162.966 75.608 163.056 75.6042Z" fill="#762929"/>
<mask id="mask5" style="mask-type:alpha" maskUnits="userSpaceOnUse" x="162" y="74" width="8" height="5">
<path d="M163.056 75.6042H163.086C164.015 75.4444 164.961 75.358 165.899 75.2241C166.463 75.1464 167.027 75.0557 167.6 75.0039C167.926 74.9736 168.859 74.7923 169.007 75.1809C169.033 75.2844 169.033 75.3927 169.007 75.4962C168.967 75.9397 168.867 76.3758 168.707 76.7918C168.523 77.2157 168.222 77.5794 167.839 77.8412C167.457 78.1546 166.999 78.3617 166.511 78.4415C165.69 78.4975 164.878 78.2482 164.232 77.7419C163.914 77.507 163.623 77.2376 163.364 76.9386C163.05 76.6623 162.836 76.2903 162.756 75.8805C162.752 75.8166 162.772 75.7533 162.813 75.7035C162.88 75.6431 162.966 75.608 163.056 75.6042Z" fill="#AA4141"/>
</mask>
<g mask="url(#mask5)">
<path d="M170.361 75.868C170.361 75.868 166.133 75.7945 165.791 78.0057C165.448 80.2168 170.092 77.142 170.092 77.142L170.361 75.868Z" fill="#A64148"/>
<path d="M168.861 74.8879C168.861 74.8879 168.953 75.4364 168.736 75.458C168.519 75.4796 162.976 76.5592 162.529 76.136C162.401 76.0116 162.307 75.8562 162.258 75.6851C162.209 75.514 162.205 75.3331 162.247 75.16L168.861 74.8879Z" fill="#E7E7E7"/>
</g>
<path d="M179.095 70.2153C179.095 70.2153 179.633 67.9351 181.143 67.9481" stroke="#001E4A" stroke-width="0.434044" stroke-miterlimit="10" stroke-linecap="round"/>
<path d="M180.539 73.3886C180.872 73.3886 181.142 73.1198 181.142 72.7883C181.142 72.4567 180.872 72.188 180.539 72.188C180.206 72.188 179.936 72.4567 179.936 72.7883C179.936 73.1198 180.206 73.3886 180.539 73.3886Z" fill="#8FEAFE"/>
<path d="M175.555 79.8455C175.555 79.8455 171.714 83.4601 167.486 83.024C167.58 83.1065 167.654 83.2093 167.702 83.3245C167.751 83.4398 167.772 83.5645 167.764 83.689L167.981 85.5979C167.981 85.5979 173.467 85.0537 175.555 79.8455Z" fill="#BB5536"/>
<path d="M124.825 135.944C124.825 135.944 131.205 139.032 132.907 139.49C134.409 139.819 135.937 140.026 137.473 140.107L137.907 148.572H135.91L128.927 151.293C128.927 151.293 126.709 146.417 126.244 146.495C126.013 146.584 125.802 146.719 125.625 146.892C125.448 147.064 125.308 147.271 125.214 147.5C125.12 147.728 125.073 147.973 125.077 148.22C125.081 148.466 125.136 148.71 125.237 148.935C124.369 149.496 123.892 149.958 122.737 149.479C121.583 149 119.369 148.252 118.661 147.419C117.954 146.585 115.853 145.108 115.979 144.111C116.105 143.113 122.841 139.697 122.841 139.697C122.841 139.697 124.026 142.133 124.903 142.621C125.78 143.109 127.629 142.271 127.29 141.645C126.952 141.019 124.825 135.944 124.825 135.944Z" fill="#DD7C58"/>
<mask id="mask6" style="mask-type:alpha" maskUnits="userSpaceOnUse" x="115" y="135" width="23" height="17">
<path d="M124.825 135.944C124.825 135.944 131.205 139.032 132.907 139.49C134.409 139.819 135.937 140.026 137.473 140.107L137.907 148.572H135.91L128.927 151.293C128.927 151.293 126.709 146.417 126.244 146.495C126.013 146.584 125.802 146.719 125.625 146.892C125.448 147.064 125.308 147.271 125.214 147.5C125.12 147.728 125.073 147.973 125.077 148.22C125.081 148.466 125.136 148.71 125.237 148.935C124.369 149.496 123.892 149.958 122.737 149.479C121.583 149 119.369 148.252 118.661 147.419C117.954 146.585 115.853 145.108 115.979 144.111C116.105 143.113 122.841 139.697 122.841 139.697C122.841 139.697 124.026 142.133 124.903 142.621C125.78 143.109 127.629 142.271 127.29 141.645C126.952 141.019 124.825 135.944 124.825 135.944Z" fill="#DD7C58"/>
</mask>
<g mask="url(#mask6)">
<path d="M135.495 153.225L137.422 140.284L138.799 152.124L135.495 153.225Z" fill="#BB5536"/>
</g>
<path d="M143.672 163.315C143.672 163.315 141.111 169.202 141.185 170.51C141.259 171.819 142.348 175.153 143.121 175.719C143.392 175.917 143.481 175.742 143.481 175.742L146.884 164.697L145.465 164.093L143.672 163.315Z" fill="#DD7C58"/>
<mask id="mask7" style="mask-type:alpha" maskUnits="userSpaceOnUse" x="141" y="163" width="7" height="13">
<path d="M143.672 163.315C143.672 163.315 141.111 169.202 141.185 170.51C141.259 171.819 142.348 175.153 143.121 175.719C143.351 175.887 143.481 175.742 143.481 175.742L147.06 164.51L145.465 164.093L143.672 163.315Z" fill="#DD7C58"/>
</mask>
<g mask="url(#mask7)">
<path d="M143.531 177.256L145.918 163.315L147.863 164.071L143.531 177.256Z" fill="#BB5536"/>
</g>
<path d="M129.504 150.96C129.504 150.96 126.874 145.778 125.637 145.804C124.4 145.829 124.295 147.419 124.634 148.239C124.143 148.239 122.702 148.291 122.464 149.574C122.464 150.191 122.203 150.178 122.203 150.178C122.203 150.178 121.101 149.112 120.636 149.984C120.201 150.97 120.11 152.072 120.376 153.115C121.101 153.422 122.286 154.143 123.575 153.115C124.556 153.37 126.257 152.908 126.613 152.757C126.969 152.605 128.731 152.908 129.504 150.96Z" fill="#FAB187"/>
<path d="M152.291 105.667C152.291 105.667 152.039 111.471 151.627 122.453C151.215 133.436 152.66 135.483 152.968 136.51" stroke="#006BC2" stroke-width="0.651066" stroke-miterlimit="10" stroke-linecap="round"/>
<path d="M184.632 97.0291C184.632 97.0291 180.847 98.3635 178.925 101.132C177.735 103.494 166.216 133.56 166.216 133.56C166.216 133.56 165.847 134.221 163.429 134.692L148.498 137.581" stroke="#006BC2" stroke-width="0.651066" stroke-miterlimit="10" stroke-linecap="round"/>
<path d="M182.579 132.732C182.579 132.732 178.036 142.185 176.096 145.644C175.95 145.952 175.77 146.242 175.557 146.508C174.837 147.126 148.234 149.354 148.234 149.354" stroke="#006BC2" stroke-width="0.651066" stroke-miterlimit="10" stroke-linecap="round"/>
<path d="M152.969 148.878L153.668 171.633" stroke="#006BC2" stroke-width="0.651066" stroke-miterlimit="10" stroke-linecap="round"/>
<path d="M168.13 156.462V159.593C168.13 159.814 168.218 160.026 168.375 160.182C168.532 160.338 168.745 160.426 168.968 160.426H183.222C183.331 160.426 183.44 160.405 183.542 160.363C183.643 160.321 183.735 160.259 183.812 160.182C183.89 160.104 183.951 160.012 183.993 159.911C184.034 159.81 184.056 159.702 184.055 159.593V156.924C184.056 156.708 183.972 156.499 183.822 156.344C183.671 156.188 183.465 156.097 183.248 156.09L168.989 155.632C168.878 155.629 168.767 155.648 168.662 155.688C168.558 155.728 168.463 155.789 168.383 155.866C168.303 155.943 168.239 156.036 168.196 156.138C168.152 156.241 168.13 156.351 168.13 156.462Z" fill="#006BC2"/>
<path d="M35.6466 160.945C35.8067 160.898 35.977 160.898 36.1371 160.945C37.3871 161.295 43.0384 162.893 43.633 163.212C44.3058 163.571 46.7277 169.522 46.6713 169.829C46.6149 170.135 45.8032 171.422 45.5385 171.007C44.8679 170.31 44.1562 169.652 43.4073 169.038C43.2765 168.934 43.1181 168.869 42.9511 168.852C42.7842 168.835 42.6159 168.867 42.4666 168.943C42.3174 169.019 42.1936 169.137 42.1102 169.282C42.0267 169.427 41.9873 169.593 41.9967 169.759C42.1052 170.822 42.3135 171.958 42.6998 172.243L42.995 172.459C43.104 172.547 43.19 172.659 43.2455 172.788C43.301 172.916 43.3245 173.056 43.3138 173.195C43.3031 173.334 43.2587 173.469 43.1843 173.587C43.1098 173.706 43.0076 173.805 42.8864 173.875L37.6779 176.747C37.5348 176.83 37.3698 176.867 37.2048 176.855C36.6319 176.807 35.2733 176.522 34.1274 174.907C32.63 172.804 29.3529 166.451 28.971 164.754C28.6758 163.23 34.3965 161.338 35.6466 160.945Z" fill="#FAB187"/>
<mask id="mask8" style="mask-type:alpha" maskUnits="userSpaceOnUse" x="28" y="160" width="19" height="17">
<path d="M35.6466 160.945C35.8067 160.898 35.977 160.898 36.1371 160.945C37.3871 161.295 43.0384 162.893 43.633 163.212C44.3058 163.571 46.7277 169.522 46.6713 169.829C46.6401 169.998 46.3785 170.466 46.1059 170.782C45.7981 171.138 45.3765 170.834 45.0405 170.504C44.5185 169.992 43.9736 169.502 43.4073 169.038C43.2765 168.934 43.1181 168.869 42.9511 168.852C42.7842 168.835 42.6159 168.867 42.4666 168.943C42.3174 169.019 42.1936 169.137 42.1102 169.282C42.0267 169.427 41.9873 169.593 41.9967 169.759C42.1052 170.822 42.3135 171.958 42.6998 172.243L42.995 172.459C43.104 172.547 43.19 172.659 43.2455 172.788C43.301 172.916 43.3245 173.056 43.3138 173.195C43.3031 173.334 43.2587 173.469 43.1843 173.587C43.1098 173.706 43.0076 173.805 42.8864 173.875L37.6779 176.747C37.5348 176.83 37.3698 176.867 37.2048 176.855C36.6319 176.807 35.2733 176.522 34.1274 174.907C32.63 172.804 29.3529 166.451 28.971 164.754C28.6758 163.23 34.3965 161.338 35.6466 160.945Z" fill="#FAB187"/>
</mask>
<g mask="url(#mask8)">
<path d="M21.8162 166.377C21.6035 167.129 27.4197 171.383 30.827 165.432C32.242 162.966 35.1457 161.299 35.1457 161.299L33.2359 158.923L21.8162 166.377Z" fill="#F08B6B"/>
</g>
<path d="M26.9902 162.573L27.8149 164.581C27.8498 164.665 27.9021 164.74 27.9686 164.802C28.035 164.864 28.1139 164.912 28.2001 164.941C28.2863 164.971 28.3779 164.981 28.4686 164.973C28.5593 164.964 28.6472 164.937 28.7264 164.892L35.8968 160.863L36.6347 160.431C36.7732 160.353 36.8778 160.227 36.9283 160.077C36.9788 159.927 36.9716 159.764 36.9081 159.619L35.8361 157.213L26.9902 162.573Z" fill="#00A5EC"/>
<path d="M188.101 117.687C193.008 115.873 194.057 111.558 194.28 109.665L200.991 113.878C201.04 114.474 201.079 116.057 200.405 117.785C199.697 119.603 198.189 121.613 194.974 122.813C188.948 125.062 186.422 128.562 185.613 129.973L177.286 123.888C177.902 123.102 179.136 122.105 180.918 121.041C182.809 119.911 185.26 118.737 188.101 117.687ZM188.101 117.687L187.91 117.171M188.101 117.687L187.91 117.171M187.91 117.171C192.827 115.352 193.635 110.874 193.765 109.28L187.91 117.171Z" fill="#1DC1F6" stroke="#4CD3F4" stroke-width="1.10136"/>
<path d="M150.716 58.1681C150.764 58.1681 148.261 58.7337 147.693 54.9285C147.693 54.9285 148.121 58.124 144.389 58.0285C144.389 58.0285 147.6 58.0762 147.504 61.0367C147.504 61.0367 147.789 58.6859 150.716 58.1681Z" fill="#FBB043"/>
<path d="M32.0995 44.5178C32.0995 44.5178 32.619 48.2289 28.1123 48.1275C28.1123 48.1275 32.0086 48.1596 31.9021 51.6407C31.9021 51.6407 32.2658 48.9192 35.8218 48.318C35.8218 48.2858 32.832 48.9489 32.0995 44.5178Z" fill="#FBB043"/>
<path d="M116.221 108.789C116.263 108.789 114.085 109.297 113.59 105.884C113.59 105.884 113.963 108.75 110.715 108.664C110.715 108.664 113.51 108.707 113.426 111.363C113.426 111.363 113.674 109.254 116.221 108.789Z" fill="#FBB043"/>
<path d="M107.505 111.363C107.505 111.363 107.876 114.218 104.657 114.14C104.657 114.14 107.44 114.164 107.364 116.842C107.364 116.842 107.624 114.749 110.164 114.286C110.164 114.261 108.028 114.772 107.505 111.363Z" fill="#FBB043"/>
<path d="M17.8091 85.0632C17.8091 85.0632 18.5474 90.5727 12.1426 90.4221C12.1426 90.4221 17.6799 90.4699 17.5285 95.6378C17.5285 95.6378 18.0454 91.5975 23.0991 90.7049C23.0991 90.6572 18.8501 91.6416 17.8091 85.0632Z" fill="#FBB043"/>
<path d="M208.869 93.2817C208.869 93.2817 209.389 96.9928 204.882 96.8914C204.882 96.8914 208.778 96.9236 208.672 100.405C208.672 100.405 209.035 97.6831 212.591 97.0819C212.591 97.0497 209.602 97.7128 208.869 93.2817Z" fill="#FBB043"/>
<path d="M26.627 197.112L193.868 197.111" stroke="#484848" stroke-width="2.09" stroke-linecap="round"/>
<circle cx="191.416" cy="120.988" r="2.78053" transform="rotate(5.06404 191.416 120.988)" fill="#4BD8FB"/>
<path d="M190.958 121.319L192.579 121.748L193.127 121.316L191.409 120.923C191.546 120.661 191.596 120.362 191.552 120.069C191.548 120.046 191.543 120.024 191.538 120.001L192.025 119.618L191.715 119.228L191.341 119.524C191.288 119.44 191.228 119.36 191.162 119.286L191.53 118.996L191.221 118.607L189.758 119.759L190.067 120.148L190.774 119.592C190.843 119.664 190.902 119.744 190.951 119.831L190.252 120.381L190.562 120.771L191.062 120.377C191.031 120.579 190.949 120.77 190.822 120.93L190.958 121.319Z" fill="#00A5EC"/>
<circle cx="93.1581" cy="162.652" r="2.57738" transform="rotate(89.1143 93.1581 162.652)" fill="#4BD8FB"/>
<path d="M92.245 161.503L92.0042 163.031L92.4572 163.493L92.6552 161.879C92.9117 161.979 93.1935 161.997 93.4604 161.928C93.4815 161.923 93.5016 161.916 93.5221 161.909L93.9247 162.319L94.2554 161.998L93.9458 161.683C94.0185 161.626 94.0863 161.564 94.1486 161.496L94.453 161.806L94.7838 161.485L93.5745 160.253L93.2437 160.574L93.8278 161.169C93.7678 161.239 93.6992 161.301 93.6234 161.354L93.0461 160.766L92.7147 161.088L93.1275 161.508C92.9376 161.499 92.7532 161.442 92.592 161.341L92.245 161.503Z" fill="#00A5EC"/>
<path d="M54.5455 186.262L58.3037 183.162" stroke="#002966" stroke-width="0.550678" stroke-linecap="round"/>
<ellipse rx="2.25907" ry="2.25045" transform="matrix(0.988948 0.097881 -0.169332 0.991879 19.2476 141.479)" fill="#4BD8FB"/>
<path d="M18.8141 141.521L20.1028 141.881L20.5765 141.537L19.2068 141.206C19.3349 140.995 19.3951 140.755 19.3787 140.518C19.3772 140.5 19.3747 140.482 19.3719 140.463L19.7928 140.158L19.5668 139.841L19.2431 140.076C19.2058 140.008 19.1624 139.943 19.1136 139.883L19.4319 139.652L19.2059 139.336L17.9416 140.253L18.1676 140.569L18.7782 140.126C18.8295 140.185 18.8724 140.25 18.9061 140.321L18.3026 140.759L18.529 141.076L18.9606 140.763C18.9222 140.925 18.8427 141.078 18.7296 141.207L18.8141 141.521Z" fill="#00A5EC"/>
<circle cx="29.8285" cy="69.5872" r="2.57738" transform="rotate(115.653 29.8285 69.5872)" fill="#4BD8FB"/>
<path d="M29.1612 68.5345L28.2617 69.7956L28.4605 70.4113L29.3598 69.0547C29.5446 69.259 29.789 69.4002 30.0584 69.4583C30.0798 69.4627 30.1008 69.4657 30.1222 69.4687L30.2988 70.0158L30.7386 69.8757L30.6027 69.4549C30.6931 69.4368 30.7817 69.4113 30.8678 69.3784L31.0013 69.7921L31.4411 69.6521L30.9105 68.0087L30.4707 68.1487L30.727 68.9424C30.642 68.9784 30.5527 69.0034 30.4613 69.0168L30.208 68.2323L29.7673 68.3726L29.9485 68.9336C29.7825 68.8407 29.6432 68.7069 29.544 68.5449L29.1612 68.5345Z" fill="#00A5EC"/>
<mask id="path-104-inside-3" fill="white">
<path d="M96.1685 60.8672C96.1713 60.929 96.1908 60.989 96.2251 61.0406C96.2594 61.0922 96.3072 61.1335 96.3633 61.1602C96.4194 61.1869 96.4817 61.1979 96.5436 61.192C96.6055 61.1862 96.6647 61.1636 96.7147 61.1269C97.9885 60.184 101.456 58.109 105.39 59.8897C110.309 62.1223 108.91 63.8575 115.425 63.7128C115.505 63.7098 115.581 63.6798 115.642 63.6279C115.702 63.5759 115.743 63.505 115.757 63.4268C116.095 61.4516 116.61 56.8374 116.784 55.2562C116.791 55.201 116.783 55.1451 116.762 55.0934C116.742 55.0418 116.709 54.996 116.666 54.9602C116.623 54.9244 116.572 54.8997 116.517 54.8883C116.463 54.8769 116.406 54.8791 116.352 54.8948C115.266 55.1933 112.448 55.487 108.617 52.3703C104.155 48.7254 97.3452 51.0839 96.0157 51.5963C95.9484 51.6217 95.8907 51.6673 95.8506 51.7267C95.8105 51.7862 95.79 51.8566 95.7918 51.9281L96.1685 60.8672Z"/>
</mask>
<path d="M96.1685 60.8672C96.1713 60.929 96.1908 60.989 96.2251 61.0406C96.2594 61.0922 96.3072 61.1335 96.3633 61.1602C96.4194 61.1869 96.4817 61.1979 96.5436 61.192C96.6055 61.1862 96.6647 61.1636 96.7147 61.1269C97.9885 60.184 101.456 58.109 105.39 59.8897C110.309 62.1223 108.91 63.8575 115.425 63.7128C115.505 63.7098 115.581 63.6798 115.642 63.6279C115.702 63.5759 115.743 63.505 115.757 63.4268C116.095 61.4516 116.61 56.8374 116.784 55.2562C116.791 55.201 116.783 55.1451 116.762 55.0934C116.742 55.0418 116.709 54.996 116.666 54.9602C116.623 54.9244 116.572 54.8997 116.517 54.8883C116.463 54.8769 116.406 54.8791 116.352 54.8948C115.266 55.1933 112.448 55.487 108.617 52.3703C104.155 48.7254 97.3452 51.0839 96.0157 51.5963C95.9484 51.6217 95.8907 51.6673 95.8506 51.7267C95.8105 51.7862 95.79 51.8566 95.7918 51.9281L96.1685 60.8672Z" fill="#1DC1F6"/>
<path d="M96.1685 60.8672L95.0655 60.9142L95.0655 60.9159L96.1685 60.8672ZM96.7147 61.1269L97.3698 62.0108L97.3732 62.0082L96.7147 61.1269ZM105.39 59.8897L105.849 58.89L105.848 58.8895L105.39 59.8897ZM115.425 63.7128L115.449 64.8111L115.457 64.811L115.465 64.8107L115.425 63.7128ZM115.757 63.4268L116.843 63.6256L116.845 63.6178L116.846 63.6099L115.757 63.4268ZM116.784 55.2562L115.687 55.1324L115.687 55.1374L116.784 55.2562ZM116.352 54.8948L116.646 55.9538L116.654 55.9514L116.663 55.9489L116.352 54.8948ZM108.617 52.3703L107.916 53.2197L107.918 53.2211L108.617 52.3703ZM96.0157 51.5963L96.4068 52.6234L96.4137 52.6208L96.0157 51.5963ZM95.7918 51.9281L94.6881 51.9572L94.6884 51.9661L94.6887 51.9751L95.7918 51.9281ZM95.0655 60.9159C95.077 61.1768 95.1594 61.4295 95.3041 61.6472L97.1461 60.434C97.2222 60.5484 97.2655 60.6813 97.2716 60.8185L95.0655 60.9159ZM95.3041 61.6472C95.4487 61.8648 95.6501 62.0392 95.8866 62.1516L96.8399 60.1688C96.9643 60.2279 97.0701 60.3196 97.1461 60.434L95.3041 61.6472ZM95.8866 62.1516C96.1232 62.2641 96.3862 62.3105 96.6474 62.2857L96.4399 60.0983C96.5773 60.0853 96.7156 60.1097 96.8399 60.1688L95.8866 62.1516ZM96.6474 62.2857C96.9087 62.261 97.1584 62.166 97.3697 62.0108L96.0597 60.2431C96.171 60.1613 96.3024 60.1114 96.4399 60.0983L96.6474 62.2857ZM97.3732 62.0082C98.5743 61.1191 101.58 59.3722 104.932 60.8898L105.848 58.8895C101.333 56.8458 97.4027 59.2489 96.0563 60.2456L97.3732 62.0082ZM104.931 60.8893C107.315 61.9715 107.896 62.7701 109.209 63.6154C110.556 64.4825 112.094 64.8857 115.449 64.8111L115.401 62.6144C112.241 62.6846 111.221 62.2926 110.409 61.7701C109.564 61.2258 108.384 60.0405 105.849 58.89L104.931 60.8893ZM115.465 64.8107C115.796 64.7983 116.113 64.6743 116.363 64.4589L114.92 62.7968C115.05 62.6854 115.214 62.6212 115.385 62.6149L115.465 64.8107ZM116.363 64.4589C116.614 64.2434 116.783 63.9495 116.843 63.6256L114.672 63.2279C114.703 63.0604 114.791 62.9083 114.92 62.7968L116.363 64.4589ZM116.846 63.6099C117.19 61.5946 117.709 56.9405 117.882 55.375L115.687 55.1374C115.511 56.7343 114.999 61.3086 114.669 63.2437L116.846 63.6099ZM117.881 55.38C117.908 55.1446 117.876 54.9063 117.788 54.6863L115.737 55.5005C115.69 55.3839 115.673 55.2574 115.687 55.1324L117.881 55.38ZM117.788 54.6863C117.7 54.4664 117.559 54.2716 117.377 54.1192L115.955 55.8012C115.858 55.7205 115.783 55.6172 115.737 55.5005L117.788 54.6863ZM117.377 54.1192C117.195 53.9669 116.978 53.8617 116.745 53.8131L116.29 55.9636C116.166 55.9378 116.051 55.882 115.955 55.8012L117.377 54.1192ZM116.745 53.8131C116.512 53.7644 116.271 53.7739 116.042 53.8407L116.663 55.9489C116.541 55.9844 116.413 55.9894 116.29 55.9636L116.745 53.8131ZM116.059 53.8358C115.321 54.0387 112.872 54.4123 109.317 51.5195L107.918 53.2211C112.024 56.5616 115.212 56.3478 116.646 55.9538L116.059 53.8358ZM109.318 51.5209C106.773 49.4416 103.616 49.12 101.053 49.3293C98.4763 49.5396 96.3295 50.2975 95.6177 50.5718L96.4137 52.6208C97.0314 52.3827 98.9544 51.7051 101.231 51.5193C103.52 51.3324 106 51.654 107.916 53.2197L109.318 51.5209ZM95.6246 50.5692C95.3433 50.6755 95.102 50.8662 94.9342 51.1149L96.7671 52.3386C96.6795 52.4684 96.5536 52.5679 96.4067 52.6234L95.6246 50.5692ZM94.9342 51.1149C94.7664 51.3636 94.6804 51.658 94.6881 51.9572L96.8955 51.8991C96.8995 52.0552 96.8547 52.2088 96.7671 52.3386L94.9342 51.1149ZM94.6887 51.9751L95.0655 60.9142L97.2716 60.8203L96.8949 51.8812L94.6887 51.9751Z" fill="#4CD3F4" mask="url(#path-104-inside-3)"/>
<circle cx="106.969" cy="56.421" r="2.57738" transform="rotate(65.7278 106.969 56.421)" fill="#4BD8FB"/>
<path d="M105.999 56.1953L106.385 57.6931L106.983 57.9371L106.524 56.378C106.799 56.3681 107.065 56.2722 107.282 56.1038C107.299 56.0903 107.315 56.0762 107.331 56.0617L107.863 56.2785L108.039 55.8525L107.63 55.6858C107.674 55.6052 107.712 55.521 107.742 55.4342L108.144 55.5981L108.32 55.1721L106.722 54.5209L106.546 54.9469L107.318 55.2614C107.291 55.3495 107.252 55.4338 107.204 55.5122L106.441 55.2014L106.265 55.6281L106.81 55.8504C106.633 55.9175 106.441 55.9378 106.253 55.9096L105.999 56.1953Z" fill="#00A5EC"/>
<ellipse rx="2.58365" ry="2.58366" transform="matrix(0.968672 -0.248367 0.248426 0.968645 201.645 46.2179)" fill="#4BD8FB"/>
<path d="M201.533 46.9496L203.087 46.8239L203.434 46.2759L201.807 46.4632C201.845 46.1907 201.796 45.9133 201.667 45.6704C201.657 45.6513 201.646 45.6333 201.634 45.6151L201.942 45.1281L201.55 44.8827L201.313 45.2573C201.241 45.2 201.164 45.1489 201.083 45.1044L201.316 44.7362L200.924 44.4908L199.998 45.9537L200.39 46.199L200.837 45.4925C200.92 45.5342 200.997 45.5862 201.066 45.6473L200.624 46.3456L201.017 46.5914L201.333 46.092C201.369 46.2784 201.355 46.4709 201.294 46.6509L201.533 46.9496Z" fill="#00A5EC"/>
<ellipse rx="2.92272" ry="2.91762" transform="matrix(0.974505 0.211342 -0.243927 0.972725 148.361 25.634)" fill="#4BD8FB"/>
<path d="M147.729 26.4162L149.349 27.0734L149.992 26.6981L148.265 26.0656C148.451 25.8114 148.552 25.5083 148.554 25.1994C148.554 25.1749 148.553 25.1512 148.551 25.1271L149.122 24.7936L148.863 24.3496L148.424 24.6062C148.383 24.5123 148.334 24.4221 148.277 24.3367L148.709 24.0845L148.45 23.6405L146.735 24.6425L146.993 25.0864L147.822 24.6025C147.882 24.686 147.931 24.777 147.967 24.8733L147.148 25.3516L147.407 25.7964L147.993 25.4543C147.927 25.6593 147.81 25.8458 147.652 25.9958L147.729 26.4162Z" fill="#00A5EC"/>
<path d="M103.5 143.5L109.5 131.5" stroke="#00489A" stroke-width="0.440542" stroke-linecap="round"/>
<ellipse rx="2.53678" ry="2.53235" transform="matrix(0.292388 0.953328 -0.967716 0.263097 138.769 120.924)" fill="#4BD8FB"/>
<path d="M137.807 120.229L137.994 121.728L138.553 122.052L138.301 120.484C138.573 120.516 138.847 120.463 139.083 120.334C139.102 120.323 139.119 120.312 139.137 120.301L139.633 120.589L139.861 120.206L139.48 119.984C139.534 119.913 139.581 119.838 139.622 119.759L139.998 119.977L140.226 119.593L138.735 118.727L138.507 119.111L139.227 119.529C139.189 119.61 139.14 119.685 139.082 119.753L138.37 119.34L138.142 119.724L138.651 120.019C138.467 120.057 138.275 120.048 138.094 119.993L137.807 120.229Z" fill="#00A5EC"/>
<path d="M124.757 149.096L126.5 152.5M122.555 150.197C122.647 150.931 122.839 151.899 123.5 153M121.453 149.922C120.627 150.472 119.458 151.518 121 153.5" stroke="#DD7C58" stroke-width="0.550678" stroke-linecap="round"/>
<path d="M42.4307 82.4636L52.3429 119.91" stroke="#00489A" stroke-width="0.440542" stroke-linecap="round"/>
</g>
<defs>
<clipPath id="clip0">
<rect width="224" height="198" fill="white"/>
</clipPath>
</defs>
</svg>
