<svg width="224" height="198" viewBox="0 0 224 198" fill="none" xmlns="http://www.w3.org/2000/svg">
<g clip-path="url(#clip0)">
<path fill-rule="evenodd" clip-rule="evenodd" d="M47.0938 32.7888C47.0938 31.8009 47.8946 31 48.8825 31H165.506C166.493 31 167.294 31.8009 167.294 32.7888V68.556C167.294 69.5439 166.493 70.3447 165.506 70.3447H48.8825C47.8946 70.3447 47.0938 69.5439 47.0938 68.556V32.7888ZM50.6713 34.5775V66.7672H163.717V34.5775H50.6713Z" fill="#00A5EC"/>
<path d="M63.2791 42.3088H60.2848L56.5547 44.6704V47.4956L60.0052 45.3326H60.0935V57.3763H63.2791V42.3088Z" fill="#1DC1F6"/>
<path d="M69.507 55.3163H66.9173L66.8805 56.1403C66.7922 58.1414 66.2183 60.1941 66.005 61.0548H68.0355C68.3887 60.1646 69.2274 58.0752 69.4261 56.1255L69.507 55.3163Z" fill="#1DC1F6"/>
<path d="M77.6238 57.7073C81.4127 57.7073 83.7008 54.8233 83.7082 49.8572C83.7155 44.9279 81.398 42.1028 77.6238 42.1028C73.8422 42.1028 71.5468 44.9206 71.5394 49.8572C71.5247 54.8086 73.8275 57.7 77.6238 57.7073ZM77.6238 55.0661C75.8948 55.0661 74.7766 53.3298 74.7839 49.8572C74.7913 46.4362 75.9022 44.7146 77.6238 44.7146C79.338 44.7146 80.4563 46.4362 80.4563 49.8572C80.4636 53.3298 79.3454 55.0661 77.6238 55.0661Z" fill="#1DC1F6"/>
<path d="M91.8875 57.7073C95.6764 57.7073 97.9645 54.8233 97.9719 49.8572C97.9792 44.9279 95.6617 42.1028 91.8875 42.1028C88.1059 42.1028 85.8105 44.9206 85.8031 49.8572C85.7884 54.8086 88.0912 57.7 91.8875 57.7073ZM91.8875 55.0661C90.1586 55.0661 89.0403 53.3298 89.0476 49.8572C89.055 46.4362 90.1659 44.7146 91.8875 44.7146C93.6017 44.7146 94.72 46.4362 94.72 49.8572C94.7274 53.3298 93.6091 55.0661 91.8875 55.0661Z" fill="#1DC1F6"/>
<path d="M106.151 57.7073C109.94 57.7073 112.228 54.8233 112.236 49.8572C112.243 44.9279 109.925 42.1028 106.151 42.1028C102.37 42.1028 100.074 44.9206 100.067 49.8572C100.052 54.8086 102.355 57.7 106.151 57.7073ZM106.151 55.0661C104.422 55.0661 103.304 53.3298 103.311 49.8572C103.319 46.4362 104.43 44.7146 106.151 44.7146C107.865 44.7146 108.984 46.4362 108.984 49.8572C108.991 53.3298 107.873 55.0661 106.151 55.0661Z" fill="#1DC1F6"/>
<path d="M117.316 55.3163H114.726L114.689 56.1403C114.601 58.1414 114.027 60.1941 113.814 61.0548H115.844C116.197 60.1646 117.036 58.0752 117.235 56.1255L117.316 55.3163Z" fill="#1DC1F6"/>
<path d="M125.432 57.7073C129.221 57.7073 131.51 54.8233 131.517 49.8572C131.524 44.9279 129.207 42.1028 125.432 42.1028C121.651 42.1028 119.355 44.9206 119.348 49.8572C119.333 54.8086 121.636 57.7 125.432 57.7073ZM125.432 55.0661C123.704 55.0661 122.585 53.3298 122.593 49.8572C122.6 46.4362 123.711 44.7146 125.432 44.7146C127.147 44.7146 128.265 46.4362 128.265 49.8572C128.272 53.3298 127.154 55.0661 125.432 55.0661Z" fill="#1DC1F6"/>
<path d="M139.696 57.7073C143.485 57.7073 145.773 54.8233 145.781 49.8572C145.788 44.9279 143.47 42.1028 139.696 42.1028C135.915 42.1028 133.619 44.9206 133.612 49.8572C133.597 54.8086 135.9 57.7 139.696 57.7073ZM139.696 55.0661C137.967 55.0661 136.849 53.3298 136.856 49.8572C136.864 46.4362 137.975 44.7146 139.696 44.7146C141.41 44.7146 142.529 46.4362 142.529 49.8572C142.536 53.3298 141.418 55.0661 139.696 55.0661Z" fill="#1DC1F6"/>
<path d="M153.96 57.7073C157.749 57.7073 160.037 54.8233 160.044 49.8572C160.052 44.9279 157.734 42.1028 153.96 42.1028C150.178 42.1028 147.883 44.9206 147.876 49.8572C147.861 54.8086 150.164 57.7 153.96 57.7073ZM153.96 55.0661C152.231 55.0661 151.113 53.3298 151.12 49.8572C151.127 46.4362 152.238 44.7146 153.96 44.7146C155.674 44.7146 156.792 46.4362 156.792 49.8572C156.8 53.3298 155.681 55.0661 153.96 55.0661Z" fill="#1DC1F6"/>
<path d="M186.047 183.303L184.72 196.48H195.055C195.055 196.48 197.658 181.617 197.066 180.027C196.474 178.437 186.047 183.303 186.047 183.303Z" fill="#FAB187"/>
<mask id="mask0" style="mask-type:alpha" maskUnits="userSpaceOnUse" x="184" y="179" width="14" height="18">
<path d="M186.047 183.303L184.72 196.48H195.055C195.055 196.48 197.658 181.617 197.066 180.027C196.474 178.437 186.047 183.303 186.047 183.303Z" fill="#FAB187"/>
</mask>
<g mask="url(#mask0)">
<path d="M197.726 180.218C197.726 180.218 188.465 177.356 183.85 178.29C179.235 179.225 185.654 185.155 185.654 185.155L197.726 180.218Z" fill="#F08B6B"/>
</g>
<path d="M143.533 108.167C143.533 108.167 138.016 92.3343 154.067 88.9118C154.886 88.7325 155.731 88.6975 156.563 88.8084C162.303 89.6034 169.219 94.8624 170.265 98.4359C170.809 100.288 171.203 102.212 170.996 104.148C170.924 105.012 170.745 105.864 170.464 106.684C170.066 107.674 169.76 108.497 170.066 109.582C170.28 110.192 170.526 110.79 170.802 111.375C170.856 111.546 170.934 111.709 171.032 111.86C171.146 111.998 171.28 112.118 171.43 112.217C174.828 114.849 178.644 117.949 179.737 122.334C180.594 125.843 180.921 129.46 180.707 133.066C180.707 133.066 180.21 137.339 183.887 137.149C184.635 137.149 185.358 136.885 185.93 136.405C186.023 136.329 186.135 136.28 186.254 136.264C186.372 136.247 186.493 136.263 186.604 136.31C186.714 136.357 186.809 136.433 186.879 136.531C186.949 136.628 186.99 136.743 187 136.862C187.222 139.379 186.109 143.401 181.713 143.481C176.235 143.572 160.367 129.262 160.367 129.262C160.367 129.262 149.03 108.437 148.653 108.342C148.275 108.246 143.533 108.167 143.533 108.167Z" fill="#001E4A"/>
<path d="M110.208 68.071C110.208 68.071 110.872 64.891 112.176 64.8075C112.673 64.7876 112.847 66.7752 112.847 66.7752C112.847 66.7752 113.452 70.2096 113.877 72.05C114.302 73.8904 116.004 78.0125 115.435 81.117C116.568 84.945 121.529 108.89 121.529 108.89L125.635 113.752L119.545 124.965L113.452 117.532C113.037 116.295 112.705 115.033 112.458 113.752C112.037 111.566 110.208 68.071 110.208 68.071Z" fill="#FAB187"/>
<mask id="mask1" style="mask-type:alpha" maskUnits="userSpaceOnUse" x="110" y="64" width="16" height="61">
<path d="M110.208 68.071C110.208 68.071 110.872 64.891 112.176 64.8075C112.673 64.7876 112.847 66.7752 112.847 66.7752C112.847 66.7752 113.452 70.2096 113.877 72.05C114.302 73.8904 116.004 78.0125 115.435 81.117C116.568 84.945 121.529 108.89 121.529 108.89L125.635 113.752L119.545 124.965L113.452 117.532C113.037 116.295 112.705 115.033 112.458 113.752C112.037 111.566 110.208 68.071 110.208 68.071Z" fill="#FAB187"/>
</mask>
<g mask="url(#mask1)">
<path d="M125.226 110.095L113.36 125.927L121.529 131.612L125.226 110.095Z" fill="#F08B6B"/>
<path d="M111.81 78.33L110.188 67.1555H108.888L110.188 87.7025C111.709 84.8294 112.277 81.5471 111.81 78.33Z" fill="#F08B6B"/>
</g>
<path d="M44.5439 96.0393C44.5439 96.0393 48.984 88.7054 42.8466 87.3856C36.7092 86.0659 34.8966 90.6889 34.8966 90.6889C34.8966 90.6889 19.8909 98.154 22.252 112.885C23.2935 116.57 25.4639 120.35 30.4724 122.425C35.4809 124.5 40.7677 124.834 41.7575 125.522C41.3797 122.904 40.1021 120.499 38.1442 118.721C38.1442 118.721 31.3866 120.442 32.5791 113.736C34.0459 111.951 34.825 110.898 36.2004 111.82C37.5757 112.742 41.8966 117.234 41.8966 117.234L44.1623 116.097L41.2407 108.827L38.8795 102.864L45.017 96.1903L44.5439 96.0393Z" fill="#001E4A"/>
<path d="M45.0186 96.1899C45.0186 96.1899 49.7886 98.7856 53.0123 102.82C53.0347 102.851 53.0649 102.876 53.0998 102.892C54.8965 103.81 58.1799 104.231 58.4263 106.604C58.4363 106.645 58.4363 106.687 58.4263 106.728C58.2469 107.342 57.9791 107.927 57.6313 108.465C57.6016 108.501 57.5822 108.544 57.5752 108.59C57.5682 108.637 57.5738 108.684 57.5916 108.727C58.16 110.146 59.0146 110.965 58.1004 111.605C57.2537 112.197 54.0617 113.545 53.39 113.835C53.3501 113.851 53.315 113.877 53.2879 113.91C53.2608 113.944 53.2426 113.984 53.2349 114.026C53.1634 114.423 53.6762 115.616 54.984 115.878C57.6502 116.312 58.164 116.164 58.5297 116.208C59.1776 116.296 59.2809 120.907 56.1447 122.417C55.3001 122.938 54.3268 123.214 53.3343 123.212L52.5393 123.284C51.6682 123.334 52.3326 123.753 52.6069 124.17C53.3502 125.307 54.6779 127.155 55.7034 127.605C57.0947 128.213 47.821 132.136 46.3144 132.772C46.2574 132.797 46.1931 132.801 46.1338 132.782C46.0744 132.763 46.0242 132.722 45.9925 132.669C45.5155 131.909 43.6671 128.928 41.771 125.514C40.1174 122.532 38.6347 119.643 38.2531 118.895C38.227 118.843 38.1841 118.802 38.1315 118.777C38.0788 118.753 38.0195 118.747 37.9629 118.76C36.8817 119.003 31.7102 119.881 32.4178 114.141C32.4217 113.971 32.4813 113.814 32.4217 113.971C32.3874 114.061 34.0078 109.987 36.6234 111.875C38.4717 113.203 40.2009 114.447 41.1549 115.131C41.2012 115.165 41.2575 115.183 41.3152 115.183C41.3729 115.182 41.4286 115.162 41.4739 115.126C41.5191 115.09 41.5513 115.041 41.5655 114.985C41.5797 114.929 41.5751 114.87 41.5524 114.817C40.6222 112.563 38.0544 106.426 36.834 104.247C36.8102 104.209 36.7977 104.165 36.7983 104.12C36.8221 102.618 39.7716 97.5931 43.8857 96.1899C44.7364 95.8362 45.0186 96.1899 45.0186 96.1899Z" fill="#DD7C58"/>
<mask id="mask2" style="mask-type:alpha" maskUnits="userSpaceOnUse" x="32" y="96" width="27" height="37">
<path d="M45.0186 96.1899C45.0186 96.1899 49.7886 98.7856 53.0123 102.82C53.0347 102.851 53.0649 102.876 53.0998 102.892C54.8965 103.81 58.1799 104.231 58.4263 106.604C58.4363 106.645 58.4363 106.687 58.4263 106.728C58.2469 107.342 57.9791 107.927 57.6313 108.465C57.6016 108.501 57.5822 108.544 57.5752 108.59C57.5682 108.637 57.5738 108.684 57.5916 108.727C58.16 110.146 59.0146 110.965 58.1004 111.605C57.2537 112.197 54.0617 113.545 53.39 113.835C53.3501 113.851 53.315 113.877 53.2879 113.91C53.2608 113.944 53.2426 113.984 53.2349 114.026C53.1634 114.423 53.6762 115.616 54.984 115.878C57.6502 116.312 58.164 116.164 58.5297 116.208C59.1776 116.296 59.2809 120.907 56.1447 122.417C55.3001 122.938 54.3268 123.214 53.3343 123.212L52.5393 123.284C51.6682 123.334 52.3326 123.753 52.6069 124.17C53.3502 125.307 54.6779 127.155 55.7034 127.605C57.0947 128.213 47.821 132.136 46.3144 132.772C46.2574 132.797 46.1931 132.801 46.1338 132.782C46.0744 132.763 46.0242 132.722 45.9925 132.669C45.5155 131.909 43.6671 128.928 41.771 125.514C40.1174 122.532 38.6347 119.643 38.2531 118.895C38.227 118.843 38.1841 118.802 38.1315 118.777C38.0788 118.753 38.0195 118.747 37.9629 118.76C36.8817 119.003 31.7102 119.881 32.4178 114.141C32.4217 113.971 32.4813 113.814 32.4217 113.971C32.3874 114.061 34.0078 109.987 36.6234 111.875C38.4717 113.203 40.2009 114.447 41.1549 115.131C41.2012 115.165 41.2575 115.183 41.3152 115.183C41.3729 115.182 41.4286 115.162 41.4739 115.126C41.5191 115.09 41.5513 115.041 41.5655 114.985C41.5797 114.929 41.5751 114.87 41.5524 114.817C40.6222 112.563 38.0544 106.426 36.834 104.247C36.8102 104.209 36.7977 104.165 36.7983 104.12C36.8221 102.618 39.7716 97.5931 43.8857 96.1899C44.7364 95.8362 45.0186 96.1899 45.0186 96.1899Z" fill="#DD7C58"/>
</mask>
<g mask="url(#mask2)">
<path d="M53.0504 123.371C50.4767 123.673 47.8767 123.673 45.3031 123.371C41.4791 122.85 47.9743 127.394 53.6784 125.712C59.3826 124.031 54.5609 123.466 54.5609 123.466" fill="#BB5536"/>
</g>
<path d="M30.6128 170.876C30.6128 170.876 27.071 186.947 33.5901 189.603C40.1091 192.258 42.4703 189.603 42.4703 189.603L41.9018 171.369L30.6128 170.876Z" fill="#DD7C58"/>
<mask id="mask3" style="mask-type:alpha" maskUnits="userSpaceOnUse" x="29" y="170" width="14" height="21">
<path d="M30.6128 170.876C30.6128 170.876 27.071 186.947 33.5901 189.603C40.1091 192.258 42.4703 189.603 42.4703 189.603L41.9018 171.369L30.6128 170.876Z" fill="#DD7C58"/>
</mask>
<g mask="url(#mask3)">
<path d="M28.8086 170.877L29.4883 171.21L46.6763 179.709L45.293 164.914H32.3225" fill="#BB5536"/>
</g>
<path d="M39.14 114.643C39.4872 114.859 39.6492 115.27 39.569 115.671L39.301 117.011C39.2267 117.382 38.9583 117.684 38.5888 117.768C37.1792 118.087 33.7388 118.556 33.7189 115.532C33.6931 111.616 37.6476 113.713 39.14 114.643Z" fill="#BB5536"/>
<path d="M80.866 114.372C81.7139 113.687 82.4595 112.883 83.0801 111.987C84.213 110.417 95.2675 97.192 101.31 91.619C103.297 89.3533 104.617 86.7059 104.617 86.1415C104.69 83.9282 104.88 81.7204 105.185 79.527C105.563 77.1659 105.94 72.8212 105.94 72.8212C105.94 72.8212 106.791 72.6344 106.883 73.3896C107.654 70.0824 108.584 67.5344 109.268 67.4271C109.951 67.3198 110.206 68.7627 110.206 68.7627C110.206 68.7627 110.754 83.4981 110.929 84.7701C111.307 87.5089 93.753 116.403 92.811 117.914C91.8689 119.424 89.2811 122.481 85.2584 124.715C80.9416 127.084 77.4515 117.337 80.866 114.372Z" fill="#DD7C58"/>
<mask id="mask4" style="mask-type:alpha" maskUnits="userSpaceOnUse" x="79" y="67" width="32" height="59">
<path d="M80.866 114.372C81.7139 113.687 82.4595 112.883 83.0801 111.987C84.213 110.417 95.2675 97.192 101.31 91.619C103.297 89.3533 104.617 86.7059 104.617 86.1415C104.69 83.9282 104.88 81.7204 105.185 79.527C105.563 77.1659 105.94 72.8212 105.94 72.8212C105.94 72.8212 106.791 72.6344 106.883 73.3896C107.654 70.0824 108.584 67.5344 109.268 67.4271C109.951 67.3198 110.206 68.7627 110.206 68.7627C110.206 68.7627 110.754 83.4981 110.929 84.7701C111.307 87.5089 93.753 116.403 92.811 117.914C91.8689 119.424 89.2811 122.481 85.2584 124.715C80.9416 127.084 77.4515 117.337 80.866 114.372Z" fill="#DD7C58"/>
</mask>
<g mask="url(#mask4)">
<path d="M78.1055 114.137L91.6285 124.528L78.1055 129.242V114.137Z" fill="#BB5536"/>
</g>
<path d="M81.4209 115.429L87.5146 127.021C87.7287 127.42 87.7875 127.885 87.6797 128.325C87.5718 128.765 87.3049 129.15 86.9303 129.406C83.1063 132.037 72.3459 139.502 70.3306 141.514C71.2767 144.725 78.3386 177.365 78.7163 179.254C76.2597 185.486 71.8451 193.276 71.8451 193.276H46.3414C46.3414 193.276 44.4532 195.924 46.3414 196.488H39.9177C39.9177 196.488 41.0034 188.617 39.9177 184.022C39.3493 181.001 38.5941 173.441 38.5941 173.441C38.5941 173.441 33.2119 172.57 29.849 170.44C29.4654 170.191 29.165 169.833 28.9865 169.413C28.808 168.992 28.7595 168.527 28.8473 168.079C30.2465 160.602 35.6049 138.663 44.7871 130.745C45.92 132.256 47.0966 131.882 47.0966 131.882C47.0966 131.882 60.6991 123.757 66.5543 121.114C70.7877 119.202 76.2017 116.205 78.8769 114.69C79.0914 114.567 79.3285 114.489 79.574 114.459C79.8196 114.43 80.0685 114.45 80.3059 114.519C80.5434 114.588 80.7645 114.705 80.9561 114.861C81.1476 115.017 81.3057 115.211 81.4209 115.429Z" fill="#23A2DB"/>
<mask id="mask5" style="mask-type:alpha" maskUnits="userSpaceOnUse" x="28" y="114" width="60" height="83">
<path d="M81.4209 115.429L87.5146 127.021C87.7287 127.42 87.7875 127.885 87.6797 128.325C87.5718 128.765 87.3049 129.15 86.9303 129.406C83.1063 132.037 72.3459 139.502 70.3306 141.514C71.2767 144.725 78.0779 177.221 78.4555 179.109C75.999 185.342 71.8451 193.276 71.8451 193.276H46.3414C46.3414 193.276 44.4532 195.924 46.3414 196.488H39.9177C39.9177 196.488 40.7434 192.778 39.9177 184.022C39.3493 181.001 38.5941 173.441 38.5941 173.441C38.5941 173.441 33.2119 172.57 29.849 170.44C29.4654 170.191 29.165 169.833 28.9865 169.413C28.808 168.992 28.7595 168.527 28.8473 168.079C30.2465 160.602 35.6049 138.663 44.7871 130.745C45.92 132.256 47.0966 131.882 47.0966 131.882C47.0966 131.882 60.6991 123.757 66.5543 121.114C70.7877 119.202 76.2017 116.205 78.8769 114.69C79.0914 114.567 79.3285 114.489 79.574 114.459C79.8196 114.43 80.0685 114.45 80.3059 114.519C80.5434 114.588 80.7645 114.705 80.9561 114.861C81.1476 115.017 81.3057 115.211 81.4209 115.429Z" fill="#23A2DB"/>
</mask>
<g mask="url(#mask5)">
<path d="M61.7959 149.257C64.0282 146.412 66.6342 143.881 69.5432 141.732C74.4961 138.039 78.1094 145.806 78.1094 145.806L61.7959 149.257Z" fill="#006BC2"/>
</g>
<path d="M118.119 126.901L133.622 143.33C133.952 143.679 134.166 144.122 134.234 144.598C134.786 148.422 137.37 166.433 138.38 168.202L181.972 168.59C181.972 168.59 183.58 168.23 183.437 169.649C183.294 171.068 182.069 180.147 182.069 180.147L183.743 182.814C183.896 183.098 184.143 183.32 184.441 183.443C184.74 183.566 185.071 183.583 185.38 183.49L197.067 180.02C197.258 179.963 197.435 179.866 197.586 179.735C197.737 179.604 197.859 179.443 197.942 179.261C198.026 179.08 198.069 178.883 198.071 178.683C198.072 178.484 198.031 178.286 197.949 178.104L182.018 142.018C182.018 142.018 177.248 132.526 164.877 129.974C155.381 131.393 150.281 129.266 150.281 129.266C150.281 129.266 144.951 129.736 143.623 128.984C137.99 125.804 129.615 116.419 126.252 112.512C126.091 112.325 125.885 112.182 125.655 112.094C125.424 112.007 125.175 111.978 124.931 112.011C124.686 112.044 124.454 112.137 124.254 112.282C124.055 112.427 123.894 112.619 123.788 112.842L117.853 125.232C117.722 125.504 117.678 125.81 117.726 126.108C117.773 126.406 117.91 126.683 118.119 126.901Z" fill="#23A2DB"/>
<path d="M164.883 129.978C164.883 129.978 160.662 138.72 160.285 168.33H147.378C147.378 168.33 145.612 133.758 150.286 129.25C150.994 129.25 145.02 138.62 154.464 140.226C157.012 140.154 160.729 138.274 164.883 129.978Z" fill="#E7E8E9"/>
<path d="M171.188 158.622L171.895 167.891L177.027 168.519L171.188 158.622Z" fill="#006BC2"/>
<path d="M71.8461 193.268L85.6354 165.312C85.6354 165.312 86.013 163.798 88.2788 163.893C90.5446 163.988 109.533 163.893 109.533 163.893C109.533 163.893 111.521 164.465 110.761 166.354C110.002 168.242 97.4412 194.314 97.4412 194.314C97.0385 194.744 96.5145 195.042 95.9387 195.168C95.9387 196.488 95.561 196.488 95.561 196.488H46.3424C46.3424 196.488 43.9812 194.978 46.3424 193.276C49.3634 193.181 71.8461 193.268 71.8461 193.268Z" fill="#001E4A"/>
<mask id="mask6" style="mask-type:alpha" maskUnits="userSpaceOnUse" x="45" y="163" width="66" height="34">
<path d="M71.8461 193.268L85.6354 165.312C85.6354 165.312 86.013 163.798 88.2788 163.893C90.5446 163.988 109.533 163.893 109.533 163.893C109.533 163.893 111.521 164.465 110.761 166.354C110.002 168.242 97.4412 194.314 97.4412 194.314C97.0385 194.744 96.5145 195.042 95.9387 195.168C95.9387 196.488 95.561 196.488 95.561 196.488H46.3424C46.3424 196.488 43.9812 194.978 46.3424 193.276C49.3634 193.181 71.8461 193.268 71.8461 193.268Z" fill="#001E4A"/>
</mask>
<g mask="url(#mask6)">
<path d="M72.715 194.248L87.6702 163.306L53.3764 176.843L42.9336 194.248H72.715Z" fill="#006BC2"/>
</g>
<path d="M134.283 168.238C134.283 168.238 131.353 168.142 131.54 170.976C131.727 173.811 135.415 194.119 135.415 194.119C135.488 194.35 135.645 194.546 135.854 194.668C136.064 194.79 136.311 194.83 136.548 194.779C136.332 195.001 136.168 195.27 136.07 195.564C135.971 195.859 135.94 196.172 135.98 196.48H179.415C179.415 196.48 179.697 195.16 179.415 194.89C180.17 194.703 179.983 194.795 180.266 193.38C180.548 191.964 183.446 169.673 183.446 169.673C183.446 169.673 183.68 167.828 181.601 167.828C179.522 167.828 134.283 168.238 134.283 168.238Z" fill="#001E4A"/>
<path d="M152.487 99.8037C152.376 99.6248 148.512 103.632 143.488 105.261C143.634 108.058 143.618 110.861 143.44 113.657C143.158 118.427 146.183 122.688 152.133 124.528C152.133 124.56 152.161 124.596 152.173 124.632C152.511 125.474 152.765 127.414 151.493 128.71L150.301 129.274C150.301 129.274 145.157 140.925 155.961 140.238C155.961 140.238 159.837 140.468 164.869 129.982C161.395 129.914 161.646 127.116 161.785 122.429C162.58 120.096 164.09 116.658 164.09 116.658C164.09 116.658 168.765 117.453 168.693 112.619C168.693 112.619 168.339 109.705 165.513 110.771C164.591 111.343 163.883 112.834 163.883 112.834C163.883 112.834 162.937 107.797 160.767 106.525C158.422 105.154 157.19 104.295 157.19 104.295C157.19 104.295 153.548 101.577 152.487 99.8037Z" fill="#FAB187"/>
<mask id="mask7" style="mask-type:alpha" maskUnits="userSpaceOnUse" x="143" y="99" width="26" height="42">
<path d="M152.487 99.8037C152.376 99.6248 148.512 103.632 143.488 105.261C143.634 108.058 143.618 110.861 143.44 113.657C143.158 118.427 146.183 122.688 152.133 124.528C152.133 124.56 152.161 124.596 152.173 124.632C152.511 125.474 152.765 127.414 151.493 128.71L150.301 129.274C150.301 129.274 145.157 140.925 155.961 140.238C155.961 140.238 159.837 140.468 164.869 129.982C161.395 129.914 161.646 127.116 161.785 122.429C162.58 120.096 164.09 116.658 164.09 116.658C164.09 116.658 168.765 117.453 168.693 112.619C168.693 112.619 168.339 109.705 165.513 110.771C164.591 111.343 163.883 112.834 163.883 112.834C163.883 112.834 162.937 107.797 160.767 106.525C158.422 105.154 157.19 104.295 157.19 104.295C157.19 104.295 153.548 101.577 152.487 99.8037Z" fill="#FAB187"/>
</mask>
<g mask="url(#mask7)">
<path d="M151.385 124.262C151.751 124.441 153.77 125.196 158.835 123.248C158.857 123.235 158.883 123.232 158.908 123.239C158.932 123.245 158.953 123.262 158.966 123.284C158.978 123.306 158.982 123.332 158.975 123.357C158.968 123.381 158.952 123.402 158.93 123.415C156.942 125.005 153.743 126.833 151.616 126.639C149.489 126.444 150.98 124.651 151.274 124.285C151.287 124.27 151.305 124.258 151.326 124.254C151.346 124.25 151.367 124.252 151.385 124.262Z" fill="#F08B6B"/>
<path d="M164.086 113.811C164.416 113.279 165.767 111.331 167.301 112.317C167.735 113.084 168.414 115.787 164.658 116.292C164.593 116.3 164.528 116.294 164.465 116.275C164.402 116.257 164.344 116.226 164.294 116.184C164.244 116.143 164.203 116.091 164.173 116.033C164.143 115.975 164.126 115.912 164.121 115.847C164.058 114.833 164.03 114.324 164.018 114.106C164.005 114.003 164.029 113.898 164.086 113.811Z" fill="#F08B6B"/>
<path d="M162.379 105.611C162.379 105.611 154.802 102.609 152.99 101.329C151.177 100.049 151.094 99.9779 151.094 99.9779L154.119 99.2783L162.466 104.843L162.379 105.611Z" fill="#F08B6B"/>
</g>
<path fill-rule="evenodd" clip-rule="evenodd" d="M36.6009 113.56C36.3321 113.469 36.0475 113.435 35.7647 113.458C35.4819 113.481 35.2068 113.562 34.9565 113.696C34.7061 113.829 34.4858 114.013 34.309 114.235L34.309 114.235C34.2835 114.267 34.2489 114.334 34.2167 114.441C34.1856 114.544 34.1608 114.669 34.1465 114.804C34.1174 115.079 34.1344 115.367 34.2084 115.573C34.2456 115.676 34.192 115.79 34.0887 115.827C33.9855 115.864 33.8716 115.811 33.8344 115.707C33.7325 115.424 33.7187 115.07 33.7512 114.763C33.7677 114.607 33.7968 114.457 33.8362 114.326C33.8743 114.2 33.9267 114.077 33.998 113.987M35.732 113.062C36.0689 113.034 36.4079 113.075 36.7282 113.184C36.8322 113.219 36.888 113.332 36.8528 113.436C36.8177 113.54 36.7049 113.595 36.6009 113.56M35.732 113.062C35.3951 113.089 35.0675 113.186 34.7693 113.345L35.732 113.062ZM34.7693 113.345C34.4711 113.504 34.2086 113.723 33.9981 113.987L34.7693 113.345Z" fill="#001E4A"/>
<path fill-rule="evenodd" clip-rule="evenodd" d="M70.483 141.378C70.5532 141.463 70.5417 141.588 70.4574 141.658L70.3544 141.535C70.4574 141.658 70.4574 141.658 70.4574 141.658L70.4405 141.672L70.3906 141.714C70.3467 141.751 70.2818 141.805 70.1978 141.876C70.03 142.017 69.7863 142.223 69.4831 142.482C68.8765 143 68.0319 143.728 67.0798 144.571C65.1742 146.259 62.8427 148.404 61.1261 150.239C61.0512 150.319 60.9254 150.324 60.8452 150.249C60.765 150.174 60.7608 150.048 60.8358 149.968C62.5656 148.118 64.9087 145.964 66.8162 144.274C67.7706 143.428 68.6171 142.698 69.225 142.18C69.529 141.92 69.7734 141.714 69.9419 141.572C70.0261 141.501 70.0913 141.446 70.1355 141.409L70.1858 141.367L70.2028 141.353C70.2028 141.353 70.2031 141.353 70.3111 141.483L70.2028 141.353C70.2871 141.283 70.4128 141.294 70.483 141.378Z" fill="#006BC2"/>
<path fill-rule="evenodd" clip-rule="evenodd" d="M35.4747 153.876C35.5822 153.853 35.6874 153.922 35.7098 154.03C36.1086 155.948 36.8787 160.795 37.5481 165.155C37.8831 167.337 38.1931 169.399 38.4195 170.916C38.5327 171.674 38.6249 172.296 38.6889 172.728L38.7884 173.403C38.7884 173.403 38.7885 173.404 38.5919 173.433C38.3952 173.462 38.3952 173.462 38.3952 173.461L38.2957 172.787C38.2317 172.354 38.1395 171.733 38.0264 170.974C37.8001 169.458 37.49 167.397 37.1552 165.216C36.4851 160.851 35.7168 156.016 35.3206 154.111C35.2983 154.003 35.3673 153.898 35.4747 153.876ZM38.6207 173.629C38.5121 173.645 38.4111 173.57 38.3952 173.461L38.5919 173.433L38.7884 173.403C38.8043 173.512 38.7293 173.613 38.6207 173.629Z" fill="#006BC2"/>
<path fill-rule="evenodd" clip-rule="evenodd" d="M150.171 108.558C150.273 108.598 150.324 108.714 150.283 108.816C149.845 109.934 149.534 110.792 149.33 111.454C149.125 112.119 149.031 112.573 149.017 112.889C149.003 113.201 149.069 113.344 149.149 113.426C149.24 113.518 149.387 113.574 149.63 113.63C149.737 113.654 149.804 113.761 149.779 113.868C149.755 113.975 149.648 114.042 149.541 114.017C149.298 113.961 149.046 113.887 148.866 113.705C148.677 113.514 148.603 113.241 148.619 112.871C148.636 112.504 148.742 112.01 148.95 111.337C149.159 110.661 149.473 109.792 149.913 108.671C149.953 108.568 150.069 108.518 150.171 108.558Z" fill="#001E4A"/>
<path d="M149.696 118.959C149.318 118.562 148.551 117.552 149.068 117.008C149.198 116.886 149.359 116.804 149.533 116.769C150.272 116.582 151.091 116.718 151.85 116.714C152.705 116.714 153.56 116.69 154.414 116.674C154.551 116.66 154.689 116.684 154.812 116.745C154.89 116.809 154.952 116.89 154.991 116.983C155.03 117.076 155.045 117.178 155.034 117.278C155.034 118.367 154.029 119.305 153.091 119.699C152.516 119.932 151.885 119.986 151.279 119.854C150.673 119.722 150.121 119.41 149.696 118.959Z" fill="#EA7575"/>
<mask id="mask8" style="mask-type:alpha" maskUnits="userSpaceOnUse" x="148" y="116" width="8" height="4">
<path d="M149.696 118.959C149.318 118.562 148.551 117.552 149.068 117.008C149.198 116.886 149.359 116.804 149.533 116.769C150.272 116.582 151.091 116.718 151.85 116.714C152.705 116.714 153.56 116.69 154.414 116.674C154.551 116.66 154.689 116.684 154.812 116.745C154.89 116.809 154.952 116.89 154.991 116.983C155.03 117.076 155.045 117.178 155.034 117.278C155.034 118.367 154.029 119.305 153.091 119.699C152.516 119.932 151.885 119.986 151.279 119.854C150.673 119.722 150.121 119.41 149.696 118.959Z" fill="#EA7575"/>
</mask>
<g mask="url(#mask8)">
<path d="M151.453 120.597C151.453 120.597 151.962 116.9 155.428 118.554C158.894 120.208 152.296 120.832 152.272 120.975C152.248 121.118 151.453 120.597 151.453 120.597Z" fill="#BE555D"/>
<path d="M149.331 116.463C149.304 116.531 148.966 116.618 148.989 116.909C149.013 117.199 148.989 117.39 149.232 117.398C149.474 117.406 154.821 117.684 155.266 117.163C155.711 116.642 154.173 115.867 154.173 115.867L150.023 116.094L149.331 116.463Z" fill="#E7E8E9"/>
</g>
<path fill-rule="evenodd" clip-rule="evenodd" d="M165.203 112.84C164.793 113.195 164.603 113.715 164.689 114.107C164.712 114.214 164.644 114.32 164.537 114.344C164.43 114.367 164.324 114.299 164.3 114.192C164.176 113.626 164.449 112.967 164.942 112.539C165.447 112.102 166.197 111.89 167.045 112.232C167.147 112.273 167.196 112.389 167.155 112.491C167.114 112.592 166.998 112.642 166.897 112.601C166.195 112.318 165.601 112.494 165.203 112.84Z" fill="#001E4A"/>
<path d="M171.496 159.027C171.496 159.027 175.731 166.769 176.511 167.55L171.496 159.027Z" fill="#006BC2"/>
<path fill-rule="evenodd" clip-rule="evenodd" d="M171.4 158.853C171.497 158.8 171.617 158.836 171.67 158.932L171.496 159.027L171.321 159.123C171.269 159.026 171.304 158.906 171.4 158.853ZM171.496 159.027C171.321 159.123 171.321 159.123 171.321 159.123L171.505 159.457C171.622 159.671 171.791 159.976 171.996 160.346C172.405 161.084 172.959 162.077 173.538 163.094C174.116 164.111 174.72 165.154 175.228 165.992C175.482 166.411 175.713 166.78 175.906 167.069C176.095 167.354 176.256 167.576 176.37 167.69C176.448 167.768 176.573 167.768 176.651 167.69C176.729 167.613 176.729 167.487 176.651 167.409C176.57 167.328 176.428 167.138 176.236 166.849C176.048 166.566 175.82 166.202 175.568 165.786C175.062 164.953 174.461 163.914 173.883 162.898C173.306 161.882 172.752 160.891 172.343 160.153C172.139 159.784 171.97 159.479 171.853 159.266L171.67 158.932L171.496 159.027Z" fill="#006BC2"/>
<path fill-rule="evenodd" clip-rule="evenodd" d="M127.958 114.313C128.056 114.362 128.097 114.481 128.049 114.579L120.783 129.364C120.735 129.463 120.616 129.503 120.517 129.455C120.419 129.406 120.378 129.287 120.427 129.189L127.692 114.404C127.74 114.306 127.859 114.265 127.958 114.313Z" fill="#006BC2"/>
<path fill-rule="evenodd" clip-rule="evenodd" d="M196.197 173.97C196.242 174.07 196.198 174.188 196.098 174.233L182.555 180.336C182.455 180.381 182.337 180.336 182.292 180.236C182.247 180.136 182.291 180.018 182.392 179.973L195.934 173.871C196.035 173.826 196.152 173.87 196.197 173.97Z" fill="#006BC2"/>
<path fill-rule="evenodd" clip-rule="evenodd" d="M146.212 104.254C145.764 104.345 145.386 104.644 145.086 105.005C144.946 105.174 144.695 105.197 144.526 105.057C144.358 104.917 144.334 104.666 144.474 104.498C144.834 104.064 145.357 103.616 146.054 103.475C146.767 103.331 147.577 103.525 148.462 104.211C148.636 104.345 148.667 104.595 148.533 104.768C148.399 104.942 148.149 104.974 147.975 104.839C147.223 104.257 146.643 104.167 146.212 104.254Z" fill="#001E4A"/>
<path fill-rule="evenodd" clip-rule="evenodd" d="M43.3947 102.249C43.2852 102.709 43.4021 103.193 43.6112 103.632C43.7089 103.837 43.622 104.082 43.417 104.18C43.212 104.278 42.9667 104.191 42.869 103.986C42.6183 103.46 42.4245 102.774 42.5948 102.059C42.769 101.326 43.3031 100.651 44.331 100.118C44.5325 100.013 44.7807 100.092 44.8853 100.293C44.9899 100.495 44.9113 100.743 44.7097 100.847C43.8361 101.301 43.5001 101.806 43.3947 102.249Z" fill="#001E4A"/>
<path d="M131.078 76.144C131.078 76.144 131.475 79.0776 128.172 79.022C128.172 79.022 130.994 79.0498 130.954 81.8045C130.954 81.8045 131.209 79.6301 133.804 79.1492C133.789 79.1333 131.586 79.6699 131.078 76.144Z" fill="#FCB040"/>
<path d="M129.866 92.6199C129.866 92.6199 130.104 94.4086 128.089 94.3768C128.089 94.3768 129.814 94.3768 129.778 96.0821C129.854 95.6607 130.065 95.2752 130.378 94.983C130.691 94.6908 131.09 94.5074 131.515 94.4603C131.515 94.4603 130.176 94.7704 129.866 92.6199Z" fill="#FCB040"/>
<path d="M83.1787 87.1824C83.1787 87.1824 83.3622 88.5303 81.8369 88.5047C81.8369 88.5047 83.1401 88.5175 83.1218 89.7833C83.1218 89.7833 83.2392 88.7842 84.4378 88.5632C84.4305 88.5559 83.4136 88.8024 83.1787 87.1824Z" fill="#FCB040"/>
<path d="M87.4047 76.7788C87.4047 76.7788 87.803 79.735 84.4375 79.6825C84.4375 79.6825 87.3184 79.6825 87.2586 82.5008C87.3859 81.8043 87.737 81.1672 88.2597 80.6843C88.7824 80.2013 89.4487 79.8983 90.1594 79.8204C90.1594 79.8204 87.9224 80.3329 87.4047 76.7788Z" fill="#FCB040"/>
<path d="M192.561 109.169C192.561 109.169 192.959 112.102 189.655 112.047C189.655 112.047 192.478 112.074 192.438 114.829C192.438 114.829 192.688 112.655 195.284 112.178C195.268 112.158 193.07 112.695 192.561 109.169Z" fill="#FCB040"/>
<path d="M198.142 104.057C198.142 104.057 198.4 105.969 196.25 105.929C196.25 105.929 198.086 105.949 198.051 107.75C198.134 107.301 198.36 106.891 198.694 106.58C199.028 106.268 199.453 106.073 199.907 106.021C199.907 106.021 198.492 106.355 198.142 104.057Z" fill="#FCB040"/>
<path fill-rule="evenodd" clip-rule="evenodd" d="M98.6025 81.0783C98.8277 81.3186 98.8155 81.6959 98.5753 81.9211L89.7299 90.2125C89.4897 90.4377 89.1123 90.4255 88.8871 90.1853C88.6619 89.945 88.6741 89.5677 88.9144 89.3425L97.7597 81.0511C98 80.8259 98.3773 80.8381 98.6025 81.0783Z" fill="#006BC2"/>
<path fill-rule="evenodd" clip-rule="evenodd" d="M98.1087 73.7119C98.1123 74.0411 97.8483 74.311 97.519 74.3146L91.7879 74.3775C91.4587 74.3811 91.1888 74.1171 91.1852 73.7878C91.1816 73.4585 91.4456 73.1887 91.7748 73.1851L97.5059 73.1222C97.8352 73.1186 98.105 73.3826 98.1087 73.7119Z" fill="#006BC2"/>
<path fill-rule="evenodd" clip-rule="evenodd" d="M120.59 81.1342C120.782 80.8669 121.155 80.8059 121.422 80.9982L131.101 87.9572C131.369 88.1494 131.43 88.522 131.237 88.7894C131.045 89.0567 130.673 89.1176 130.405 88.9254L120.726 81.9664C120.458 81.7742 120.398 81.4016 120.59 81.1342Z" fill="#006BC2"/>
<path fill-rule="evenodd" clip-rule="evenodd" d="M37.105 161.442C37.1048 161.442 37.1047 161.442 37.0581 161.249C37.0115 161.056 37.0116 161.056 37.0117 161.056L37.0771 161.04L37.2703 160.993C37.4404 160.951 37.6915 160.89 38.0156 160.809C38.6638 160.648 39.6038 160.413 40.771 160.113C43.1054 159.515 46.348 158.662 49.9809 157.644C57.2495 155.607 66.0705 152.914 72.3068 150.282L72.4614 150.648C66.2002 153.291 57.3582 155.989 50.0882 158.026C46.4518 159.045 43.2062 159.899 40.8697 160.498C39.7014 160.798 38.7604 161.034 38.1113 161.195C37.7868 161.275 37.5352 161.337 37.3648 161.379L37.1709 161.426L37.105 161.442Z" fill="#EDEDEE"/>
<path fill-rule="evenodd" clip-rule="evenodd" d="M38.6402 169.472C38.6401 169.472 38.64 169.472 38.5933 169.279C38.5467 169.086 38.5467 169.086 38.5469 169.086L38.6122 169.07L38.8055 169.023C38.9755 168.981 39.2267 168.919 39.5507 168.839C40.1989 168.678 41.139 168.442 42.3061 168.143C44.6405 167.544 47.8832 166.691 51.5161 165.673C58.7847 163.636 67.6058 160.944 73.8421 158.316L73.9965 158.682C67.7353 161.321 58.8934 164.019 51.6234 166.055C47.987 167.074 44.7414 167.928 42.4049 168.528C41.2367 168.828 40.2956 169.064 39.6465 169.225C39.322 169.305 39.0704 169.367 38.9 169.409L38.7061 169.456L38.6402 169.472Z" fill="#EDEDEE"/>
<path fill-rule="evenodd" clip-rule="evenodd" d="M39.2065 177.839C39.2063 177.839 39.2062 177.839 39.1577 177.646C39.1091 177.454 39.1092 177.454 39.1094 177.453L39.1785 177.436L39.3825 177.384C39.5621 177.338 39.8271 177.271 40.1689 177.183C40.8524 177.006 41.843 176.749 43.0707 176.423C45.5263 175.771 48.9304 174.847 52.7247 173.759C60.3162 171.581 69.4595 168.747 75.6942 166.115L75.8489 166.481C69.5901 169.123 60.4264 171.963 52.8344 174.141C49.0369 175.23 45.6301 176.155 43.1727 176.807C41.9439 177.133 40.9525 177.391 40.2681 177.567C39.926 177.656 39.6606 177.724 39.4807 177.769L39.276 177.821L39.2065 177.839Z" fill="#EDEDEE"/>
<path fill-rule="evenodd" clip-rule="evenodd" d="M40.2798 185.821C40.2796 185.821 40.2795 185.821 40.2309 185.628C40.1824 185.435 40.1825 185.435 40.1826 185.435L40.2517 185.418L40.4558 185.366C40.6353 185.32 40.9003 185.253 41.2421 185.164C41.9257 184.988 42.9162 184.73 44.144 184.404C46.5995 183.752 50.0037 182.828 53.798 181.739C61.3895 179.561 70.5328 176.727 76.7676 174.096L76.9221 174.463C70.6633 177.103 61.4997 179.943 53.9076 182.122C50.1102 183.211 46.7034 184.136 44.246 184.788C43.0172 185.115 42.0258 185.373 41.3414 185.549C40.9993 185.638 40.7339 185.705 40.554 185.751L40.3493 185.803L40.2798 185.821Z" fill="#EDEDEE"/>
<path d="M25.5132 130.956C25.5132 130.956 25.7716 132.864 23.6211 132.828C23.6211 132.828 25.4576 132.848 25.4218 134.649C25.5056 134.2 25.7311 133.79 26.0652 133.479C26.3993 133.167 26.8244 132.971 27.2781 132.92C27.2781 132.92 25.8431 133.25 25.5132 130.956Z" fill="#FCB040"/>
<path d="M109.926 67.9358C109.926 67.9358 110.571 69.6504 110.548 70.5368C110.524 71.4232 111.394 82.756 111.323 83.71C111.231 84.423 111.025 85.1168 110.715 85.7651L109.926 67.9358Z" fill="#BB5536"/>
<path fill-rule="evenodd" clip-rule="evenodd" d="M106.862 73.208C106.971 73.1947 107.07 73.2722 107.084 73.3812L106.886 73.4053L106.689 73.4295C106.676 73.3205 106.753 73.2214 106.862 73.208ZM106.886 73.4053L106.689 73.4295L106.714 73.635C106.73 73.7666 106.753 73.9559 106.78 74.1863C106.835 74.6471 106.909 75.2724 106.983 75.9305C107.133 77.2518 107.286 78.6909 107.304 79.2076C107.307 79.3173 107.399 79.4033 107.509 79.3995C107.619 79.3958 107.705 79.3038 107.701 79.1941C107.683 78.6575 107.527 77.1988 107.378 75.8857C107.304 75.2266 107.23 74.6005 107.175 74.1392C107.147 73.9086 107.125 73.7191 107.109 73.5873L107.084 73.3812L106.886 73.4053Z" fill="#BB5536"/>
<path fill-rule="evenodd" clip-rule="evenodd" d="M146.576 108.052C146.31 108.052 146.054 108.152 145.859 108.332C145.663 108.513 145.543 108.76 145.522 109.025C145.513 109.135 145.417 109.216 145.308 109.207C145.199 109.199 145.117 109.103 145.126 108.994C145.155 108.629 145.32 108.288 145.589 108.04C145.858 107.792 146.21 107.654 146.576 107.654C146.942 107.654 147.294 107.792 147.563 108.04C147.832 108.288 147.997 108.629 148.026 108.994C148.035 109.103 147.953 109.199 147.844 109.207C147.734 109.216 147.639 109.135 147.63 109.025C147.609 108.76 147.489 108.513 147.293 108.332C147.098 108.152 146.842 108.052 146.576 108.052Z" fill="#001E4A"/>
<path fill-rule="evenodd" clip-rule="evenodd" d="M154.739 108.128C154.473 108.128 154.217 108.228 154.022 108.408C153.826 108.589 153.706 108.836 153.685 109.101C153.676 109.21 153.58 109.292 153.471 109.283C153.362 109.275 153.28 109.179 153.289 109.069C153.318 108.705 153.483 108.364 153.752 108.116C154.021 107.868 154.373 107.73 154.739 107.73C155.105 107.73 155.457 107.868 155.726 108.116C155.995 108.364 156.16 108.705 156.189 109.069C156.198 109.179 156.116 109.275 156.007 109.283C155.897 109.292 155.802 109.21 155.793 109.101C155.772 108.836 155.652 108.589 155.456 108.408C155.261 108.228 155.005 108.128 154.739 108.128Z" fill="#001E4A"/>
<path fill-rule="evenodd" clip-rule="evenodd" d="M154.529 103.734C154.081 103.825 153.705 104.123 153.407 104.484C153.268 104.654 153.017 104.678 152.848 104.538C152.678 104.398 152.654 104.148 152.794 103.978C153.152 103.545 153.674 103.096 154.371 102.955C155.084 102.811 155.893 103.005 156.778 103.691C156.952 103.825 156.984 104.075 156.849 104.248C156.715 104.422 156.465 104.454 156.292 104.319C155.539 103.736 154.959 103.647 154.529 103.734Z" fill="#001E4A"/>
<path fill-rule="evenodd" clip-rule="evenodd" d="M170.559 110.333C170.848 110.491 170.954 110.853 170.796 111.142C170.67 111.372 170.482 111.539 170.316 111.656C170.146 111.776 169.963 111.868 169.805 111.936C169.644 112.006 169.496 112.056 169.389 112.09C169.334 112.107 169.289 112.12 169.257 112.129C169.24 112.133 169.227 112.136 169.217 112.139L169.205 112.142L169.201 112.143L169.2 112.143C169.2 112.143 169.199 112.144 169.059 111.564" fill="#FFAE00"/>
<path fill-rule="evenodd" clip-rule="evenodd" d="M161.764 106.866C161.81 106.766 161.928 106.722 162.028 106.768C162.026 106.767 162.025 106.767 162.025 106.767C162.025 106.767 162.035 106.771 162.061 106.779C162.09 106.789 162.13 106.801 162.181 106.817C162.282 106.848 162.425 106.891 162.602 106.941C162.955 107.041 163.441 107.168 163.994 107.292C165.103 107.54 166.463 107.767 167.557 107.72C167.667 107.715 167.759 107.801 167.764 107.91C167.769 108.02 167.684 108.113 167.574 108.117C166.426 108.166 165.024 107.93 163.907 107.68C163.346 107.554 162.853 107.425 162.494 107.324C162.315 107.273 162.168 107.229 162.063 107.197C162.011 107.181 161.968 107.167 161.937 107.157C161.911 107.148 161.88 107.138 161.862 107.129C161.762 107.084 161.718 106.966 161.764 106.866Z" fill="#002966"/>
<path fill-rule="evenodd" clip-rule="evenodd" d="M91.0307 60.6981C91.232 60.4375 91.6065 60.3894 91.8671 60.5907L100.804 67.4933C101.064 67.6946 101.113 68.0691 100.911 68.3297C100.71 68.5903 100.336 68.6384 100.075 68.4371L91.1381 61.5345C90.8775 61.3332 90.8294 60.9587 91.0307 60.6981Z" fill="#006BC2"/>
<path fill-rule="evenodd" clip-rule="evenodd" d="M126.765 73.3974C126.769 73.7267 126.505 73.9965 126.175 74.0002L120.444 74.063C120.115 74.0667 119.845 73.8027 119.841 73.4734C119.838 73.1441 120.102 72.8742 120.431 72.8706L126.162 72.8077C126.491 72.8041 126.761 73.0681 126.765 73.3974Z" fill="#006BC2"/>
<path fill-rule="evenodd" clip-rule="evenodd" d="M123.162 63.9527C123.351 64.2226 123.285 64.5944 123.015 64.7831L118.319 68.068C118.049 68.2567 117.677 68.191 117.488 67.9211C117.3 67.6513 117.365 67.2795 117.635 67.0908L122.332 63.8059C122.602 63.6171 122.973 63.6829 123.162 63.9527Z" fill="#006BC2"/>
<path fill-rule="evenodd" clip-rule="evenodd" d="M48.9807 103.297C48.749 103.096 48.45 102.991 48.1438 103.002C47.8376 103.013 47.5469 103.139 47.3303 103.356C47.1136 103.573 46.987 103.863 46.976 104.17C46.9649 104.476 47.0702 104.775 47.2706 105.007C47.3783 105.131 47.3647 105.319 47.2402 105.427C47.1157 105.535 46.9274 105.521 46.8197 105.397C46.5206 105.051 46.3636 104.605 46.3801 104.148C46.3966 103.691 46.5854 103.258 46.9086 102.935C47.2319 102.611 47.6654 102.422 48.1222 102.406C48.579 102.389 49.0251 102.547 49.3708 102.846C49.4953 102.953 49.509 103.142 49.4012 103.266C49.2935 103.391 49.1052 103.404 48.9807 103.297Z" fill="#001E4A"/>
<path fill-rule="evenodd" clip-rule="evenodd" d="M76.2891 116.133C76.388 116.085 76.5068 116.127 76.5545 116.226L83.837 131.311C83.8847 131.41 83.8433 131.528 83.7444 131.576C83.6456 131.624 83.5268 131.582 83.479 131.484L76.1966 116.398C76.1488 116.3 76.1903 116.181 76.2891 116.133Z" fill="#006BC2"/>
<path fill-rule="evenodd" clip-rule="evenodd" d="M29.6388 165.645C29.6852 165.546 29.8035 165.503 29.903 165.549L37.7056 169.19C37.8051 169.237 37.8481 169.355 37.8017 169.454C37.7553 169.554 37.637 169.597 37.5375 169.55L29.7349 165.909C29.6354 165.863 29.5924 165.744 29.6388 165.645Z" fill="#006BC2"/>
<path fill-rule="evenodd" clip-rule="evenodd" d="M145.733 134.208C145.739 134.304 145.666 134.387 145.569 134.392L142.708 134.562C142.612 134.567 142.529 134.494 142.524 134.398C142.518 134.302 142.591 134.219 142.687 134.214L145.549 134.044C145.645 134.039 145.727 134.112 145.733 134.208Z" fill="white"/>
<path fill-rule="evenodd" clip-rule="evenodd" d="M138.044 133.732C138.126 133.682 138.233 133.707 138.284 133.789L139.73 136.132C139.781 136.214 139.755 136.321 139.673 136.372C139.591 136.422 139.484 136.397 139.433 136.315L137.987 133.972C137.936 133.89 137.962 133.783 138.044 133.732Z" fill="white"/>
<path fill-rule="evenodd" clip-rule="evenodd" d="M140.243 142.345C140.314 142.41 140.32 142.52 140.256 142.592L138.561 144.484C138.497 144.556 138.387 144.562 138.315 144.498C138.243 144.433 138.237 144.323 138.302 144.251L139.996 142.359C140.061 142.287 140.171 142.281 140.243 142.345Z" fill="white"/>
<path fill-rule="evenodd" clip-rule="evenodd" d="M133.58 135.397C133.669 135.361 133.771 135.405 133.806 135.494L134.781 137.941C134.816 138.03 134.773 138.132 134.683 138.167C134.594 138.203 134.492 138.159 134.457 138.07L133.482 135.623C133.447 135.534 133.49 135.432 133.58 135.397Z" fill="white"/>
<path fill-rule="evenodd" clip-rule="evenodd" d="M145.202 142.094C145.152 142.177 145.044 142.202 144.962 142.152L142.416 140.598C142.334 140.548 142.308 140.441 142.358 140.359C142.408 140.277 142.515 140.251 142.597 140.301L145.144 141.855C145.226 141.905 145.252 142.012 145.202 142.094Z" fill="white"/>
<path fill-rule="evenodd" clip-rule="evenodd" d="M167.113 138.533C167.194 138.481 167.302 138.504 167.354 138.585L168.773 140.785C168.825 140.866 168.802 140.974 168.721 141.026C168.64 141.079 168.532 141.055 168.48 140.974L167.061 138.774C167.009 138.693 167.032 138.586 167.113 138.533Z" fill="white"/>
<path fill-rule="evenodd" clip-rule="evenodd" d="M145.139 147.79C145.137 147.886 145.056 147.962 144.96 147.959L142.172 147.876C142.076 147.873 142 147.793 142.003 147.697C142.006 147.601 142.086 147.525 142.182 147.528L144.97 147.61C145.067 147.613 145.142 147.694 145.139 147.79Z" fill="white"/>
<path fill-rule="evenodd" clip-rule="evenodd" d="M138.178 150.493C138.262 150.445 138.368 150.473 138.416 150.557L139.967 153.256C140.015 153.339 139.987 153.446 139.903 153.494C139.82 153.542 139.713 153.513 139.665 153.429L138.114 150.731C138.066 150.647 138.095 150.541 138.178 150.493Z" fill="white"/>
<path fill-rule="evenodd" clip-rule="evenodd" d="M144.75 156.884C144.757 156.98 144.684 157.063 144.588 157.07L142.189 157.233C142.093 157.24 142.009 157.167 142.003 157.071C141.996 156.975 142.069 156.892 142.165 156.885L144.564 156.722C144.66 156.715 144.743 156.788 144.75 156.884Z" fill="white"/>
<path fill-rule="evenodd" clip-rule="evenodd" d="M142.866 163.528C142.893 163.62 142.839 163.717 142.747 163.744L140.145 164.491C140.052 164.518 139.955 164.464 139.929 164.372C139.902 164.279 139.956 164.182 140.048 164.156L142.65 163.408C142.743 163.382 142.84 163.435 142.866 163.528Z" fill="white"/>
<path fill-rule="evenodd" clip-rule="evenodd" d="M168.087 146.346C168.076 146.441 167.989 146.51 167.894 146.499L165.046 146.169C164.951 146.158 164.882 146.071 164.893 145.976C164.904 145.88 164.991 145.812 165.086 145.823L167.934 146.152C168.029 146.164 168.098 146.25 168.087 146.346Z" fill="white"/>
<path fill-rule="evenodd" clip-rule="evenodd" d="M178.843 158.803C178.933 158.77 179.033 158.817 179.066 158.907L179.93 161.294C179.962 161.384 179.915 161.484 179.825 161.517C179.734 161.55 179.634 161.503 179.602 161.412L178.738 159.026C178.705 158.935 178.752 158.835 178.843 158.803Z" fill="white"/>
<path fill-rule="evenodd" clip-rule="evenodd" d="M186.338 160.877C186.433 160.857 186.525 160.918 186.544 161.012L187.078 163.591C187.097 163.685 187.037 163.778 186.942 163.797C186.848 163.817 186.756 163.756 186.736 163.662L186.203 161.083C186.183 160.989 186.244 160.896 186.338 160.877Z" fill="white"/>
<path fill-rule="evenodd" clip-rule="evenodd" d="M172.432 146.716C172.496 146.643 172.606 146.636 172.678 146.7L174.918 148.67C174.991 148.734 174.998 148.844 174.934 148.916C174.871 148.989 174.76 148.996 174.688 148.932L172.448 146.962C172.376 146.898 172.369 146.788 172.432 146.716Z" fill="white"/>
<path fill-rule="evenodd" clip-rule="evenodd" d="M171.522 151.687C171.611 151.65 171.713 151.692 171.75 151.78L172.763 154.194C172.8 154.282 172.759 154.385 172.67 154.422C172.581 154.459 172.479 154.417 172.441 154.329L171.429 151.915C171.391 151.827 171.433 151.724 171.522 151.687Z" fill="white"/>
<path fill-rule="evenodd" clip-rule="evenodd" d="M165.669 155.21C165.733 155.138 165.843 155.131 165.916 155.194L168.156 157.165C168.228 157.229 168.235 157.339 168.172 157.411C168.108 157.483 167.998 157.49 167.925 157.427L165.685 155.456C165.613 155.393 165.606 155.283 165.669 155.21Z" fill="white"/>
<path fill-rule="evenodd" clip-rule="evenodd" d="M164.76 160.182C164.849 160.145 164.951 160.187 164.989 160.275L166.001 162.689C166.039 162.778 165.997 162.88 165.908 162.917C165.819 162.954 165.717 162.912 165.68 162.824L164.667 160.41C164.63 160.322 164.671 160.219 164.76 160.182Z" fill="white"/>
<path fill-rule="evenodd" clip-rule="evenodd" d="M177.971 143.775C177.951 143.87 177.859 143.93 177.765 143.911L175.039 143.344C174.945 143.324 174.885 143.232 174.904 143.137C174.924 143.043 175.016 142.983 175.11 143.002L177.836 143.569C177.93 143.589 177.991 143.681 177.971 143.775Z" fill="white"/>
<path fill-rule="evenodd" clip-rule="evenodd" d="M180.938 151.834C180.985 151.918 180.955 152.025 180.871 152.072L178.156 153.59C178.072 153.637 177.966 153.607 177.919 153.523C177.872 153.439 177.902 153.333 177.986 153.286L180.701 151.767C180.785 151.72 180.891 151.75 180.938 151.834Z" fill="white"/>
<path fill-rule="evenodd" clip-rule="evenodd" d="M173.875 138.83C173.865 138.926 173.779 138.995 173.683 138.985L171.29 138.732C171.194 138.722 171.125 138.636 171.135 138.54C171.145 138.444 171.231 138.375 171.327 138.385L173.72 138.638C173.815 138.649 173.885 138.734 173.875 138.83Z" fill="white"/>
<path fill-rule="evenodd" clip-rule="evenodd" d="M128.384 153.191C128.373 153.286 128.286 153.355 128.19 153.344L125.345 153.011C125.249 153 125.181 152.913 125.192 152.817C125.203 152.722 125.29 152.653 125.385 152.664L128.231 152.997C128.326 153.008 128.395 153.095 128.384 153.191Z" fill="white"/>
<path fill-rule="evenodd" clip-rule="evenodd" d="M132.859 148.177C132.953 148.157 133.045 148.218 133.065 148.312L133.598 150.891C133.618 150.985 133.557 151.077 133.463 151.097C133.369 151.116 133.276 151.056 133.257 150.961L132.723 148.383C132.704 148.288 132.765 148.196 132.859 148.177Z" fill="white"/>
<path fill-rule="evenodd" clip-rule="evenodd" d="M122.998 139.141C123.061 139.069 123.172 139.062 123.244 139.125L125.482 141.099C125.554 141.162 125.561 141.273 125.498 141.345C125.434 141.417 125.324 141.424 125.252 141.36L123.013 139.387C122.941 139.323 122.934 139.213 122.998 139.141Z" fill="white"/>
<path fill-rule="evenodd" clip-rule="evenodd" d="M130.889 132.106C130.869 132.2 130.777 132.261 130.683 132.241L127.957 131.674C127.863 131.655 127.802 131.562 127.822 131.468C127.842 131.374 127.934 131.313 128.028 131.333L130.754 131.9C130.848 131.919 130.909 132.012 130.889 132.106Z" fill="white"/>
<path fill-rule="evenodd" clip-rule="evenodd" d="M130.178 124.268C130.168 124.363 130.082 124.433 129.986 124.422L127.592 124.164C127.497 124.154 127.427 124.068 127.438 123.972C127.448 123.876 127.534 123.807 127.63 123.817L130.024 124.075C130.119 124.086 130.189 124.172 130.178 124.268Z" fill="white"/>
<path d="M35 197L197 197" stroke="#384042" stroke-width="2.09" stroke-miterlimit="10" stroke-linecap="round"/>
<circle cx="158" cy="184" r="3" fill="#00A5EC"/>
<ellipse cx="93.7423" cy="180.446" rx="1.70767" ry="3.02086" transform="rotate(22.7386 93.7423 180.446)" fill="#00A5EC"/>
</g>
<defs>
<clipPath id="clip0">
<rect width="224" height="198" fill="white"/>
</clipPath>
</defs>
</svg>
