<svg width="224" height="198" viewBox="0 0 224 198" fill="none" xmlns="http://www.w3.org/2000/svg">
<path d="M81.9984 194.215C81.9946 192.226 81.9316 188.193 81.9887 186.263L77.3726 185.732L70.4219 188.12L71.7484 195.23H80.9733C81.5414 195.23 81.9995 194.783 81.9984 194.215Z" fill="#001E4A"/>
<path d="M20.9792 181.608C20.9792 181.608 19.9324 179.601 18.4511 181.986C17.7029 183.181 17.4663 190.959 18.2145 194.019C18.4352 194.922 19.3193 195.229 20.2486 195.233C33.482 195.279 59.4424 195.898 48.0288 193.851C47.2579 189.195 28.9276 179.578 28.9276 179.578L20.9792 181.608Z" fill="#00489A"/>
<path d="M125.504 112.215C127.409 111.729 129.343 111.362 131.293 111.115" stroke="#F18B6B" stroke-width="0.755796" stroke-miterlimit="10"/>
<path d="M16.2992 79.3905C16.337 79.3905 14.3341 79.8439 13.8806 76.783C13.8806 76.783 14.2207 79.3527 11.2354 79.2771C11.2354 79.2771 13.8051 79.3149 13.7295 81.6956C13.7295 81.6956 13.9562 79.8061 16.2992 79.3905Z" fill="#FBB043"/>
<path d="M9.53478 81.9072C9.53478 81.9072 10.1394 86.3286 5 86.2153C5 86.2153 9.42141 86.2531 9.30804 90.4099C9.30804 90.4099 9.72373 87.16 13.7672 86.442C13.7672 86.4042 10.3662 87.1978 9.53478 81.9072Z" fill="#FBB043"/>
<path d="M194.067 136.101C194.116 136.101 191.554 136.683 190.972 132.768C190.972 132.768 191.41 136.056 187.59 135.958C187.59 135.958 190.878 136.007 190.779 139.053C190.779 139.053 191.07 136.634 194.067 136.101Z" fill="#FBB043"/>
<path d="M185.41 139.321C185.41 139.321 186.166 144.989 179.609 144.834C179.609 144.834 185.278 144.883 185.123 150.2C185.123 150.2 185.652 146.044 190.825 145.125C190.825 145.076 186.476 146.089 185.41 139.321Z" fill="#FBB043"/>
<path d="M103.872 187.738C103.902 187.738 102.266 188.116 101.892 185.606C101.892 185.606 102.172 187.708 99.7305 187.647C99.7305 187.647 101.832 187.677 101.771 189.624C101.771 189.624 101.956 188.078 103.872 187.734" fill="#FBB043"/>
<path d="M96.2686 179.892C96.2686 179.892 96.7598 183.509 92.5576 183.418C92.5576 183.418 96.1741 183.448 96.0796 186.849C96.0796 186.849 96.4197 184.204 99.7301 183.603C99.7301 183.573 96.9488 184.219 96.2686 179.892Z" fill="#FBB043"/>
<path d="M23.1661 109.331C23.1661 109.331 9.56181 115.124 12.9364 148.799C16.3111 182.473 21.0121 181.487 23.1661 182.999C25.3202 184.51 36.7969 181.993 36.7969 181.993C36.7969 181.993 47.9714 116.088 44.9293 109.35C41.8872 102.612 23.8161 109.35 23.8161 109.35" fill="#001E4A"/>
<mask id="mask0" style="mask-type:alpha" maskUnits="userSpaceOnUse" x="12" y="106" width="34" height="78">
<path d="M23.1661 109.331C23.1661 109.331 9.56181 115.124 12.9364 148.799C16.3111 182.473 21.0121 181.487 23.1661 182.999C25.3202 184.51 36.7969 181.993 36.7969 181.993C36.7969 181.993 47.9714 116.088 44.9293 109.35C41.8872 102.612 23.8161 109.35 23.8161 109.35" fill="#001E4A"/>
</mask>
<g mask="url(#mask0)">
<path d="M39.5753 104.687C38.0818 106.259 27.1363 108.462 21.9089 109.267L19.3131 112.138C24.5998 111.979 36.3021 110.206 39.5753 104.687Z" fill="#002966"/>
</g>
<path d="M132.508 113.087C132.508 113.087 132.912 113.843 132.844 115.952L132.508 113.087Z" fill="#226DA1"/>
<path d="M37.8768 109.237C37.8768 109.237 25.0887 127.754 27.7831 150.371C30.4775 172.988 54.3645 165.396 54.3645 165.396C54.3645 165.396 45.6464 116.768 37.8768 109.237Z" fill="#002966"/>
<path d="M39.1978 88.6797C39.1978 88.6797 16.7811 94.5775 16.1195 104.124C16.1195 104.124 14.4152 115.17 33.9903 108.077C53.5654 100.984 40.9021 104.019 40.9021 104.019L39.1978 88.6797Z" fill="#006BC2"/>
<path d="M42.5178 121.277C42.5178 121.277 33.7204 123.695 29.2272 137.167C26.3902 145.811 24.0657 153.676 22.119 162.563C22.119 162.563 22.0471 163.817 23.2148 164.111C24.3825 164.406 47.3663 182.999 47.3663 182.999L56.8855 192.325C56.8855 192.325 81.7587 188.822 82.3898 185.859C83.0209 182.897 81.8494 163.499 81.8494 163.499C81.8494 163.499 84.3662 169.425 86.0705 170.679C87.7927 172.428 89.4839 171.864 90.4693 170.861C91.5463 169.425 96.5761 161.519 96.5761 161.519L97.4755 140.776C97.4755 140.776 88.2812 121.549 79.4989 118.726C70.7165 115.903 47.6383 118.238 47.6383 118.238L42.5178 121.277Z" fill="#25A1DB"/>
<path d="M60.4513 127.612C51.8827 128.74 44.6671 124.042 43.2578 121.411H71.4438C70.5983 123.102 69.0198 126.485 60.4513 127.612Z" fill="#006BC2"/>
<path d="M76.0068 119.21C76.0068 119.21 81.8521 130.241 81.8823 147.212C82.9593 148.467 83.9324 142.474 83.8455 139.784C83.7586 137.093 81.6678 121.179 80.1864 118.707C78.705 116.236 76.0068 119.21 76.0068 119.21Z" fill="#002966"/>
<path d="M43.1672 115.529C42.8309 115.752 40.7411 120.2 44.1535 122.71C47.566 125.219 61.4159 130.876 71.1808 122.71C73.6976 119.656 75.0429 117.23 75.0429 116.153C75.0429 115.076 72.8889 115.522 72.8889 115.522C72.8889 115.522 72.409 112.605 71.3773 113.277C70.3457 113.95 55.0332 116.508 53.5065 115.522C51.9798 114.536 52.6978 113.632 52.6978 113.632L49.7811 114.899C49.7811 114.899 46.1111 113.553 43.1672 115.529Z" fill="#FBB043"/>
<path d="M56.6168 69.2816C56.2956 69.3194 36.4106 72.6827 36.5013 102.869C38.4777 116.515 42.2491 121.095 50.51 122.444C51.946 122.444 51.8591 122.622 50.4193 119.123C49.4588 115.21 49.792 115.438 49.792 115.438L53.4727 115.888L70.8031 114.27L74.3306 117.874C75.1394 118.7 76.1603 119.351 77.3144 119.283C79.2099 119.171 82.119 118.132 83.2851 113.114C85.0801 105.39 78.0776 83.3923 73.1385 77.7352C68.1994 72.0781 62.9919 68.5636 56.6168 69.2816Z" fill="#001E4A"/>
<path d="M54.4656 83.74C54.4656 83.74 62.1861 83.2034 68.1153 77.7239C71.1649 80.7471 80.6842 91.1052 75.7451 104.483C73.3227 109.962 69.7289 111.398 66.9476 111.663C67.0345 113.371 67.0345 114.626 67.0345 114.626C67.0345 114.626 57.071 116.338 52.8671 115.808C52.8671 112.577 52.6668 105.378 52.6668 105.378C52.6668 105.378 45.4868 105.556 45.6644 99.9896C45.842 94.4232 51.4122 96.5886 52.4892 97.2952C53.4755 94.786 54.8246 88.2294 54.4656 83.74Z" fill="#DD7C58"/>
<path d="M97.3694 58.2368L95 136.564C95 136.564 95.4195 138.714 98.779 139.368C102.138 140.022 123.305 140.18 123.305 140.18L100.778 61.5774L97.3694 58.2368Z" fill="#002966"/>
<path d="M96.7617 60.5264C96.7617 60.5264 98.1486 132.55 99.0971 136.106C99.3654 137.115 99.3399 139.32 103.829 139.237C116.139 140.352 217.372 132.924 217.372 132.924L192.767 63.4664L96.7617 60.5264Z" fill="#00489A"/>
<path d="M104.101 55.9095L200.257 56.363C200.257 56.363 204.577 56.2118 205.098 60.3725C205.62 64.5332 218.976 132.331 218.976 132.331C218.976 132.331 219.603 137.946 211.686 138.109C203.769 138.271 110.498 141 110.498 141C110.498 141 108.27 141.371 106.895 133.37C105.392 124.625 96.8077 62.0315 96.8077 62.0315C96.8077 62.0315 95.5455 54.5982 104.101 55.9095Z" fill="#0093E6"/>
<path d="M111.957 62.0351C111.637 62.0358 111.324 61.9416 111.058 61.7644C110.791 61.5871 110.583 61.3347 110.46 61.0393C110.337 60.7438 110.305 60.4185 110.367 60.1045C110.429 59.7905 110.582 59.5019 110.808 59.2754C111.034 59.0488 111.323 58.8944 111.636 58.8316C111.95 58.7689 112.276 58.8007 112.571 58.923C112.867 59.0454 113.12 59.2527 113.298 59.5187C113.476 59.7848 113.571 60.0976 113.571 60.4177C113.571 60.846 113.401 61.2568 113.098 61.56C112.796 61.8632 112.385 62.0341 111.957 62.0351Z" fill="#A4D4FC"/>
<path d="M111.894 60.9804C111.956 60.9796 112.017 60.9694 112.076 60.9502C112.216 60.9011 112.355 60.8444 112.51 60.7764C113.686 60.2444 114.613 59.2824 115.102 58.0881C115.59 56.8937 115.603 55.5577 115.137 54.3543C114.672 53.1508 113.763 52.1715 112.597 51.6173C111.432 51.0631 110.099 50.9761 108.871 51.3743C108.728 51.4194 108.609 51.5194 108.54 51.6522C108.471 51.7851 108.458 51.94 108.503 52.0828C108.548 52.2257 108.648 52.3447 108.781 52.4138C108.914 52.4829 109.069 52.4964 109.211 52.4513C110.162 52.1516 111.191 52.2251 112.09 52.657C112.988 53.0888 113.689 53.8465 114.049 54.7762C114.409 55.7058 114.401 56.7376 114.028 57.6619C113.654 58.5862 112.943 59.3336 112.038 59.7523C111.921 59.8052 111.815 59.8467 111.713 59.8845C111.587 59.9276 111.48 60.0141 111.412 60.1285C111.343 60.2429 111.318 60.3778 111.34 60.5093C111.361 60.6408 111.429 60.7603 111.531 60.8466C111.632 60.9329 111.761 60.9803 111.894 60.9804Z" fill="#002966"/>
<path d="M106.478 56.1318C106.483 55.8777 106.512 55.6246 106.565 55.376C106.711 54.7012 107.033 54.0769 107.497 53.566C107.961 53.0551 108.552 52.6758 109.21 52.4661L108.874 51.374C108.027 51.6449 107.266 52.1345 106.669 52.7934C106.072 53.4523 105.659 54.2571 105.473 55.1266C105.401 55.4493 105.363 55.7785 105.359 56.1091L106.478 56.1318Z" fill="#002966"/>
<path d="M150.521 86.4583L162.16 86.3072C162.28 86.299 162.396 86.264 162.501 86.2048C162.606 86.1456 162.696 86.0637 162.765 85.9651C162.834 85.8665 162.88 85.7537 162.899 85.635C162.919 85.5163 162.911 85.3948 162.878 85.2793L161.506 77.0487C161.469 76.7861 161.345 76.5437 161.153 76.3612C160.96 76.1786 160.712 76.0666 160.448 76.0435L148.809 76.1946C148.689 76.2028 148.572 76.2378 148.467 76.297C148.363 76.3562 148.273 76.4381 148.204 76.5367C148.135 76.6353 148.089 76.7481 148.069 76.8668C148.05 76.9855 148.057 77.107 148.091 77.2225L149.451 85.4531C149.487 85.7177 149.614 85.9618 149.808 86.1447C150.003 86.3277 150.254 86.4383 150.521 86.4583Z" fill="#A4D4FC"/>
<path d="M169.918 86.2059L181.557 86.0547C181.677 86.0465 181.794 86.0115 181.898 85.9523C182.003 85.8931 182.093 85.8112 182.162 85.7126C182.231 85.614 182.277 85.5012 182.296 85.3826C182.316 85.2639 182.309 85.1423 182.275 85.0268L180.903 76.8C180.867 76.537 180.742 76.2942 180.55 76.1109C180.358 75.9277 180.11 75.815 179.845 75.791L168.206 75.9422C168.086 75.9511 167.97 75.9865 167.866 76.0459C167.761 76.1053 167.672 76.1871 167.603 76.2856C167.534 76.384 167.488 76.4965 167.468 76.6149C167.448 76.7333 167.455 76.8546 167.488 76.9701L168.86 85.2007C168.896 85.4635 169.02 85.7062 169.212 85.889C169.405 86.0717 169.653 86.1834 169.918 86.2059Z" fill="#A4D4FC"/>
<path d="M189.993 85.9481L201.632 85.7969C201.752 85.7887 201.869 85.7537 201.974 85.6945C202.078 85.6353 202.168 85.5534 202.237 85.4548C202.306 85.3562 202.352 85.2434 202.372 85.1247C202.391 85.0061 202.384 84.8845 202.35 84.769L200.979 76.5384C200.942 76.2759 200.817 76.0335 200.625 75.8509C200.433 75.6683 200.184 75.5563 199.92 75.5332L188.281 75.6844C188.161 75.6932 188.045 75.7287 187.941 75.7881C187.836 75.8474 187.747 75.9293 187.678 76.0277C187.609 76.1262 187.563 76.2387 187.543 76.357C187.524 76.4754 187.53 76.5968 187.563 76.7122L188.935 84.9429C188.972 85.2054 189.096 85.4478 189.288 85.6304C189.48 85.813 189.729 85.925 189.993 85.9481Z" fill="#A4D4FC"/>
<path d="M130.809 86.7117L142.448 86.5606C142.568 86.5524 142.684 86.5174 142.789 86.4582C142.894 86.399 142.984 86.3171 143.053 86.2185C143.122 86.1199 143.168 86.0071 143.187 85.8884C143.207 85.7697 143.199 85.6482 143.166 85.5327L141.794 77.3021C141.757 77.0395 141.633 76.7972 141.441 76.6146C141.249 76.432 141 76.32 140.736 76.2969L129.097 76.448C128.977 76.4562 128.86 76.4912 128.755 76.5504C128.651 76.6096 128.561 76.6915 128.492 76.7901C128.423 76.8887 128.377 77.0015 128.357 77.1202C128.338 77.2389 128.345 77.3604 128.379 77.4759L129.75 85.7065C129.786 85.9694 129.911 86.2121 130.103 86.3948C130.295 86.5775 130.544 86.6893 130.809 86.7117Z" fill="#A4D4FC"/>
<path d="M111.098 86.9652L122.737 86.814C122.857 86.8058 122.974 86.7708 123.078 86.7116C123.183 86.6524 123.273 86.5705 123.342 86.4719C123.411 86.3733 123.457 86.2605 123.476 86.1418C123.496 86.0232 123.489 85.9016 123.455 85.7861L122.083 77.5555C122.047 77.2927 121.923 77.0499 121.731 76.8672C121.538 76.6845 121.289 76.5727 121.025 76.5503L109.393 76.6939C109.274 76.7028 109.157 76.7382 109.053 76.7976C108.949 76.857 108.859 76.9389 108.79 77.0373C108.722 77.1357 108.676 77.2482 108.656 77.3666C108.636 77.485 108.643 77.6063 108.675 77.7218L110.051 85.9524C110.084 86.2151 110.206 86.4586 110.396 86.6427C110.587 86.8269 110.834 86.9406 111.098 86.9652Z" fill="white"/>
<path d="M136.743 61.8837C136.423 61.8845 136.11 61.7902 135.843 61.6127C135.577 61.4353 135.369 61.1827 135.246 60.887C135.123 60.5913 135.091 60.2658 135.153 59.9517C135.215 59.6376 135.369 59.3491 135.596 59.1227C135.822 58.8962 136.111 58.7421 136.425 58.6798C136.739 58.6175 137.064 58.6499 137.36 58.7728C137.656 58.8957 137.908 59.1035 138.086 59.3701C138.263 59.6367 138.358 59.9499 138.357 60.2701C138.357 60.6981 138.187 61.1085 137.884 61.4111C137.582 61.7137 137.171 61.8837 136.743 61.8837Z" fill="#A4D4FC"/>
<path d="M136.679 60.8219C136.74 60.8211 136.801 60.8109 136.86 60.7917C137 60.7425 137.14 60.6859 137.295 60.6141C138.378 60.1027 139.243 59.223 139.738 58.132C140.232 57.0411 140.322 55.8101 139.992 54.6587C139.663 53.5074 138.934 52.5107 137.938 51.8468C136.941 51.1829 135.741 50.8949 134.551 51.0343C134.247 51.0729 133.947 51.1387 133.655 51.2308C133.513 51.2759 133.394 51.3759 133.324 51.5088C133.255 51.6417 133.242 51.7966 133.287 51.9394C133.332 52.0822 133.432 52.2013 133.565 52.2704C133.698 52.3395 133.853 52.353 133.996 52.3079C134.946 52.007 135.975 52.0794 136.873 52.5103C137.772 52.9413 138.472 53.6984 138.833 54.6276C139.193 55.5569 139.185 56.5884 138.812 57.5124C138.438 58.4364 137.727 59.1833 136.822 59.6013C136.716 59.6508 136.608 59.695 136.497 59.7336C136.379 59.7829 136.282 59.8706 136.22 59.9824C136.158 60.0942 136.136 60.2236 136.157 60.3495C136.178 60.4755 136.241 60.5906 136.336 60.6764C136.43 60.7621 136.551 60.8134 136.679 60.8219Z" fill="#002966"/>
<path d="M131.259 55.9844C131.264 55.7303 131.293 55.4773 131.346 55.2286C131.493 54.5542 131.815 53.9302 132.279 53.4195C132.743 52.9087 133.334 52.5291 133.991 52.3188L133.655 51.2305C132.809 51.501 132.048 51.99 131.451 52.6482C130.854 53.3064 130.441 54.1104 130.254 54.9792C130.183 55.3032 130.145 55.6337 130.141 55.9655L131.259 55.9844Z" fill="#002966"/>
<path d="M164.809 61.9555C164.489 61.9563 164.176 61.862 163.909 61.6848C163.643 61.5075 163.435 61.2552 163.312 60.9597C163.189 60.6642 163.156 60.3389 163.218 60.0249C163.28 59.7109 163.434 59.4223 163.66 59.1958C163.886 58.9692 164.174 58.8148 164.488 58.7521C164.802 58.6893 165.127 58.7212 165.423 58.8435C165.719 58.9658 165.972 59.1731 166.149 59.4391C166.327 59.7052 166.422 60.018 166.422 60.3381C166.422 60.7664 166.252 61.1772 165.95 61.4804C165.647 61.7837 165.237 61.9545 164.809 61.9555Z" fill="#A4D4FC"/>
<path d="M164.742 60.9022C164.804 60.9014 164.865 60.8912 164.924 60.872C165.063 60.8229 165.203 60.7662 165.358 60.6982C166.45 60.192 167.325 59.3125 167.826 58.218C168.327 57.1236 168.42 55.8862 168.089 54.7291C167.758 53.5719 167.024 52.5711 166.021 51.907C165.017 51.2429 163.809 50.9592 162.615 51.1071C162.31 51.1435 162.01 51.2093 161.719 51.3036C161.645 51.3227 161.576 51.3567 161.515 51.4034C161.455 51.4501 161.405 51.5086 161.368 51.5754C161.331 51.6421 161.308 51.7157 161.3 51.7916C161.292 51.8676 161.3 51.9443 161.323 52.0171C161.345 52.09 161.383 52.1574 161.433 52.2154C161.482 52.2733 161.543 52.3205 161.612 52.3542C161.68 52.3878 161.755 52.4072 161.831 52.4111C161.907 52.415 161.984 52.4033 162.055 52.3769C162.283 52.3056 162.517 52.255 162.754 52.2257C163.688 52.1015 164.635 52.3172 165.422 52.8333C166.21 53.3494 166.785 54.1315 167.044 55.0369C167.302 55.9422 167.226 56.9104 166.83 57.7645C166.434 58.6187 165.744 59.3018 164.886 59.6892C164.769 59.7421 164.659 59.7837 164.557 59.8215C164.431 59.8646 164.324 59.9514 164.255 60.0662C164.187 60.181 164.161 60.3164 164.184 60.4481C164.206 60.5799 164.274 60.6994 164.377 60.7854C164.479 60.8713 164.609 60.9181 164.742 60.9174V60.9022Z" fill="#002966"/>
<path d="M159.326 56.0527C159.331 55.7985 159.36 55.5455 159.413 55.2969C159.559 54.6214 159.88 53.9963 160.344 53.4848C160.809 52.9732 161.4 52.5932 162.058 52.3833L161.718 51.3101C160.707 51.6264 159.822 52.2544 159.19 53.1042C158.557 53.954 158.209 54.982 158.196 56.0413L159.326 56.0527Z" fill="#002966"/>
<path d="M193.09 62.413C192.77 62.4138 192.456 62.3195 192.19 62.142C191.923 61.9646 191.715 61.712 191.593 61.4163C191.47 61.1206 191.437 60.7951 191.5 60.481C191.562 60.1669 191.716 59.8784 191.942 59.652C192.169 59.4255 192.457 59.2714 192.772 59.2091C193.086 59.1468 193.411 59.1792 193.707 59.3021C194.003 59.4249 194.255 59.6328 194.433 59.8994C194.61 60.166 194.704 60.4792 194.704 60.7994C194.704 61.2274 194.534 61.6378 194.231 61.9404C193.928 62.243 193.518 62.413 193.09 62.413Z" fill="#A4D4FC"/>
<path d="M193.023 61.3619C193.085 61.3611 193.146 61.3509 193.205 61.3317C193.351 61.2802 193.495 61.2209 193.635 61.1541C194.727 60.6479 195.601 59.7686 196.102 58.6747C196.602 57.5808 196.696 56.3441 196.365 55.1874C196.035 54.0307 195.302 53.0299 194.3 52.3655C193.297 51.701 192.09 51.4164 190.896 51.563C190.591 51.6009 190.29 51.6641 189.996 51.752C189.853 51.7971 189.734 51.8971 189.665 52.03C189.596 52.1628 189.583 52.3177 189.628 52.4605C189.673 52.6034 189.773 52.7224 189.906 52.7915C190.039 52.8606 190.194 52.8741 190.336 52.829C190.564 52.7577 190.798 52.7071 191.035 52.6778C191.963 52.5624 192.901 52.7821 193.68 53.2974C194.46 53.8127 195.03 54.5896 195.287 55.488C195.544 56.3864 195.472 57.3472 195.083 58.197C194.694 59.0467 194.015 59.7296 193.167 60.1224C193.06 60.1736 192.95 60.2178 192.838 60.2547C192.713 60.2999 192.608 60.3874 192.542 60.502C192.475 60.6165 192.45 60.7509 192.472 60.8817C192.494 61.0125 192.561 61.1314 192.662 61.2178C192.763 61.3041 192.891 61.3525 193.023 61.3544V61.3619Z" fill="#002966"/>
<path d="M187.617 56.5135C187.623 56.2594 187.652 56.0063 187.704 55.7577C187.85 55.0829 188.172 54.4586 188.636 53.9477C189.101 53.4369 189.692 53.0575 190.35 52.8479L190.002 51.752C189.156 52.0228 188.396 52.512 187.798 53.1701C187.201 53.8282 186.788 54.6321 186.601 55.5007C186.532 55.8251 186.496 56.1555 186.491 56.487L187.617 56.5135Z" fill="#002966"/>
<path d="M172.88 102.012L184.53 101.865C184.65 101.856 184.766 101.821 184.871 101.762C184.975 101.703 185.065 101.622 185.134 101.524C185.203 101.426 185.25 101.314 185.27 101.196C185.291 101.077 185.284 100.956 185.252 100.841L183.877 92.6328C183.84 92.3706 183.715 92.1288 183.523 91.9468C183.331 91.7649 183.082 91.6536 182.819 91.6313L171.164 91.7825C171.044 91.7902 170.928 91.8246 170.823 91.8834C170.718 91.9422 170.628 92.0238 170.559 92.1221C170.49 92.2204 170.444 92.333 170.425 92.4515C170.405 92.57 170.413 92.6913 170.446 92.8066L171.822 101.011C171.857 101.274 171.981 101.517 172.173 101.699C172.366 101.881 172.615 101.992 172.88 102.012Z" fill="#A4D4FC"/>
<path d="M192.992 101.737L204.646 101.589C204.766 101.581 204.882 101.545 204.987 101.486C205.091 101.426 205.181 101.344 205.249 101.246C205.318 101.148 205.364 101.035 205.384 100.917C205.404 100.798 205.397 100.677 205.364 100.562L203.989 92.3574C203.953 92.0947 203.829 91.8521 203.636 91.6699C203.444 91.4877 203.195 91.3769 202.931 91.356L191.276 91.5033C191.157 91.5122 191.04 91.5476 190.936 91.607C190.832 91.6664 190.742 91.7483 190.673 91.8467C190.604 91.9451 190.558 92.0576 190.538 92.176C190.519 92.2944 190.525 92.4158 190.558 92.5312L191.934 100.735C191.969 100.998 192.093 101.241 192.285 101.424C192.478 101.606 192.727 101.717 192.992 101.737Z" fill="#A4D4FC"/>
<path d="M116.994 102.689L163.272 102.096C165.214 102.073 166.828 101.998 166.616 100.981L165.131 92.3122C164.84 91.1293 163.359 91.2616 161.416 91.2843L115.139 91.8776C113.197 91.9002 111.568 91.6357 111.795 92.9924L113.284 101.661C113.454 103.218 115.063 102.712 116.994 102.689Z" fill="white"/>
<path d="M155.803 118.187L167.458 118.036C167.578 118.028 167.694 117.994 167.799 117.935C167.904 117.876 167.994 117.795 168.063 117.696C168.132 117.598 168.178 117.485 168.197 117.367C168.217 117.249 168.209 117.127 168.176 117.012L166.804 108.815C166.767 108.553 166.643 108.31 166.451 108.128C166.258 107.945 166.01 107.833 165.746 107.81L154.091 107.961C153.972 107.97 153.856 108.005 153.751 108.064C153.647 108.123 153.557 108.204 153.488 108.302C153.418 108.4 153.372 108.512 153.352 108.63C153.331 108.749 153.337 108.87 153.37 108.985L154.741 117.186C154.778 117.448 154.904 117.691 155.097 117.873C155.29 118.055 155.539 118.166 155.803 118.187Z" fill="white"/>
<path d="M175.227 117.933L186.881 117.782C187.003 117.777 187.122 117.744 187.23 117.685C187.337 117.627 187.43 117.545 187.501 117.446C187.572 117.346 187.619 117.232 187.64 117.112C187.66 116.991 187.653 116.868 187.618 116.75L186.246 108.546C186.21 108.283 186.084 108.04 185.891 107.858C185.698 107.675 185.449 107.563 185.184 107.541L173.534 107.692C173.414 107.701 173.298 107.736 173.193 107.795C173.089 107.854 172.999 107.935 172.93 108.033C172.861 108.131 172.814 108.243 172.794 108.361C172.774 108.48 172.78 108.601 172.812 108.716L174.188 116.924C174.223 117.185 174.344 117.426 174.533 117.609C174.721 117.792 174.966 117.906 175.227 117.933Z" fill="#A4D4FC"/>
<path d="M195.328 117.678L206.982 117.526C207.102 117.518 207.218 117.483 207.322 117.424C207.427 117.365 207.517 117.284 207.585 117.186C207.654 117.087 207.7 116.975 207.72 116.857C207.74 116.739 207.733 116.618 207.7 116.502L206.328 108.294C206.291 108.033 206.166 107.791 205.974 107.609C205.782 107.427 205.534 107.316 205.27 107.293L193.616 107.444C193.496 107.452 193.379 107.486 193.275 107.545C193.17 107.604 193.079 107.685 193.01 107.784C192.941 107.882 192.895 107.994 192.875 108.113C192.855 108.231 192.861 108.353 192.894 108.468L194.27 116.672C194.306 116.935 194.431 117.177 194.623 117.36C194.815 117.542 195.064 117.654 195.328 117.678Z" fill="white"/>
<path d="M136.066 118.44L147.721 118.289C147.841 118.281 147.957 118.247 148.062 118.188C148.167 118.129 148.257 118.048 148.326 117.95C148.396 117.851 148.442 117.739 148.462 117.62C148.482 117.502 148.475 117.381 148.442 117.265L147.067 109.061C147.03 108.798 146.906 108.556 146.714 108.373C146.521 108.191 146.273 108.079 146.009 108.056L134.354 108.207C134.235 108.215 134.119 108.25 134.014 108.309C133.91 108.368 133.82 108.45 133.751 108.548C133.683 108.646 133.636 108.758 133.617 108.876C133.597 108.995 133.604 109.116 133.636 109.231L135.008 117.439C135.045 117.701 135.17 117.943 135.362 118.125C135.554 118.307 135.803 118.418 136.066 118.44Z" fill="#A4D4FC"/>
<path d="M116.333 118.693L127.987 118.542C128.107 118.534 128.224 118.499 128.328 118.441C128.433 118.382 128.523 118.3 128.592 118.202C128.661 118.104 128.707 117.991 128.727 117.873C128.746 117.754 128.739 117.633 128.705 117.517L127.33 109.313C127.294 109.05 127.169 108.808 126.977 108.625C126.785 108.442 126.536 108.331 126.272 108.308L114.617 108.459C114.498 108.468 114.381 108.503 114.277 108.561C114.173 108.62 114.083 108.702 114.014 108.8C113.945 108.898 113.899 109.011 113.879 109.129C113.859 109.247 113.866 109.368 113.899 109.483L115.275 117.691C115.31 117.954 115.434 118.197 115.627 118.379C115.819 118.561 116.069 118.672 116.333 118.693Z" fill="#A4D4FC"/>
<path d="M108.8 70.2845L117.783 70.2492C118.161 70.2524 118.445 70.1415 118.412 70.0165L117.979 68.1648C117.95 68.0398 117.603 67.9385 117.225 67.939L108.242 67.9744C107.864 67.9712 107.579 68.0821 107.609 68.207L108.046 70.0588C108.09 70.1839 108.422 70.285 108.8 70.2845Z" fill="#002966"/>
<path d="M128.905 70.4589L137.889 70.4235C138.266 70.4267 138.551 70.3158 138.522 70.1909L138.084 68.3391C138.055 68.2141 137.708 68.1129 137.33 68.1134L128.347 68.1488C127.969 68.1455 127.685 68.2564 127.714 68.3813L128.151 70.2331C128.207 70.3583 128.527 70.4594 128.905 70.4589Z" fill="#002966"/>
<path d="M148.753 70.6307L157.736 70.5953C158.114 70.5986 158.399 70.4877 158.37 70.3627L157.932 68.5109C157.903 68.386 157.556 68.2847 157.178 68.2852L148.195 68.3206C147.817 68.3173 147.536 68.4283 147.566 68.5532L147.999 70.405C148.043 70.5301 148.379 70.6312 148.753 70.6307Z" fill="#002966"/>
<path d="M168.672 70.8051L177.655 70.7697C178.033 70.7729 178.314 70.662 178.285 70.537L177.847 68.6853C177.818 68.5603 177.471 68.459 177.093 68.4595L168.11 68.4949C167.732 68.4916 167.451 68.6026 167.481 68.7275L167.918 70.5793C167.962 70.7044 168.294 70.8056 168.672 70.8051Z" fill="#002966"/>
<path d="M188.311 70.9744L197.295 70.939C197.672 70.9423 197.957 70.8314 197.928 70.7064L197.49 68.8546C197.461 68.7296 197.114 68.6284 196.736 68.6289L194.431 68.6391L187.768 68.6833C187.139 68.6832 187.106 68.7909 187.139 68.9159L187.572 70.7677C187.602 70.8737 187.695 71.0195 188.311 70.9744Z" fill="#002966"/>
<path d="M126.058 97.3542C126.058 97.137 126.023 96.9325 125.953 96.7409C125.883 96.5428 125.78 96.3991 125.646 96.3096C125.206 96.431 124.825 96.7728 124.506 97.335C124.193 97.8908 124.036 98.4147 124.036 98.9067C124.036 99.3986 124.158 99.7053 124.401 99.8267C124.861 99.7372 125.25 99.4242 125.57 98.8875C125.895 98.3445 126.058 97.8333 126.058 97.3542ZM123.538 97.4404C123.762 96.9421 124.052 96.5332 124.41 96.2138C124.774 95.8879 125.145 95.725 125.522 95.725C125.905 95.725 126.225 95.8879 126.48 96.2138C126.736 96.5332 126.863 96.9261 126.863 97.3925C126.863 97.8525 126.752 98.3253 126.528 98.8108C126.304 99.29 125.995 99.6893 125.598 100.009C125.209 100.322 124.793 100.478 124.353 100.478C124.027 100.478 123.755 100.328 123.538 100.028C123.321 99.7276 123.212 99.3475 123.212 98.8875C123.212 98.4211 123.321 97.9388 123.538 97.4404ZM128.446 98.8108C129.059 97.7695 129.557 96.9964 129.941 96.4917C130.331 95.9806 130.647 95.725 130.89 95.725C131.139 95.725 131.372 95.856 131.589 96.1179C131.813 96.3799 131.925 96.6578 131.925 96.9517C131.925 97.4117 131.819 97.9739 131.608 98.6383C131.225 99.865 130.88 100.478 130.573 100.478C130.433 100.478 130.362 100.382 130.362 100.191C130.362 100.057 130.43 99.7851 130.564 99.3762C130.704 98.961 130.832 98.5553 130.947 98.1592C131.068 97.7567 131.129 97.4564 131.129 97.2583C131.129 97.0539 131.097 96.9038 131.033 96.8079C130.976 96.7121 130.915 96.6642 130.851 96.6642C130.794 96.6642 130.733 96.6834 130.669 96.7217C130.605 96.76 130.532 96.8239 130.449 96.9134C130.372 97.0028 130.299 97.0922 130.228 97.1817C130.158 97.2647 130.069 97.3861 129.96 97.5458C129.858 97.7056 129.772 97.8429 129.701 97.9579C129.631 98.0665 129.529 98.2263 129.395 98.4371C129.26 98.6479 129.158 98.8076 129.088 98.9163C129.018 99.0249 128.925 99.1718 128.81 99.3571C128.695 99.5424 128.602 99.6861 128.532 99.7883C128.468 99.8905 128.395 100.002 128.312 100.124C128.152 100.36 128.024 100.478 127.928 100.478C127.839 100.478 127.733 100.408 127.612 100.267C127.491 100.121 127.43 99.9928 127.43 99.8842C127.43 99.8522 127.452 99.766 127.497 99.6254C127.618 99.2549 127.753 98.7981 127.9 98.255C128.047 97.7056 128.126 97.0827 128.139 96.3863C128.158 95.9199 128.225 95.6867 128.34 95.6867C128.481 95.6867 128.622 95.7602 128.762 95.9071C128.903 96.0541 128.973 96.217 128.973 96.3959C128.973 96.5684 128.919 96.907 128.81 97.4117C128.708 97.91 128.586 98.3764 128.446 98.8108ZM136.875 100.478C136.786 100.478 136.68 100.411 136.559 100.277C136.437 100.137 136.377 100.006 136.377 99.8842C136.377 99.7628 136.476 99.3475 136.674 98.6383C136.878 97.9292 137.079 97.0763 137.277 96.0796C137.482 95.0766 137.584 94.1598 137.584 93.3292C137.584 93.1376 137.654 93.0417 137.795 93.0417C137.897 93.0417 138.022 93.1376 138.169 93.3292C138.316 93.5145 138.389 93.6966 138.389 93.8755C138.389 94.6613 138.217 95.7825 137.872 97.2392C138.632 96.2106 139.322 95.6963 139.942 95.6963C140.242 95.6963 140.494 95.8432 140.699 96.1371C140.91 96.431 141.015 96.7824 141.015 97.1913C141.015 97.5938 140.897 98.057 140.66 98.5808C140.43 99.1047 140.117 99.5551 139.721 99.9321C139.325 100.303 138.91 100.488 138.475 100.488C138.041 100.488 137.613 100.267 137.191 99.8267L137.182 99.8362C137.041 100.264 136.939 100.478 136.875 100.478ZM138.399 99.7404C138.814 99.7404 139.22 99.4593 139.616 98.8971C140.018 98.3285 140.22 97.7311 140.22 97.105C140.22 96.7281 140.105 96.5396 139.875 96.5396C139.504 96.5396 139.089 96.7984 138.629 97.3158C138.175 97.8333 137.782 98.4499 137.45 99.1654C137.75 99.5487 138.066 99.7404 138.399 99.7404ZM142.073 96.8942L142.044 96.1754C142.044 95.8752 142.114 95.725 142.255 95.725C142.376 95.725 142.491 95.8049 142.6 95.9646C142.715 96.1179 142.772 96.3032 142.772 96.5204C142.772 96.7313 142.766 96.891 142.753 96.9996C143.309 96.1563 143.836 95.7346 144.334 95.7346C144.648 95.7346 144.804 95.8113 144.804 95.9646C144.804 96.0413 144.769 96.1116 144.699 96.1754C144.628 96.2393 144.517 96.3128 144.363 96.3959C144.025 96.5428 143.737 96.7696 143.501 97.0763C143.271 97.3765 143.082 97.7183 142.935 98.1017C142.788 98.485 142.67 98.8076 142.581 99.0696C142.498 99.3315 142.434 99.536 142.389 99.6829C142.344 99.8299 142.293 99.9736 142.236 100.114C142.134 100.37 142.015 100.497 141.881 100.497C141.773 100.497 141.683 100.437 141.613 100.315C141.549 100.188 141.517 100.066 141.517 99.9512C141.517 99.8299 141.571 99.5935 141.68 99.2421C141.942 98.4371 142.073 97.6545 142.073 96.8942ZM148.494 97.3158C148.494 97.6545 148.309 97.9324 147.938 98.1496C147.574 98.3604 147.159 98.4658 146.692 98.4658C146.232 98.4658 145.814 98.4147 145.437 98.3125C145.348 98.5936 145.303 98.846 145.303 99.0696C145.303 99.2868 145.37 99.4561 145.504 99.5775C145.645 99.6989 145.872 99.7596 146.185 99.7596C146.504 99.7596 146.83 99.7053 147.162 99.5967C147.501 99.4817 147.686 99.4242 147.718 99.4242C147.884 99.4242 147.967 99.4881 147.967 99.6158C147.967 99.7883 147.772 99.9768 147.382 100.181C146.993 100.379 146.613 100.478 146.242 100.478C145.744 100.478 145.338 100.331 145.025 100.037C144.712 99.7372 144.555 99.3603 144.555 98.9067C144.555 98.4531 144.677 97.9803 144.92 97.4883C145.162 96.99 145.475 96.5715 145.859 96.2329C146.242 95.8943 146.622 95.725 146.999 95.725C147.376 95.725 147.718 95.9039 148.025 96.2617C148.338 96.6195 148.494 96.9709 148.494 97.3158ZM147.047 96.4821C146.811 96.4821 146.565 96.6067 146.309 96.8559C146.054 97.0986 145.836 97.4021 145.658 97.7663C145.913 97.8238 146.204 97.8525 146.53 97.8525C146.855 97.8525 147.14 97.8014 147.382 97.6992C147.625 97.5906 147.747 97.45 147.747 97.2775C147.747 97.105 147.667 96.9293 147.507 96.7504C147.354 96.5715 147.2 96.4821 147.047 96.4821ZM151.534 95.725C151.821 95.725 152.087 95.872 152.329 96.1659C152.572 96.4534 152.693 96.7153 152.693 96.9517C152.693 97.1817 152.614 97.4181 152.454 97.6608C152.531 97.7567 152.569 97.8397 152.569 97.91C152.569 98.0889 152.527 98.3956 152.444 98.83C152.368 99.2644 152.32 99.5487 152.301 99.6829C152.288 99.8171 152.275 99.9257 152.262 100.009C152.249 100.085 152.233 100.162 152.214 100.239C152.189 100.398 152.131 100.478 152.042 100.478C151.927 100.478 151.831 100.379 151.754 100.181C151.684 99.9768 151.643 99.7149 151.63 99.3954C151.061 100.117 150.534 100.478 150.049 100.478C149.755 100.478 149.464 100.354 149.176 100.105C148.895 99.849 148.755 99.5871 148.755 99.3187C148.755 98.9354 148.895 98.4626 149.176 97.9004C149.458 97.3318 149.822 96.8271 150.269 96.3863C150.716 95.9454 151.138 95.725 151.534 95.725ZM151.975 97.4117C151.975 96.8175 151.857 96.5204 151.62 96.5204C151.371 96.5204 151.08 96.6993 150.748 97.0571C150.416 97.4085 150.135 97.8078 149.905 98.255C149.675 98.7022 149.56 99.0568 149.56 99.3187C149.56 99.4274 149.604 99.5168 149.694 99.5871C149.783 99.651 149.889 99.6829 150.01 99.6829C150.31 99.6829 150.649 99.4817 151.026 99.0792C151.403 98.6703 151.665 98.1751 151.812 97.5938C151.831 97.4979 151.885 97.4404 151.975 97.4213V97.4117ZM157.713 96.2425C157.713 96.3 157.428 96.6003 156.86 97.1434C156.649 97.3478 156.454 97.5906 156.275 97.8717C156.103 98.1464 156.016 98.3988 156.016 98.6288C156.016 98.8588 156.084 99.0728 156.218 99.2708C156.358 99.4625 156.508 99.6094 156.668 99.7117C156.834 99.8075 156.984 99.9033 157.119 99.9992C157.259 100.095 157.329 100.175 157.329 100.239C157.329 100.398 157.202 100.478 156.946 100.478C156.697 100.478 156.397 100.338 156.045 100.057C155.7 99.7692 155.486 99.4497 155.403 99.0983C155.371 99.0344 155.346 98.9738 155.326 98.9163C154.892 99.504 154.576 99.9129 154.378 100.143C154.186 100.367 154.042 100.478 153.946 100.478C153.851 100.478 153.745 100.405 153.63 100.258C153.515 100.105 153.458 99.98 153.458 99.8842C153.458 99.7819 153.56 99.3699 153.764 98.6479C153.975 97.9196 154.183 97.0475 154.387 96.0317C154.598 95.0159 154.704 94.1087 154.704 93.3101C154.704 93.2078 154.716 93.1376 154.742 93.0992C154.774 93.0609 154.838 93.0417 154.934 93.0417C155.029 93.0417 155.148 93.1376 155.288 93.3292C155.429 93.5145 155.499 93.6966 155.499 93.8755C155.499 94.4441 155.384 95.2395 155.154 96.2617C154.924 97.2839 154.649 98.255 154.33 99.175C155.052 98.1464 155.675 97.3158 156.199 96.6834C156.729 96.0445 157.055 95.725 157.176 95.725C157.304 95.725 157.425 95.7857 157.54 95.9071C157.655 96.0285 157.713 96.1403 157.713 96.2425Z" fill="#002966"/>
<path d="M87.5586 164.562C87.5586 164.562 91.1593 154.211 94.5604 146.581C95.1348 145.3 95.6941 144.098 96.2307 143.04C96.6653 142.175 97.081 141.404 97.4702 140.773C101.151 134.666 114.098 115.272 119.83 111.86C121.803 110.601 128.269 109.343 130.336 109.883C130.573 109.999 130.774 110.177 130.917 110.399C131.059 110.621 131.138 110.878 131.145 111.142L136.435 110.692C136.435 110.692 141.726 107.189 143.797 106.913C144.787 106.373 146.041 106.104 146.132 106.913C146.223 107.722 144.964 108.976 144.964 108.976C144.964 108.976 145.864 110.057 145.233 111.221L144.605 112.389C144.605 112.389 145.146 114.365 143.26 116.432C141.374 118.5 138.68 121.372 137.781 121.64C136.881 121.908 122.517 122.808 120.541 124.693C118.564 126.579 117.038 126.847 108.327 149.567C99.6167 172.286 91.0988 167.505 91.0988 167.505C90.433 167.167 89.8003 166.768 89.2094 166.311C88.5549 165.821 88.0976 165.177 87.5586 164.562Z" fill="#DD7C58"/>
<path d="M42.2387 139.45C42.2387 139.45 40.0084 160.134 38.75 163.126C39.9933 164.445 41.2867 167.354 41.2867 167.354C41.2867 167.354 44.2642 143.581 42.2387 139.45Z" fill="#006BC2"/>
<path d="M37.2053 124.396C37.2053 124.396 36.24 122.886 37.9481 122.168C41.1736 120.949 41.0346 121.877 41.1933 121.802C41.352 121.726 49.6885 141.033 44.84 158.458C44.0313 161.693 42.2477 167.418 41.5674 167.293C40.8872 167.169 39.7838 164.27 39.7838 164.27C39.7838 164.27 44.4017 147.246 41.5674 136.113C38.7332 124.98 38.8303 125.315 37.2053 124.396Z" fill="#002966"/>
<path d="M72.0729 99.1056H72.0351C70.7125 99.1056 69.3899 99.2001 68.071 99.2341C67.2736 99.253 66.4725 99.2605 65.6751 99.321C65.2179 99.3588 63.8914 99.321 63.7856 99.9558C63.7707 100.123 63.794 100.291 63.8536 100.447C64.0284 101.12 64.2821 101.769 64.6094 102.382C64.9592 102.973 65.4635 103.458 66.0681 103.784C66.6599 104.169 67.3501 104.375 68.0559 104.377C69.2349 104.305 70.2439 103.591 70.9921 102.715C71.3726 102.263 71.7021 101.772 71.9747 101.248C72.243 100.738 72.6247 100.054 72.5226 99.4608C72.5107 99.3607 72.4654 99.2676 72.3941 99.1963C72.3007 99.1301 72.1872 99.098 72.0729 99.1056Z" fill="#762929"/>
<mask id="mask1" style="mask-type:alpha" maskUnits="userSpaceOnUse" x="63" y="99" width="10" height="6">
<path d="M72.0729 99.1056H72.0351C70.7125 99.1056 69.3899 99.2001 68.071 99.2341C67.2736 99.253 66.4725 99.2605 65.6751 99.321C65.2179 99.3588 63.8914 99.321 63.7856 99.9558C63.7707 100.123 63.794 100.291 63.8536 100.447C64.0284 101.12 64.2821 101.769 64.6094 102.382C64.9592 102.973 65.4635 103.458 66.0681 103.784C66.6599 104.169 67.3501 104.375 68.0559 104.377C69.2349 104.305 70.2439 103.591 70.9921 102.715C71.3726 102.263 71.7021 101.772 71.9747 101.248C72.243 100.738 72.6247 100.054 72.5226 99.4608C72.5107 99.3607 72.4654 99.2676 72.3941 99.1963C72.3007 99.1301 72.1872 99.098 72.0729 99.1056Z" fill="#C34D4D"/>
</mask>
<g mask="url(#mask1)">
<path d="M63.9102 99.483C63.9102 99.483 63.9366 100.356 64.2389 100.337C64.5412 100.318 72.4393 100.575 72.9306 99.808C73.0734 99.5722 73.1594 99.3063 73.1817 99.0315C73.204 98.7566 73.162 98.4804 73.0591 98.2246L63.9102 99.483Z" fill="#E8E8E8"/>
<path d="M63.7812 102.415C63.7812 102.415 69.5631 101.229 70.6363 104.558C71.7096 107.887 64.4955 104.331 64.4955 104.331L63.7812 102.415Z" fill="#BE565E"/>
</g>
<path d="M69.6211 93.1462C69.6211 93.1462 71.571 92.8552 72.0888 94.1816C72.2356 94.5672 72.2756 94.9853 72.2044 95.3918C72.1332 95.7982 71.9536 96.1779 71.6844 96.4906" stroke="#001E4A" stroke-width="0.566847" stroke-miterlimit="10" stroke-linecap="round"/>
<path d="M57.7148 109.804C57.7148 109.804 61.218 112.385 66.9431 111.667C66.9431 113.375 67.03 114.312 67.03 114.312C67.03 114.312 59.4343 114.082 57.7148 109.804Z" fill="#BB5536"/>
<path d="M51.3739 98.6382C52.0002 98.8951 52.3743 99.5126 52.4143 100.188L52.6223 103.697C52.6446 104.072 52.339 104.38 51.9664 104.33C50.4369 104.127 46.9425 103.325 47.1881 100.24C47.4117 97.4295 49.9407 98.0504 51.3739 98.6382Z" fill="#BB5536"/>
<path d="M58.2412 87.901C58.9109 86.6322 59.9044 85.5631 61.1208 84.8022" stroke="#001E4A" stroke-width="1.13369" stroke-miterlimit="10" stroke-linecap="round"/>
<path d="M68.1641 80.9017C69.5446 80.5069 71.0053 80.486 72.3965 80.8412" stroke="#001E4A" stroke-width="1.13369" stroke-miterlimit="10" stroke-linecap="round"/>
<path d="M63.2912 92.0689C63.8965 92.0689 64.3871 91.5241 64.3871 90.8521C64.3871 90.18 63.8965 89.6353 63.2912 89.6353C62.686 89.6353 62.1953 90.18 62.1953 90.8521C62.1953 91.5241 62.686 92.0689 63.2912 92.0689Z" fill="#333333"/>
<path d="M71.9349 89.775C72.4901 89.775 72.9401 89.2302 72.9401 88.5581C72.9401 87.8861 72.4901 87.3413 71.9349 87.3413C71.3797 87.3413 70.9297 87.8861 70.9297 88.5581C70.9297 89.2302 71.3797 89.775 71.9349 89.775Z" fill="#333333"/>
<path d="M47.3398 99.9177C47.3398 99.9177 47.7659 97.1711 51.712 98.8623" stroke="#001E4A" stroke-width="0.566847" stroke-miterlimit="10" stroke-linecap="round"/>
<path d="M13.3106 132.86C13.3106 132.86 8.91189 133.578 8.82119 134.568C8.7305 135.558 8.99884 140.266 8.82122 143.126C8.64361 145.987 8.51509 157.287 8.82119 158.092C9.12729 158.897 10.5595 161.172 12.5699 161.058C14.5804 160.945 20.4227 159.977 20.8837 158.9C21.3447 157.823 22.229 140.686 22.229 137.168C22.229 135.963 22.7694 129.79 20.8837 129.968C18.998 130.145 13.3106 132.86 13.3106 132.86Z" fill="#008BDC"/>
<path d="M7.97153 130.286C7.97153 130.286 5.52117 133.759 7.67518 134.386C9.44892 134.903 17.3137 134.42 20.0354 134.234C20.6002 134.195 21.0759 133.813 21.2391 133.271C21.6184 132.012 22.2492 129.856 22.1639 129.723C22.0677 129.573 14.3198 128.408 11.1562 127.938C10.3391 127.817 9.5279 128.16 9.04002 128.826L7.97153 130.286Z" fill="#00489A"/>
<path d="M81.8477 147.049V163.48L84.0395 167.935C84.0395 167.935 84.8104 152.974 81.8477 147.049Z" fill="#006BC2"/>
<path d="M52.1562 133.558L54.6504 131.707" stroke="white" stroke-width="0.377898" stroke-miterlimit="10" stroke-linecap="round"/>
<path d="M58.1004 138.78L55.3984 137.514" stroke="white" stroke-width="0.377898" stroke-miterlimit="10" stroke-linecap="round"/>
<path d="M56.8274 148.463L54.3711 147.22" stroke="white" stroke-width="0.377898" stroke-miterlimit="10" stroke-linecap="round"/>
<path d="M52.0346 140.84L49.6992 139.2" stroke="white" stroke-width="0.377898" stroke-miterlimit="10" stroke-linecap="round"/>
<path d="M63.2607 140.878L66.4918 140.776" stroke="white" stroke-width="0.377898" stroke-miterlimit="10" stroke-linecap="round"/>
<path d="M63.5377 136.086L60.9453 134.934" stroke="white" stroke-width="0.377898" stroke-miterlimit="10" stroke-linecap="round"/>
<path d="M64.6484 147.103L67.2257 145.523" stroke="white" stroke-width="0.377898" stroke-miterlimit="10" stroke-linecap="round"/>
<path d="M60.5706 155.525L57.5625 153.998" stroke="white" stroke-width="0.377898" stroke-miterlimit="10" stroke-linecap="round"/>
<path d="M71.0186 152.748L73.097 151.176" stroke="white" stroke-width="0.377898" stroke-miterlimit="10" stroke-linecap="round"/>
<path d="M68.3017 155.934L66.3857 158.156" stroke="white" stroke-width="0.377898" stroke-miterlimit="10" stroke-linecap="round"/>
<path d="M88.9768 151.308L86.1992 152.699" stroke="white" stroke-width="0.377898" stroke-miterlimit="10" stroke-linecap="round"/>
<path d="M86.9648 135.818L89.1642 137.47" stroke="white" stroke-width="0.377898" stroke-miterlimit="10" stroke-linecap="round"/>
<path d="M90.3594 144.159L92.3736 146.18" stroke="white" stroke-width="0.377898" stroke-miterlimit="10" stroke-linecap="round"/>
<path d="M79.3131 142.167L76.1123 141.71" stroke="white" stroke-width="0.377898" stroke-miterlimit="10" stroke-linecap="round"/>
<path d="M78.207 146.838L80.5576 148.426" stroke="white" stroke-width="0.377898" stroke-miterlimit="10" stroke-linecap="round"/>
<path d="M79.0275 135.799L76.2197 136.903" stroke="white" stroke-width="0.377898" stroke-miterlimit="10" stroke-linecap="round"/>
<path d="M84.5117 128.211L87.2061 130.236" stroke="white" stroke-width="0.377898" stroke-miterlimit="10" stroke-linecap="round"/>
<path d="M73.7344 129.13L71.4141 130.32" stroke="white" stroke-width="0.377898" stroke-miterlimit="10" stroke-linecap="round"/>
<path d="M47.6213 163.454L44.8438 164.841" stroke="white" stroke-width="0.377898" stroke-miterlimit="10" stroke-linecap="round"/>
<path d="M49.0117 156.301L51.0259 158.323" stroke="white" stroke-width="0.377898" stroke-miterlimit="10" stroke-linecap="round"/>
<path d="M37.9586 154.313L34.7578 153.852" stroke="white" stroke-width="0.377898" stroke-miterlimit="10" stroke-linecap="round"/>
<path d="M37.675 147.945L34.8672 149.048" stroke="white" stroke-width="0.377898" stroke-miterlimit="10" stroke-linecap="round"/>
<path d="M32.3866 141.275L30.0625 142.462" stroke="white" stroke-width="0.377898" stroke-miterlimit="10" stroke-linecap="round"/>
<path d="M35.6133 138.611L37.8844 136.755" stroke="white" stroke-width="0.377898" stroke-miterlimit="10" stroke-linecap="round"/>
<path d="M72.6367 177.652L74.8361 179.303" stroke="white" stroke-width="0.377898" stroke-miterlimit="10" stroke-linecap="round"/>
<path d="M60.3926 175.585L57.5811 176.692" stroke="white" stroke-width="0.377898" stroke-miterlimit="10" stroke-linecap="round"/>
<path d="M55.1014 168.919L52.7773 170.105" stroke="white" stroke-width="0.377898" stroke-miterlimit="10" stroke-linecap="round"/>
<path d="M58.3281 166.251L60.6031 164.399" stroke="white" stroke-width="0.377898" stroke-miterlimit="10" stroke-linecap="round"/>
<path d="M78.1527 166.447L76.8867 168.726" stroke="white" stroke-width="0.377898" stroke-miterlimit="10" stroke-linecap="round"/>
<path d="M68.1996 168.2L66.9336 170.479" stroke="white" stroke-width="0.377898" stroke-miterlimit="10" stroke-linecap="round"/>
<path d="M76.668 162.918L77.522 160.114" stroke="white" stroke-width="0.377898" stroke-miterlimit="10" stroke-linecap="round"/>
<path d="M87.5121 164.536C87.5121 164.536 85.9693 170.952 87.2297 171.583C89.4847 172.71 91.1023 170.441 92.561 167.936C90.894 167.637 87.7842 165.568 87.5121 164.536Z" fill="#006BC2"/>
<path d="M89.7639 166.509C88.0105 165.753 87.5586 164.615 87.5586 164.615C87.5586 164.615 93.4191 146.887 96.0077 143.486C95.0252 146.838 89.8093 163.074 89.7639 166.509Z" fill="#BB5536"/>
<path d="M132.508 112.869C132.834 113.916 133.005 115.006 133.014 116.103" stroke="#BB5536" stroke-width="0.377898" stroke-miterlimit="10" stroke-linecap="round"/>
<path d="M133.594 112.869C133.594 112.869 139.028 110.749 139.432 110.413C139.837 110.076 143.11 107.387 143.59 107.206" stroke="#BB5536" stroke-width="0.377898" stroke-miterlimit="10" stroke-linecap="round"/>
<path d="M134.473 117.245C134.473 117.245 138.21 116.821 138.913 116.821C139.525 115.688 142.915 112.151 143.765 112.264" stroke="#BB5536" stroke-width="0.377898" stroke-miterlimit="10" stroke-linecap="round"/>
<path d="M134.965 114.486C134.965 114.486 138.744 113.53 139.141 113.102C139.537 112.675 143.698 109.323 144.616 109.244" stroke="#BB5536" stroke-width="0.377898" stroke-miterlimit="10" stroke-linecap="round"/>
<path d="M22.0429 99.8613C22.0429 99.8613 21.4156 103.323 24.0193 102.695C26.623 102.068 34.1659 98.138 35.0653 98.1267" stroke="#00489A" stroke-width="0.755796" stroke-miterlimit="10" stroke-linecap="round"/>
<path d="M50.0021 116.014C50.7088 116.986 52.3337 118.992 54.2648 119.895C54.3129 119.918 54.3518 119.957 54.3751 120.005C54.3983 120.053 54.4045 120.107 54.3926 120.159C54.3807 120.211 54.3515 120.258 54.3097 120.291C54.2679 120.324 54.2161 120.342 54.1627 120.341C53.0429 120.307 51.9296 120.157 50.841 119.892C50.8127 119.885 50.7861 119.872 50.7627 119.854C50.7393 119.837 50.7197 119.815 50.705 119.79C50.0326 118.693 49.643 117.446 49.5713 116.162C49.5665 116.11 49.5794 116.057 49.608 116.013C49.6366 115.969 49.6791 115.936 49.7288 115.919C49.7785 115.902 49.8324 115.902 49.882 115.919C49.9315 115.937 49.9738 115.97 50.0021 116.014Z" fill="#FF7A00"/>
<path d="M70.8801 114.365L63.365 118.304C63.2698 118.345 63.1948 118.423 63.1565 118.519C63.1182 118.615 63.1198 118.723 63.1609 118.818C63.202 118.913 63.2792 118.988 63.3756 119.027C63.472 119.065 63.5796 119.063 63.6749 119.022C67.2989 117.832 72.0831 116.267 72.4043 116.18C72.9258 116.044 70.8801 114.365 70.8801 114.365Z" fill="#FF7A00"/>
<path d="M126.007 112.245C126.007 112.245 129.03 111.576 131.037 111.085" stroke="#BB5536" stroke-width="0.377898" stroke-miterlimit="10" stroke-linecap="round"/>
<path fill-rule="evenodd" clip-rule="evenodd" d="M43.265 170.203C40.7406 165.844 38.7918 162.478 38.6555 162.54C30.44 166.039 23.8343 164.32 23.8343 164.32C23.7342 166.378 24.0544 168.435 24.7753 170.366C26.8548 176.465 37.2457 186.533 43.2451 192.346C44.4581 193.521 45.4917 194.523 46.2407 195.282H75.4112C75.8158 195.127 76.2307 194.973 76.6569 194.82C78.4557 194.17 74.3555 189.646 71.1207 188.074C69.201 187.141 64.6262 187.952 60.8296 188.624C58.2287 189.085 55.993 189.481 55.2263 189.208C54.0208 188.778 47.7389 177.929 43.265 170.203Z" fill="#DD7C58"/>
<path d="M23.8428 164.289C23.8428 164.289 32.7144 168.093 40.9753 166.366C40.3589 165.044 39.5926 163.717 38.7998 162.493C38.7998 162.493 28.6656 165.823 23.8428 164.289Z" fill="#BB5536"/>
<path d="M45.1641 194.223L71.1099 194.753L75.1424 195.231C73.8159 195.337 51.7413 195.418 47.4456 195.284C45.7477 195.231 46.5967 195.549 45.1641 194.223Z" fill="#BB5536"/>
<line x1="17.2442" y1="195.655" x2="90.1291" y2="195.655" stroke="#484848" stroke-width="2.09" stroke-linecap="round"/>
</svg>
